<svg id="Layer_2" data-name="Layer 2" xmlns="http://www.w3.org/2000/svg" viewBox="0 0 600 600"><defs><style>.cls-1{fill:#1b5e20;}.cls-2{fill:#fff;}.cls-3{fill:#263238;}.cls-4{fill:#fefefe;}.cls-5{fill:#455a64;}.cls-6{fill:#4caf50;}.cls-7{fill:#4cae50;}.cls-8{fill:#2e7d32;}</style></defs><title>ewaste drives</title><circle class="cls-1" cx="300" cy="300" r="300"/><circle class="cls-2" cx="299.5" cy="299.5" r="287.5"/><circle class="cls-1" cx="300" cy="300" r="275"/><path class="cls-3" d="M232.71,301.17c0,35.79-.53,71.59.27,107.36.3,13.49-1.74,20-17.66,19-24.51-1.53-49.21-1-73.78-.16-11.9.39-16.77-2-16.65-15.46q1-112.95,0-225.92c-.1-12.5,4.39-14.69,15.43-14.38,25.34.71,50.76,1.24,76-.16,14.93-.83,16.87,5,16.6,17.84C232.21,226.6,232.71,263.89,232.71,301.17Z"/><path class="cls-4" d="M152.09,298.85c0-28.33.45-56.66-.22-85-.26-11,1.87-15.33,14.35-15.53,39.63-.63,39.62-1.28,39.62,39.23,0,47.7-.61,95.41.35,143.09.3,14.92-2.53,22.69-19,19.69a25.22,25.22,0,0,0-8.92,0c-20.81,3.8-28.81-3.11-26.74-25.55C153.88,349.69,152.09,324.19,152.09,298.85Z"/><path class="cls-3" d="M192.41,374.12c-1.62,8.11-6.36,13.45-15,12.45-7.23-.84-12.13-5.93-11.62-13.59.59-8.6,6.16-13.53,14.73-12.62C187.84,361.14,191.94,366.29,192.41,374.12Z"/><rect class="cls-4" x="246" y="182" width="204" height="175"/><path class="cls-3" d="M362.23,171.87c32.84,0,65.69.37,98.52-.21,10.37-.19,14.17,2.33,14.07,13.48-.54,58.21-.68,116.43.07,174.64.17,13.28-5.75,13.94-16,13.81-34.33-.44-68.67,0-103-.28-9.85-.09-16.21,0-16.29,13.66-.09,14.13,7,13.69,16.52,13.38,8.2-.27,16.5.67,24.61-.23,11.34-1.26,13.39,3.62,13.6,14,.23,11.47-4.28,13.41-14.35,13.26q-52.61-.76-105.23,0c-10.72.16-15.9-1.53-15.66-14.27.23-11.75,4.95-13.65,14.7-12.92,8.16.61,16.47-.5,24.6.27,11.22,1.07,15.44-2.26,15.4-14.48s-5.56-13.06-14.94-12.67c-12.67.52-28.39.41-41,.6-16,.25-11.89-3.19-12-15-.1-12.58-5-13.3,15.05-12.45,57.95,2.45,112-.56,167.93.53,16.12.31,19.77-4.44,19.27-19.82-1.17-36.53-1.32-73.16.05-109.68.62-16.43-4.95-19.34-20-19.09-54.47.92-109,2.1-163.44.3-23.86-.79-19.05,3.86-19.11-12.89-.07-15.58-2.75-13.9,18.15-14C296.55,171.63,329.39,171.87,362.23,171.87Z"/><path class="cls-5" d="M371.68,294c-4.2,7.4-8.31,14.84-12.63,22.16-2.6,4.41-7.12,2.56-10.8,2.53-4.5-.05-8.41-.25-8.22,6.28-3-5.24-6-10.5-9.12-15.71a4.28,4.28,0,0,1,.11-4.85c3.12-5.21,6.14-10.48,9.85-16.12-.66,6,2,7.68,7,6.85,3.57-.59,7.38,1.11,10.78-1.12A11.27,11.27,0,0,1,371.68,294Z"/><path class="cls-5" d="M320.21,229.54c6.37-.07,12.77.33,19.07-.33,7.09-.74,11.69,1.39,14.3,8.24,1.38,3.63,3.45,7.4,10.31,2.43-4.18,7.28-7.2,12.31-10,17.46-1.16,2.17-2.84,2.35-4.9,2.33-5.7-.06-11.4,0-17.13,0-.69-3.26,5.63-2.64,3.46-5.81-2.65-3.89-2.81-9.76-8.5-11.37C325.39,237.77,321.63,234.26,320.21,229.54Z"/><path class="cls-5" d="M290.93,307.58c-4.31-7.37-8.49-14.83-13-22.09-3-4.88.94-7.83,2.75-11.26,3.27-6.19,3.44-6.11-2.07-10.57,6.72,0,12.78,0,18.84,0a4.28,4.28,0,0,1,4.23,2.41c3,5.32,6.09,10.58,9.23,16.73-4.93-3.68-7.58-2.13-9.41,2.64-1.31,3.43-4.26,6.09-5,9.86C295.83,299.91,293.65,303.87,290.93,307.58Z"/><path class="cls-3" d="M290.93,307.58c-.11-5,2.81-8.62,5.6-12.31,8.34,0,16.7.17,25,0,3.2-.07,4.27.91,3.94,4.11-.56,5.45-.89,10.94-1.19,16.42-.11,2.06-.63,3.27-3,3.21-5.92-.14-11.93.45-17.76-.34C297.27,317.83,292.84,313.89,290.93,307.58Z"/><path class="cls-3" d="M320.21,229.54c3.39,3.71,7.63,7,6.65,12.93-3.69,6.19-7.44,12.33-11,18.58-1.46,2.54-2.93,3.75-5.54,1.49-.49-.43-1.19-.6-1.68-1-4.54-3.83-14.58-4.36-13.72-10.5C296.88,236.91,307.78,229.06,320.21,229.54Z"/><path class="cls-3" d="M371.68,294l-13,0c-3.75-6.64-7.39-13.34-11.3-19.88-1.52-2.55-1.74-4.26,1.37-5.44.81-.3,1.47-1,2.28-1.25,5.56-1.64,10.72-10.79,15.8-5.85C378.91,273.33,379.46,283.52,371.68,294Z"/><path class="cls-6" d="M371.86,294.09c-4.2,7.39-8.32,14.84-12.64,22.16-2.6,4.41-7.11,2.56-10.79,2.53-4.5,0-8.41-.25-8.22,6.27-3-5.23-6-10.49-9.13-15.7a4.28,4.28,0,0,1,.12-4.85c3.11-5.21,6.13-10.48,9.84-16.13-.65,6,2,7.68,7,6.86,3.56-.59,7.37,1.11,10.78-1.12C363.17,291.31,367.51,291.36,371.86,294.09Z"/><path class="cls-7" d="M320.39,229.65c6.36-.07,12.77.33,19.07-.33,7.08-.74,11.69,1.39,14.29,8.24,1.39,3.63,3.45,7.4,10.32,2.43-4.18,7.28-7.2,12.3-10,17.46-1.16,2.17-2.84,2.35-4.9,2.33-5.7-.06-11.4,0-17.12,0-.69-3.26,5.62-2.64,3.46-5.81-2.66-3.89-2.82-9.76-8.51-11.37C325.57,237.88,321.8,234.37,320.39,229.65Z"/><path class="cls-7" d="M291.11,307.69c-4.32-7.37-8.49-14.83-13-22.1-3-4.88.94-7.82,2.75-11.25,3.27-6.2,3.44-6.11-2.08-10.57,6.72,0,12.79.05,18.85,0a4.3,4.3,0,0,1,4.23,2.42c3,5.32,6.09,10.58,9.23,16.73-4.93-3.68-7.59-2.13-9.41,2.63-1.31,3.43-4.27,6.1-5,9.87C296,300,293.83,304,291.11,307.69Z"/><path class="cls-8" d="M291.11,307.69c-.12-5,2.81-8.62,5.59-12.31,8.35,0,16.7.17,25.05,0,3.19-.06,4.27.92,3.94,4.11-.57,5.46-.89,10.95-1.19,16.43-.12,2.06-.64,3.27-3,3.21-5.93-.14-11.94.45-17.77-.34C297.45,317.94,293,314,291.11,307.69Z"/><path class="cls-8" d="M320.39,229.65c3.39,3.71,7.62,7,6.64,12.93-3.68,6.18-7.43,12.33-11,18.58-1.45,2.54-2.92,3.75-5.54,1.48-.48-.42-1.18-.59-1.67-1-4.54-3.83-14.59-4.36-13.73-10.5C297.06,237,308,229.17,320.39,229.65Z"/><path class="cls-8" d="M371.86,294.09l-13,0c-3.75-6.64-7.4-13.34-11.31-19.89-1.52-2.55-1.73-4.25,1.38-5.43.8-.3,1.47-1,2.28-1.25,5.56-1.64,10.71-10.79,15.8-5.86C379.09,273.43,379.64,283.63,371.86,294.09Z"/></svg>