<svg id="Layer_2" data-name="Layer 2" xmlns="http://www.w3.org/2000/svg" viewBox="0 0 600 600"><defs><style>.cls-1{fill:#1b5e20;}.cls-2{fill:#fff;}.cls-3{fill:#37474f;}.cls-4{fill:#263238;}.cls-5{fill:#fefefe;}.cls-6{fill:#f6ebeb;}.cls-7{fill:#4caf50;}.cls-8{fill:#4cae50;}.cls-9{fill:#2e7d32;}</style></defs><title>ewaste-dropoff</title><circle class="cls-1" cx="300" cy="300" r="300"/><circle class="cls-2" cx="300" cy="300" r="287.5"/><circle class="cls-1" cx="300" cy="300" r="275"/><polygon class="cls-3" points="399.51 385 200.49 385 152.94 233.45 447.06 233.45 399.51 385"/><path class="cls-4" d="M261.27,236.67c0-9.72,0-19.44.13-29.16.07-6.11,2.09-8.16,8.1-8.17q16.92,0,33.84.13c6,.06,8,2.11,8,8.23q0,29.42-.23,58.83c0,5.83-2.08,7.89-7.82,7.9q-17.18,0-34.36-.13c-5.74-.07-7.76-2.16-7.78-8C261.14,256.45,261.24,246.56,261.27,236.67Z"/><path class="cls-5" d="M305,237c0,9.2-.18,18.39,0,27.58,0,2.94-.79,3.79-3.74,3.73q-15.09-.33-30.18-.12c-2.95,0-3.74-.83-3.71-3.76q.3-27.57.22-55.15c0-2.93.79-3.79,3.74-3.73q15.07.33,30.18.12c2.95,0,3.78.82,3.71,3.76C305,218.58,305.06,227.77,305,237Z"/><path class="cls-4" d="M286.48,208.77c1.39,0,2.77.06,4.15,0,2.65-.11,1.91,1.83,2,3.23.07,1.56.29,3.21-2.2,3-2.07-.13-4.15-.09-6.23,0-2.31.06-4.23.37-4.19-3.25,0-3.86,2.34-2.94,4.42-3C285.1,208.74,285.79,208.76,286.48,208.77Z"/><path class="cls-4" d="M387.13,256.59q-12.47,15.92-24.95,31.83c-4.56,5.79-7.71,6.21-13.45,1.74q-20.64-16.08-41.2-32.28c-5.72-4.5-6.08-7.64-1.54-13.46q24.7-31.63,49.51-63.22c4.8-6.12,7.84-6.51,13.88-1.81q20.4,15.92,40.74,31.91c6,4.71,6.32,7.82,1.58,13.91Q399.46,240.93,387.13,256.59Z"/><path class="cls-5" d="M381.05,252.77c-7.82,10-15.73,19.9-23.4,30-2,2.68-3.37,2.81-6,.72q-19-15.22-38.38-30.06c-2.69-2.06-2.77-3.38-.7-6q24-30.3,47.65-60.85c2.06-2.66,3.37-2.82,6-.72q19,15.23,38.38,30.06c2.69,2.05,2.8,3.39.71,6C397.1,232.11,389.12,242.48,381.05,252.77Z"/><path class="cls-4" d="M378.72,250.14c-1.43,1.61-2.57,3.75-4.35,4.69s-2.88-1.52-4.32-2.42-.78-2,0-2.95c1.46-1.87,2.9-3.76,4.39-5.6s2.38-4.46,5.84-1.74,1.37,4.12-.18,6.08c-.49.62-1,1.24-1.46,1.87Z"/><path class="cls-4" d="M226.86,265.55c-9.25-4.75-18.52-9.47-27.75-14.25-6.69-3.45-8-7.35-4.66-13.93q7.67-15.06,15.43-30.07c3.26-6.3,7.27-7.58,13.63-4.33q28,14.31,56,28.71c6.39,3.29,7.73,7.27,4.54,13.57q-7.76,15.3-15.66,30.53c-3.12,6-7.23,7.29-13.28,4.23C245.66,275.24,236.27,270.37,226.86,265.55Z"/><path class="cls-5" d="M241.67,263.78c-5.09-2.61-10.14-5.31-15.29-7.79-2.24-1.08-3.17-2-1.75-4.59q7.37-13.76,14.25-27.76c1.17-2.36,2.25-2.36,4.35-1.26q15.66,8.2,31.48,16.13c2.35,1.17,2.36,2.25,1.26,4.35q-7.28,13.8-14.23,27.78c-1.17,2.35-2.27,2.38-4.35,1.25C252.21,269.07,246.92,266.47,241.67,263.78Z"/><path class="cls-5" d="M217,230a17.29,17.29,0,0,1,1.2-2.3c.86-1.19.79-3.74,3.53-2.28s.63,2.88.09,4.22a49.59,49.59,0,0,1-2.58,5.09c-.69,1.28-1,3.07-3.31,1.84s-.91-2.49-.34-3.79C216,231.82,216.48,230.92,217,230Z"/><path class="cls-5" d="M209.55,226.18c1.78-1,.75-6.39,4.72-4.29,3.58,1.9-1,4.12-1.16,6.37a5.77,5.77,0,0,1-1.15,2.31c-.81,1.3-.94,3.61-3.59,2.12-2.34-1.32-.65-2.56-.17-3.83A28,28,0,0,1,209.55,226.18Z"/><path class="cls-5" d="M227.27,219.24c-1.17,1.06-.83,3.94-3.6,2.52-3.45-1.77-.35-3.5.21-5,.46-1.25.6-3.9,3.35-2.5C230.73,216,227.08,217.61,227.27,219.24Z"/><path class="cls-5" d="M210.26,242.88c1.21-1.08.84-4.36,3.9-2.57,2.91,1.71.32,3.31-.32,4.66s-.67,4.37-3.71,2.62S210.3,244.45,210.26,242.88Z"/><path class="cls-5" d="M219.82,215.48c-1.13,1.14-.91,4-3.64,2.44-3.36-1.85-.19-3.51.32-5.06.43-1.27.68-3.87,3.39-2.39C223.3,212.33,219.58,213.86,219.82,215.48Z"/><path class="cls-5" d="M202.89,239c1.11-1.37,1.11-4.34,4-2.45s0,3.31-.53,4.74-.89,4.25-3.78,2.38S203.05,240.55,202.89,239Z"/><path class="cls-6" d="M228,235.63a1.91,1.91,0,0,1-2.54,1,1.86,1.86,0,0,1-1-2.89,1.84,1.84,0,0,1,2.62-.7A2,2,0,0,1,228,235.63Z"/><polygon class="cls-4" points="418.42 423.8 181.58 423.8 125 243.45 475 243.45 418.42 423.8"/><path class="cls-7" d="M344.84,350.6c-4.2,7.39-8.32,14.84-12.63,22.16-2.6,4.41-7.12,2.56-10.8,2.53-4.5-.05-8.41-.25-8.22,6.27-3-5.23-6-10.49-9.12-15.7a4.28,4.28,0,0,1,.11-4.85c3.12-5.21,6.14-10.48,9.85-16.13-.66,6,2,7.68,7,6.86,3.57-.6,7.38,1.11,10.78-1.12C336.16,347.82,340.5,347.87,344.84,350.6Z"/><path class="cls-8" d="M293.37,286.16c6.36-.07,12.77.33,19.07-.33,7.08-.74,11.69,1.39,14.3,8.23,1.38,3.64,3.45,7.41,10.31,2.44-4.18,7.28-7.2,12.3-10,17.46-1.16,2.17-2.84,2.35-4.9,2.33-5.7-.06-11.4,0-17.13,0-.69-3.26,5.63-2.64,3.46-5.81-2.65-3.89-2.81-9.76-8.51-11.37C298.55,294.39,294.79,290.88,293.37,286.16Z"/><path class="cls-8" d="M264.09,364.2c-4.31-7.38-8.49-14.84-13-22.1-3-4.88.94-7.82,2.75-11.25,3.27-6.2,3.44-6.11-2.07-10.57,6.72,0,12.78.05,18.84,0a4.3,4.3,0,0,1,4.23,2.42c3,5.32,6.09,10.57,9.23,16.73-4.93-3.68-7.58-2.13-9.41,2.63-1.31,3.43-4.26,6.1-5,9.87C269,356.52,266.81,360.49,264.09,364.2Z"/><path class="cls-9" d="M264.09,364.2c-.11-5,2.81-8.62,5.6-12.31,8.34,0,16.7.17,25,0,3.19-.06,4.27.92,3.94,4.11-.56,5.46-.89,10.95-1.19,16.43-.11,2.06-.63,3.27-3,3.21-5.92-.14-11.93.44-17.76-.34C270.43,374.45,266,370.51,264.09,364.2Z"/><path class="cls-9" d="M293.37,286.16c3.39,3.71,7.63,7,6.64,12.93-3.68,6.18-7.43,12.33-11,18.58-1.46,2.54-2.93,3.75-5.54,1.48-.49-.42-1.19-.59-1.68-1-4.54-3.83-14.59-4.37-13.73-10.5C270,293.52,280.94,285.68,293.37,286.16Z"/><path class="cls-9" d="M344.84,350.6l-13,0c-3.75-6.64-7.4-13.34-11.3-19.89-1.52-2.55-1.74-4.25,1.37-5.43.81-.3,1.47-1,2.28-1.25,5.56-1.64,10.72-10.79,15.8-5.86C352.07,329.94,352.62,340.14,344.84,350.6Z"/></svg>