<svg id="Layer_2" data-name="Layer 2" xmlns="http://www.w3.org/2000/svg" viewBox="0 0 600 600"><defs><style>.cls-1{fill:#1b5e20;}.cls-2{fill:#fff;}.cls-3{fill:#263238;}.cls-4{fill:#4caf50;}.cls-5{fill:#4cae50;}.cls-6{fill:#2e7d32;}</style></defs><title>ewaste pickups</title><circle class="cls-1" cx="300" cy="300" r="300"/><circle class="cls-2" cx="300.5" cy="300.5" r="287.5"/><circle class="cls-1" cx="300" cy="300" r="275"/><path class="cls-3" d="M125,180.68c5.68-4.9,12-6.93,19.76-6.88,53.69.3,107.4.46,161.09,0,14.95-.14,21.14,5,21,20.5q-.79,87.26,0,174.52c.14,15.46-6.09,21.6-21,20.32-5-.43-10.07-.1-15.1-.06-16.63.1-30.12,1.83-40.3-19.82-14.93-31.8-62.58-28.06-79.62,3.18-10.62,19.47-26.43,22.89-45.78,9.91Z"/><path class="cls-3" d="M475,382.31c-17.05,11.48-22.17,9.89-31.4-8.4-8.87-17.58-23.47-26.34-43.3-26-20.68.37-34.31,10.9-43.16,29.1-1.88,3.85.23,12.12-7.14,10.84-6.48-1.12-9.41-7.12-9.4-14.06q.06-65.38,0-130.77c0-12.07,7.27-16.67,20.78-14.93a177.92,177.92,0,0,0,48.24-.1c11.68-1.68,18.53,4.47,24.13,12.23,13.88,19.26,27.52,38.69,41.25,58.06Z"/><path class="cls-2" d="M451.63,308.38c-21.6,0-41.62-.29-61.62.15-7.27.16-10.09-2-9.42-9.4.55-6.07-.76-12.39.32-18.32,1.56-8.66-5.89-20.12,4.07-25.65,12-6.64,32.87,1.28,41.72,13.61,7.78,10.83,15.37,21.81,22.92,32.8C450.47,302.8,450.54,304.57,451.63,308.38Z"/><path class="cls-3" d="M431.38,395c.34,17.31-12.64,30.89-29.82,31.21-17.39.32-30.86-12.54-31.22-29.79s12.53-30.87,29.8-31.18S431.05,377.81,431.38,395Z"/><circle class="cls-2" cx="400.5" cy="396.5" r="15.5"/><path class="cls-3" d="M243.19,395.63c0,17.34-13.1,30.56-30.43,30.61s-30.54-13.05-30.61-30.39,13-30.54,30.4-30.58S243.16,378.32,243.19,395.63Z"/><circle class="cls-2" cx="212.5" cy="396.5" r="15.5"/><path class="cls-4" d="M269.86,270c-4.2,7.4-8.32,14.84-12.64,22.16-2.6,4.41-7.11,2.56-10.79,2.53-4.5-.05-8.41-.25-8.22,6.28-3-5.24-6-10.5-9.13-15.71a4.28,4.28,0,0,1,.12-4.85c3.11-5.21,6.13-10.48,9.84-16.12-.65,6,2.05,7.68,7,6.85,3.56-.59,7.37,1.11,10.78-1.11C261.17,267.22,265.51,267.26,269.86,270Z"/><path class="cls-5" d="M218.39,205.55c6.36-.07,12.77.33,19.07-.33,7.08-.74,11.69,1.4,14.29,8.24,1.39,3.63,3.45,7.41,10.32,2.43-4.18,7.28-7.2,12.31-10,17.46-1.16,2.17-2.84,2.35-4.9,2.33-5.7-.06-11.4,0-17.12,0-.69-3.26,5.62-2.64,3.46-5.81-2.66-3.89-2.82-9.76-8.51-11.37C223.57,213.79,219.8,210.27,218.39,205.55Z"/><path class="cls-5" d="M189.11,283.59c-4.32-7.37-8.49-14.83-13-22.09-3-4.88.94-7.83,2.75-11.26,3.27-6.19,3.44-6.11-2.08-10.57,6.72,0,12.79.05,18.85,0a4.28,4.28,0,0,1,4.23,2.41c3,5.32,6.09,10.58,9.23,16.73-4.93-3.68-7.59-2.13-9.41,2.64-1.31,3.43-4.27,6.09-5,9.86C194,275.92,191.83,279.88,189.11,283.59Z"/><path class="cls-6" d="M189.11,283.59c-.12-5,2.81-8.62,5.59-12.31,8.35,0,16.7.17,25.05,0,3.19-.07,4.27.91,3.94,4.11-.57,5.46-.89,10.94-1.19,16.42-.12,2.06-.64,3.27-3,3.21-5.93-.14-11.94.45-17.77-.34C195.45,293.84,191,289.9,189.11,283.59Z"/><path class="cls-6" d="M218.39,205.55c3.39,3.71,7.62,7,6.64,12.93-3.68,6.19-7.43,12.33-11,18.58-1.45,2.54-2.92,3.76-5.54,1.49-.48-.43-1.18-.6-1.67-1-4.54-3.83-14.59-4.36-13.73-10.5C195.06,212.92,206,205.07,218.39,205.55Z"/><path class="cls-6" d="M269.86,270l-13,0c-3.75-6.63-7.4-13.34-11.31-19.88-1.52-2.55-1.73-4.26,1.38-5.43.8-.31,1.47-1,2.28-1.26,5.56-1.64,10.71-10.79,15.8-5.85C277.09,249.34,277.64,259.53,269.86,270Z"/></svg>