<?xml version="1.0" encoding="utf-8"?>
<!-- Generator: Adobe Illustrator 22.1.0, SVG Export Plug-In . SVG Version: 6.00 Build 0)  -->
<svg version="1.1" id="Layer_1" xmlns="http://www.w3.org/2000/svg" xmlns:xlink="http://www.w3.org/1999/xlink" x="0px" y="0px"
	 viewBox="0 0 50 50" style="enable-background:new 0 0 50 50;" xml:space="preserve">
<style type="text/css">
	.st0{fill:#7B1315;}
</style>
<path class="st0" d="M31.3,30.5c-1.3,1.8-3.2,2.9-5.3,2.9c-3.9,0-7-3.7-7-8.3s3.2-8.3,7-8.3c1.8,0,3.5,0.8,4.7,2.2l1.4-0.7
	C30.5,16.2,28.4,15,26,15c-4.7,0-8.5,4.5-8.5,10s3.8,10,8.5,10c2.6,0,5-1.4,6.5-3.7L31.3,30.5z"/>
<path class="st0" d="M25,1C11.7,1,1,11.8,1,25s10.7,24,24,24c13.2,0,24-10.8,24-24S38.3,1,25,1z M25,45C14,45,5,36,5,25S14,5,25,5
	c11,0,20,9,20,20S36,45,25,45z"/>
</svg>
