<svg id="Layer_1" data-name="Layer 1" xmlns="http://www.w3.org/2000/svg" viewBox="0 0 192 192">
  <defs>
    <style>
      .cls-1 {
        fill: #7d0000;
      }
    </style>
  </defs>
  <title>red-192</title>
  <g>
    <path class="cls-1" d="M9.66,169.79c12.93-5.85,7.55-25,25.49-27.13C47.87,159.39,46.66,173.22,24,182.44Q5.37,186.22,9.66,169.79Z"/>
    <path class="cls-1" d="M153.33,81.82C133,98,121.64,124.31,88.76,126.35c-5.36-3.19-6.91-7.66-5.65-13.07,5.09-25,30.11-35.46,47.94-51.16C147.92,60.39,155.43,66.88,153.33,81.82Z"/>
    <path class="cls-1" d="M153.33,75.5c-4.78-8.89-12.23-15.43-22.28-19.7,1.55-11-14-22,.12-33,15.36,4.26,55.1,39.3,59.62,52.55C178.36,87.42,165.81,74.54,153.33,75.5Z"/>
    <path class="cls-1" d="M83.11,107c6.55,2.8,3.49,8.81,5.65,13.08.06,8.58-.89,16.91-7.62,23.8C57.2,123.66,57.72,114.11,83.11,107Z"/>
    <path class="cls-1" d="M53.8,124.52c11.81,4.27,6.37,16,11.82,23.48,4.46,6.1-6.65,14.59-9.82,12.71-8.82-5.22-11.5-15.2-11.91-24.84C43.64,130.15,46.21,125.92,53.8,124.52Z"/>
  </g>
  <g>
    <path class="cls-1" d="M73.63,86.14c-11.94,3.63-18.37,11.49-30.28-7.59C32.09,60.51,14.89,42.82,1.79,24q-.34-33,34-19.26C57.6,22,63.48,48.3,82.72,67.08,93.87,78,76.53,79.69,73.63,86.14Z"/>
    <path class="cls-1" d="M137.48,190.61c-11-12-19.74-24.48-12-40.66a107.41,107.41,0,0,1,29,31Q154.82,197.71,137.48,190.61Z"/>
  </g>
</svg>
