<svg id="Layer_1" data-name="Layer 1" xmlns="http://www.w3.org/2000/svg" viewBox="0 0 200 200"><defs><style>.cls-1{fill:#363;}.cls-2{fill:#fff;}.cls-3{fill:#ad612a;}</style></defs><title>greeninnov-class-logo</title><polygon class="cls-1" points="167.17 136 167.17 140 165.17 140 165.17 142 149.17 142 149.17 140 147.17 140 147.17 136 167.17 136"/><rect class="cls-1" x="144.67" y="142.5" width="25" height="2"/><rect class="cls-1" x="25" y="54.5" width="150" height="80"/><rect class="cls-2" x="25" y="54.5" width="150" height="80"/><rect x="144.67" y="142.5" width="25" height="2"/><rect class="cls-3" x="147.17" y="136" width="20" height="4"/><rect class="cls-2" x="149.17" y="140" width="16" height="2"/><path class="cls-1" d="M180,135V48H20v87H10.5v13H190V135Zm-10.33,9.5h-25v-2h25Zm-22.5-4.5v-4h20v4h-2v2h-16v-2ZM175,134.5H25v-80H175Z"/><path d="M98,109l-7.74-3a110.61,110.61,0,0,0-9.75-18.3c-4.48-7.25-4.25-14,2.76-19.52s15.17-5.65,22.23-.09c3.09,2.44,4.88,5.12,5.52,8,1,4.25-.83,7.85-2.65,11.54C105.6,93.21,101,99,98,109Zm15-30.38c-8-5-12.79-10.06-18.47-11C86.11,66.3,79.42,72,81.4,79.16c1.68,6,8.39,11,12.87,16.41C99.53,90.82,104.78,86.06,113,78.62Z"/><path d="M90.07,107.56l7.71,3.63.19-.7-7,.7c-.33,0-.56.52-.19.69l6.35,3,.19-.7c-1,0-4.92-.68-5.45.56s3.23,3.67,3.92,4.28c.36.32.9-.21.53-.53L94.61,117a11.88,11.88,0,0,1-1.74-1.54c-.1-.77,3.76-.47,4.48-.48.35,0,.54-.53.19-.7l-6.35-3-.19.7,7-.7c.33,0,.56-.53.19-.7l-7.71-3.63c-.44-.2-.82.44-.38.65Z"/><path d="M101.07,77l1.78.7L97.67,90.49l-2.1-.21a56.64,56.64,0,0,1-1.79-6.15c-.54-3-.61-6-5.13-5.64-.82.06-2.89-3.1-2.61-3.5,1.37-1.92,3.66-5,5-4.72,4.08.8,9.46.81,10.16,6.93-2.5-2-4.25-4.69-8.09-5.25-4.33-.63-5.6-.17-5.72,5.26,9.79-2.06,5.58,7.78,9.81,12Z"/></svg>