<?xml version="1.0" encoding="utf-8"?>
<!-- Generator: Adobe Illustrator 22.1.0, SVG Export Plug-In . SVG Version: 6.00 Build 0)  -->
<svg version="1.1" id="Layer_1" xmlns="http://www.w3.org/2000/svg" xmlns:xlink="http://www.w3.org/1999/xlink" x="0px" y="0px"
	 viewBox="0 0 200 110" style="enable-background:new 0 0 200 110;" xml:space="preserve">
<style type="text/css">
	.st0{fill:#FFFFFF;}
	.st1{fill:#AD612A;}
	.st2{fill:#0B2E49;}
</style>
<title>innov-class-logo</title>
<rect x="25" y="12" class="st0" width="150" height="80"/>
<rect x="147" y="93.6" class="st1" width="20" height="3.4"/>
<path class="st2" d="M180,92V5H20v87H10v13h180V92H180z M169,102h-25v-2h25V102z M147,97v-3.4h20V97h-1v2.8h-18V97H147z M175,92H25
	V12h150V92z"/>
<path d="M90.1,62.6l7.7,3.6l0.2-0.7l-7,0.7c-0.3,0-0.6,0.5-0.2,0.7l6.3,3l0.2-0.7c-1,0-4.9-0.7-5.4,0.6s3.2,3.7,3.9,4.3
	c0.4,0.3,0.9-0.2,0.5-0.5L94.6,72c-0.6-0.5-1.2-1-1.7-1.5c-0.1-0.8,3.8-0.5,4.5-0.5c0.3,0,0.5-0.5,0.2-0.7l-6.3-3L91,67l7-0.7
	c0.3,0,0.6-0.5,0.2-0.7L90.5,62C90,61.8,89.7,62.4,90.1,62.6L90.1,62.6z"/>
<g>
	<path d="M102.7,77.5l-7.7-3c-2.7-6.4-5.9-12.5-9.8-18.3C80.8,49,81,42.2,88,36.7s15.2-5.6,22.2-0.1c3.1,2.4,4.9,5.1,5.5,8
		c1,4.3-0.8,7.8-2.7,11.5C110.3,61.7,105.7,67.5,102.7,77.5z M117.7,47.1c-8-5-12.8-10.1-18.5-11c-8.4-1.3-15.1,4.4-13.1,11.5
		c1.7,6,8.4,11,12.9,16.4C104.3,59.3,109.5,54.6,117.7,47.1z"/>
	<path d="M105.8,45.5l1.8,0.7L102.4,59l-2.1-0.2c-0.7-2-1.3-4.1-1.8-6.2c-0.5-3-0.6-6-5.1-5.6c-0.8,0.1-2.9-3.1-2.6-3.5
		c1.4-1.9,3.7-5,5-4.7c4.1,0.8,9.5,0.8,10.2,6.9c-2.5-2-4.3-4.7-8.1-5.3c-4.3-0.6-5.6-0.2-5.7,5.3c9.8-2.1,5.6,7.8,9.8,12
		L105.8,45.5z"/>
</g>
<rect x="148" y="97" width="18" height="2.8"/>
</svg>
