<svg id="Layer_1" data-name="Layer 1" xmlns="http://www.w3.org/2000/svg" viewBox="0 0 1366 768"><defs><style>.cls-1{fill:#0b2e49;}.cls-2{fill:#fff;}.cls-3{fill:#7d0000;}.cls-4{fill:#fc4615;}.cls-5{fill:#8a0000;}.cls-6{fill:#8c0404;}.cls-7{fill:#941616;}.cls-8{fill:#8b0101;}.cls-9{fill:#931010;}.cls-10{fill:#8b0000;}.cls-11{fill:#8d0505;}.cls-12{fill:#8c0303;}.cls-13{fill:#8b0202;}.cls-14{fill:#900c0c;}.cls-15{fill:#951717;}.cls-16{fill:#981e1e;}.cls-17{fill:#910e0e;}.cls-18{fill:#019b00;}.cls-19{fill:#7abbc9;}</style></defs><title>recycle-poster</title><rect class="cls-1" width="1366" height="768" transform="translate(1366 768) rotate(180)"/><path class="cls-2" d="M244.86,44.21H232V33.41h38.7v10.8h-12.9V82.16h-12.9Z"/><path class="cls-2" d="M276.81,30h12.9V42.11l-.6,6.45c2.55-2.25,6.15-4.8,11.25-4.8,8.24,0,11.7,6,11.7,15.3v23.1h-12.9V60.71c0-4.8-1.2-6-3.75-6s-3.75,1-5.7,2.85v24.6h-12.9Z"/><path class="cls-2" d="M319.71,33.56c0-3.75,3-6.45,7.19-6.45s7.2,2.7,7.2,6.45-3,6.45-7.2,6.45S319.71,37.31,319.71,33.56Zm.75,11.1h12.89v37.5H320.46Z"/><path class="cls-2" d="M339.06,77.81l5.69-8c3.45,2.55,6.53,3.75,9.15,3.75s3.75-.75,3.75-2.25c0-2-3.45-2.85-7.2-4.35-4.35-1.72-9.45-5-9.45-11.1,0-7.35,6-12.15,14.85-12.15a22.23,22.23,0,0,1,13.8,5L364,56.36c-2.7-2-5.32-3.15-7.65-3.15-2.17,0-3.3.6-3.3,2.1,0,1.95,3.3,2.7,7.05,4,4.5,1.65,9.6,4.5,9.6,11.25,0,7-5.55,12.45-16,12.45A25,25,0,0,1,339.06,77.81Z"/><path class="cls-2" d="M390.2,33.56c0-3.75,3-6.45,7.2-6.45s7.2,2.7,7.2,6.45-3,6.45-7.2,6.45S390.2,37.31,390.2,33.56Zm.75,11.1h12.9v37.5H391Z"/><path class="cls-2" d="M409.55,77.81l5.7-8c3.45,2.55,6.53,3.75,9.15,3.75s3.75-.75,3.75-2.25c0-2-3.45-2.85-7.2-4.35-4.35-1.72-9.45-5-9.45-11.1,0-7.35,6-12.15,14.85-12.15a22.23,22.23,0,0,1,13.8,5l-5.7,7.65c-2.7-2-5.32-3.15-7.65-3.15-2.17,0-3.3.6-3.3,2.1,0,1.95,3.3,2.7,7.05,4,4.5,1.65,9.6,4.5,9.6,11.25,0,7-5.55,12.45-16,12.45A25,25,0,0,1,409.55,77.81Z"/><path class="cls-2" d="M460,71.51c0-7.8,6-12.15,20.4-13.65-.3-2.7-2-3.9-5.25-3.9-2.7,0-5.55,1-9.45,3.15l-4.5-8.4a31.6,31.6,0,0,1,16.5-5c9.75,0,15.6,5.25,15.6,17.55V82.16h-10.5l-.9-3.6h-.3c-3,2.7-6.3,4.5-10.35,4.5C464.15,83.06,460,77.66,460,71.51Zm20.4-.9v-5.1c-6.15.9-8.1,2.85-8.1,4.95,0,1.73,1.2,2.7,3.45,2.7S479,72.11,480.35,70.61Z"/><path class="cls-2" d="M501.65,44.66h10.5l.9,4.5h.3c3-2.85,6.75-5.4,11.85-5.4,8.25,0,11.7,6,11.7,15.3v23.1H524V60.71c0-4.8-1.2-6-3.75-6s-3.75,1-5.7,2.85v24.6h-12.9Z"/><path class="cls-2" d="M558.35,63.41c0-12.45,9-19.65,18.6-19.65s18.6,7.2,18.6,19.65-9,19.65-18.6,19.65S558.35,75.86,558.35,63.41Zm24,0c0-5.7-1.5-9.3-5.4-9.3s-5.4,3.6-5.4,9.3,1.5,9.3,5.4,9.3S582.35,69.11,582.35,63.41Z"/><path class="cls-2" d="M602.3,44.66h10.5l.9,3.45h.3a15.55,15.55,0,0,1,10.2-4.35c8.85,0,14.55,7.5,14.55,19.05,0,12.9-7.65,20.25-15.6,20.25a11.76,11.76,0,0,1-8.4-3.75l.45,5.7V95.36H602.3ZM625.55,63c0-6.15-1.8-8.7-5.25-8.7-1.95,0-3.45.75-5.1,2.7v13.8a6.89,6.89,0,0,0,4.8,1.8C623,72.56,625.55,70.16,625.55,63Z"/><path class="cls-2" d="M645.8,44.66h10.5l.9,3.45h.3a15.52,15.52,0,0,1,10.2-4.35c8.85,0,14.55,7.5,14.55,19.05,0,12.9-7.65,20.25-15.6,20.25a11.76,11.76,0,0,1-8.4-3.75l.45,5.7V95.36H645.8ZM669.05,63c0-6.15-1.8-8.7-5.25-8.7-1.95,0-3.45.75-5.1,2.7v13.8a6.89,6.89,0,0,0,4.8,1.8C666.5,72.56,669.05,70.16,669.05,63Z"/><path class="cls-2" d="M687.35,63.41c0-12.45,9-19.65,18.6-19.65s18.6,7.2,18.6,19.65-9,19.65-18.6,19.65S687.35,75.86,687.35,63.41Zm24,0c0-5.7-1.5-9.3-5.4-9.3s-5.4,3.6-5.4,9.3,1.5,9.3,5.4,9.3S711.35,69.11,711.35,63.41Z"/><path class="cls-2" d="M731.3,44.66h10.5l.9,6.45h.3c2.77-5.1,7-7.35,10.65-7.35a11.16,11.16,0,0,1,4.65.75l-2.1,11.1A17.71,17.71,0,0,0,752,55c-2.7,0-6,1.65-7.8,6.3V82.16H731.3Z"/><path class="cls-2" d="M764.3,67.76V54.71h-4.95v-9.6l5.7-.45,1.5-9.75H777.2v9.75h8.55V54.71H777.2V67.54c0,4.12,2.1,5.47,4.5,5.47a10.78,10.78,0,0,0,3.3-.6l2,9.3a28.35,28.35,0,0,1-8.85,1.35C768.35,83.06,764.3,76.91,764.3,67.76Z"/><path class="cls-2" d="M792.35,67.76V44.66h12.9V66.11c0,4.8,1.2,6,3.75,6s3.75-.9,5.4-3.3V44.66h12.9v37.5H816.8l-.9-5h-.3c-3,3.6-6.45,5.85-11.55,5.85C795.8,83.06,792.35,77.06,792.35,67.76Z"/><path class="cls-2" d="M836,44.66h10.5l.9,4.5h.3c3-2.85,6.75-5.4,11.85-5.4,8.25,0,11.7,6,11.7,15.3v23.1h-12.9V60.71c0-4.8-1.2-6-3.75-6s-3.75,1-5.7,2.85v24.6H836Z"/><path class="cls-2" d="M878.9,33.56c0-3.75,3-6.45,7.2-6.45s7.2,2.7,7.2,6.45-3,6.45-7.2,6.45S878.9,37.31,878.9,33.56Zm.75,11.1h12.9v37.5h-12.9Z"/><path class="cls-2" d="M902.9,67.76V54.71H898v-9.6l5.7-.45,1.5-9.75H915.8v9.75h8.55V54.71H915.8V67.54c0,4.12,2.1,5.47,4.5,5.47a10.78,10.78,0,0,0,3.3-.6l1.94,9.3a28.22,28.22,0,0,1-8.84,1.35C907,83.06,902.9,76.91,902.9,67.76Z"/><path class="cls-2" d="M931.1,95.51l2.25-9.75a12.28,12.28,0,0,0,2.4.45c3.45,0,5.1-1.5,5.85-3.75l.45-1.65L927.8,44.66h12.9l4.5,14.4c1,3.45,1.8,6.9,2.7,10.65h.3c.75-3.6,1.5-7,2.4-10.65l3.75-14.4h12.29L954,81.56c-3.89,10.13-7.94,14.7-17.24,14.7A19.43,19.43,0,0,1,931.1,95.51Z"/><path class="cls-2" d="M986.9,69V30h12.89V69.41c0,2.55,1.21,3.3,2.11,3.3a4.66,4.66,0,0,0,1.35-.15l1.5,9.45a16,16,0,0,1-6.3,1C989.75,83.06,986.9,77.36,986.9,69Z"/><path class="cls-2" d="M1007.29,63.41c0-12.45,9-19.65,18.6-19.65s18.6,7.2,18.6,19.65-9,19.65-18.6,19.65S1007.29,75.86,1007.29,63.41Zm24,0c0-5.7-1.5-9.3-5.4-9.3s-5.4,3.6-5.4,9.3,1.5,9.3,5.4,9.3S1031.29,69.11,1031.29,63.41Z"/><path class="cls-2" d="M1047.79,77.81l5.7-8c3.45,2.55,6.53,3.75,9.15,3.75s3.75-.75,3.75-2.25c0-2-3.45-2.85-7.2-4.35-4.35-1.72-9.45-5-9.45-11.1,0-7.35,6-12.15,14.85-12.15a22.23,22.23,0,0,1,13.8,5l-5.7,7.65c-2.7-2-5.32-3.15-7.65-3.15-2.17,0-3.3.6-3.3,2.1,0,1.95,3.3,2.7,7,4,4.5,1.65,9.6,4.5,9.6,11.25,0,7-5.55,12.45-16.05,12.45A25,25,0,0,1,1047.79,77.81Z"/><path class="cls-2" d="M1084.85,67.76V54.71h-4.95v-9.6l5.7-.45,1.5-9.75h10.65v9.75h8.54V54.71h-8.54V67.54c0,4.12,2.09,5.47,4.5,5.47a10.78,10.78,0,0,0,3.29-.6l2,9.3a28.3,28.3,0,0,1-8.85,1.35C1088.9,83.06,1084.85,76.91,1084.85,67.76Z"/><path class="cls-2" d="M1114.84,75.26a7.51,7.51,0,1,1,7.5,7.8A7.5,7.5,0,0,1,1114.84,75.26Zm1.5-32.25-.45-11.1h12.9l-.45,11.1-1.8,20.85h-8.4Z"/><rect class="cls-3" x="83" y="113" width="1200" height="20"/><rect class="cls-2" x="83" y="133" width="1200" height="200"/><path class="cls-1" d="M155.24,157.61h7.28l6.93,22.75h-6.37l-2.59-11.06c-.56-2.17-1.12-4.94-1.68-7.21h-.14c-.49,2.31-1,5-1.61,7.21l-2.59,11.06h-6.16Zm-2,13.26h11.13v4.66H153.28Z"/><path class="cls-1" d="M178.13,174.2V156h6v18.41c0,1.19.56,1.54,1,1.54a2.16,2.16,0,0,0,.63-.07l.7,4.41a7.45,7.45,0,0,1-2.94.49C179.46,180.78,178.13,178.12,178.13,174.2Z"/><path class="cls-1" d="M187.86,175.39c0-3.64,2.8-5.67,9.52-6.37-.14-1.26-.91-1.82-2.45-1.82a9.54,9.54,0,0,0-4.41,1.47l-2.1-3.92a14.75,14.75,0,0,1,7.7-2.31c4.55,0,7.28,2.45,7.28,8.19v9.73h-4.9l-.42-1.68h-.14a7.1,7.1,0,0,1-4.83,2.1A5.14,5.14,0,0,1,187.86,175.39Zm9.52-.42v-2.38c-2.87.42-3.78,1.33-3.78,2.31,0,.8.56,1.26,1.61,1.26A2.76,2.76,0,0,0,197.38,175Z"/><path class="cls-1" d="M207.32,162.86h4.9l.42,3h.14a5.88,5.88,0,0,1,5-3.43,5.19,5.19,0,0,1,2.17.35l-1,5.18a8.26,8.26,0,0,0-2-.28c-1.26,0-2.8.77-3.64,2.94v9.73h-6Z"/><path class="cls-1" d="M220.62,183.23c0-1.43.84-2.52,2.45-3.36v-.14a3.45,3.45,0,0,1-1.61-3,4.28,4.28,0,0,1,2-3.29v-.14a5.43,5.43,0,0,1-2.38-4.48c0-4.34,3.64-6.37,7.49-6.37a9,9,0,0,1,2.8.42h6.51v4.34h-2.52a6.21,6.21,0,0,1,.28,1.82c0,4.13-3.15,5.81-7.07,5.81a8.53,8.53,0,0,1-2-.25,1.12,1.12,0,0,0-.42,1c0,.77.7,1.05,2.45,1.05h2.63c4.37,0,6.89,1.33,6.89,4.55,0,3.78-3.92,6.37-10.15,6.37C224,187.57,220.62,186.38,220.62,183.23Zm11.76-1c0-.91-.84-1.05-2.34-1.05h-1.37a9.26,9.26,0,0,1-2.52-.21,1.7,1.7,0,0,0-.63,1.26c0,1.12,1.4,1.61,3.43,1.61S232.38,183.23,232.38,182.25Zm-2-13.44c0-1.61-.77-2.38-1.89-2.38s-1.89.77-1.89,2.38.77,2.45,1.89,2.45S230.42,170.49,230.42,168.81Z"/><path class="cls-1" d="M239.1,171.61c0-5.67,4.13-9.17,8.4-9.17,5.18,0,7.63,3.78,7.63,8.47a13,13,0,0,1-.24,2.52h-10c.56,2.1,2.1,2.8,4.06,2.8a7.18,7.18,0,0,0,3.57-1l2,3.57a11.79,11.79,0,0,1-6.37,2C243,180.78,239.1,177.42,239.1,171.61Zm10.92-2.1a2.21,2.21,0,0,0-2.38-2.52,2.77,2.77,0,0,0-2.8,2.52Z"/><path class="cls-1" d="M265.42,162.86h4.9l.42,2.1h.14a7.91,7.91,0,0,1,5.53-2.52c3.85,0,5.46,2.8,5.46,7.14v10.78h-6v-10c0-2.24-.56-2.8-1.75-2.8a3.64,3.64,0,0,0-2.66,1.33v11.48h-6Z"/><path class="cls-1" d="M285.65,173.64V162.86h6v10c0,2.24.56,2.8,1.75,2.8a2.76,2.76,0,0,0,2.52-1.54V162.86h6v17.5h-4.9l-.42-2.31h-.14a6.63,6.63,0,0,1-5.39,2.73C287.26,180.78,285.65,178,285.65,173.64Z"/><path class="cls-1" d="M306,162.86h4.9l.42,2.13h.14c1.4-1.36,2.87-2.55,5.25-2.55a5,5,0,0,1,4.83,2.8c1.44-1.47,3-2.8,5.39-2.8,3.85,0,5.53,2.8,5.53,7.14v10.78h-6v-10c0-2.24-.56-2.8-1.75-2.8a3.74,3.74,0,0,0-2.45,1.33v11.48h-6v-10c0-2.24-.56-2.8-1.75-2.8a3.74,3.74,0,0,0-2.45,1.33v11.48h-6Z"/><path class="cls-1" d="M341.72,178.47h-.14l-.49,1.89H336.4V156h6v5.67l-.14,2.52a6.46,6.46,0,0,1,4.31-1.75c4.13,0,6.82,3.5,6.82,8.85,0,6.06-3.57,9.49-7.28,9.49A5.89,5.89,0,0,1,341.72,178.47Zm5.53-7.07c0-2.87-.84-4.06-2.45-4.06a2.92,2.92,0,0,0-2.38,1.26V175a3.21,3.21,0,0,0,2.24.84C346.06,175.88,347.25,174.76,347.25,171.4Z"/><path class="cls-1" d="M355.79,171.61c0-5.67,4.13-9.17,8.4-9.17,5.18,0,7.63,3.78,7.63,8.47a13,13,0,0,1-.24,2.52h-10c.56,2.1,2.1,2.8,4.06,2.8a7.18,7.18,0,0,0,3.57-1l2,3.57a11.79,11.79,0,0,1-6.37,2C359.71,180.78,355.79,177.42,355.79,171.61Zm10.92-2.1a2.21,2.21,0,0,0-2.38-2.52,2.77,2.77,0,0,0-2.8,2.52Z"/><path class="cls-1" d="M375.11,162.86H380l.42,3h.14a5.88,5.88,0,0,1,5-3.43,5.19,5.19,0,0,1,2.17.35l-1,5.18a8.26,8.26,0,0,0-2-.28c-1.26,0-2.8.77-3.64,2.94v9.73h-6Z"/><path class="cls-1" d="M395.83,171.61c0-5.81,4.2-9.17,8.68-9.17s8.68,3.36,8.68,9.17-4.2,9.17-8.68,9.17S395.83,177.42,395.83,171.61Zm11.2,0c0-2.66-.7-4.34-2.52-4.34S402,169,402,171.61s.7,4.34,2.52,4.34S407,174.27,407,171.61Z"/><path class="cls-1" d="M414.87,163.07l2.66-.21h8.61v4.69H414.87Zm2.31-.42c0-3.75,1.75-7.07,6.93-7.07a11.14,11.14,0,0,1,3.71.63l-1.05,4.41a5.19,5.19,0,0,0-1.75-.35c-1.12,0-1.82.52-1.82,2.17v17.92h-6Z"/><path class="cls-1" d="M434.54,162.86h5.95l1.33,7.35c.28,1.75.42,3.5.7,5.32h.14c.28-1.82.56-3.64,1-5.32l1.61-7.35h5.11l1.68,7.35c.42,1.75.7,3.5,1,5.32h.14c.28-1.82.42-3.57.7-5.32l1.33-7.35h5.53l-4,17.5h-7l-1.26-6.09c-.28-1.61-.56-3.22-.84-5.15h-.14c-.28,1.93-.49,3.54-.77,5.15l-1.19,6.09h-6.86Z"/><path class="cls-1" d="M463.66,156h6v5.67l-.28,3a7.79,7.79,0,0,1,5.25-2.24c3.85,0,5.46,2.8,5.46,7.14v10.78h-6v-10c0-2.24-.56-2.8-1.75-2.8a3.64,3.64,0,0,0-2.66,1.33v11.48h-6Z"/><path class="cls-1" d="M483.33,175.39c0-3.64,2.8-5.67,9.52-6.37-.14-1.26-.91-1.82-2.45-1.82a9.54,9.54,0,0,0-4.41,1.47l-2.1-3.92a14.75,14.75,0,0,1,7.7-2.31c4.55,0,7.28,2.45,7.28,8.19v9.73H494l-.42-1.68h-.14a7.1,7.1,0,0,1-4.83,2.1A5.14,5.14,0,0,1,483.33,175.39Zm9.52-.42v-2.38c-2.87.42-3.78,1.33-3.78,2.31,0,.8.56,1.26,1.61,1.26A2.76,2.76,0,0,0,492.85,175Z"/><path class="cls-1" d="M502.86,173.64v-6.09h-2.31v-4.48l2.66-.21.7-4.55h5v4.55h4v4.69h-4v6c0,1.93,1,2.56,2.1,2.56a5,5,0,0,0,1.54-.28l.91,4.34a13.24,13.24,0,0,1-4.13.63C504.75,180.78,502.86,177.91,502.86,173.64Z"/><path class="cls-1" d="M522.74,157.68a3.38,3.38,0,1,1,3.36,3A3.08,3.08,0,0,1,522.74,157.68Zm.35,5.18h6v17.5h-6Z"/><path class="cls-1" d="M531.77,178.33l2.66-3.71a7.48,7.48,0,0,0,4.27,1.75c1.26,0,1.75-.35,1.75-1.05,0-.91-1.61-1.33-3.36-2-2-.81-4.41-2.31-4.41-5.18,0-3.43,2.8-5.67,6.93-5.67a10.33,10.33,0,0,1,6.44,2.31l-2.66,3.57a6.51,6.51,0,0,0-3.57-1.47c-1,0-1.54.28-1.54,1,0,.91,1.54,1.26,3.29,1.89,2.1.77,4.48,2.1,4.48,5.25s-2.59,5.81-7.49,5.81A11.67,11.67,0,0,1,531.77,178.33Z"/><path class="cls-1" d="M556,174.2V156h6v18.41c0,1.19.56,1.54,1,1.54a2.16,2.16,0,0,0,.63-.07l.7,4.41a7.45,7.45,0,0,1-2.94.49C557.32,180.78,556,178.12,556,174.2Z"/><path class="cls-1" d="M565.72,175.39c0-3.64,2.8-5.67,9.52-6.37-.14-1.26-.91-1.82-2.45-1.82a9.54,9.54,0,0,0-4.41,1.47l-2.1-3.92a14.75,14.75,0,0,1,7.7-2.31c4.55,0,7.28,2.45,7.28,8.19v9.73h-4.9l-.42-1.68h-.14a7.1,7.1,0,0,1-4.83,2.1A5.14,5.14,0,0,1,565.72,175.39Zm9.52-.42v-2.38c-2.87.42-3.78,1.33-3.78,2.31,0,.8.56,1.26,1.61,1.26A2.76,2.76,0,0,0,575.24,175Z"/><path class="cls-1" d="M590.5,178.47h-.14l-.49,1.89h-4.69V156h6v5.67l-.14,2.52a6.42,6.42,0,0,1,4.3-1.75c4.13,0,6.83,3.5,6.83,8.85,0,6.06-3.57,9.49-7.28,9.49A5.89,5.89,0,0,1,590.5,178.47ZM596,171.4c0-2.87-.84-4.06-2.45-4.06a2.92,2.92,0,0,0-2.38,1.26V175a3.21,3.21,0,0,0,2.24.84C594.84,175.88,596,174.76,596,171.4Z"/><path class="cls-1" d="M604.57,171.61c0-5.67,4.13-9.17,8.4-9.17,5.18,0,7.63,3.78,7.63,8.47a12.07,12.07,0,0,1-.25,2.52h-10c.56,2.1,2.1,2.8,4.06,2.8a7.18,7.18,0,0,0,3.57-1l2,3.57a11.79,11.79,0,0,1-6.37,2C608.49,180.78,604.57,177.42,604.57,171.61Zm10.92-2.1a2.21,2.21,0,0,0-2.38-2.52,2.77,2.77,0,0,0-2.8,2.52Z"/><path class="cls-1" d="M623.89,174.2V156h6v18.41c0,1.19.56,1.54,1,1.54a2.16,2.16,0,0,0,.63-.07l.7,4.41a7.45,7.45,0,0,1-2.94.49C625.22,180.78,623.89,178.12,623.89,174.2Z"/><path class="cls-1" d="M633.41,171.61c0-5.67,4.13-9.17,8.4-9.17,5.18,0,7.63,3.78,7.63,8.47a12.07,12.07,0,0,1-.25,2.52h-10c.56,2.1,2.1,2.8,4.06,2.8a7.18,7.18,0,0,0,3.57-1l2,3.57a11.79,11.79,0,0,1-6.37,2C637.33,180.78,633.41,177.42,633.41,171.61Zm10.92-2.1A2.21,2.21,0,0,0,642,167a2.77,2.77,0,0,0-2.8,2.52Z"/><path class="cls-1" d="M652,171.61c0-5.74,3.57-9.17,7.15-9.17a5.25,5.25,0,0,1,4.06,1.75l-.21-2.52V156h6v24.36h-4.9l-.42-1.61h-.14a6.63,6.63,0,0,1-4.41,2C654.75,180.78,652,177.28,652,171.61Zm11,3v-6.44a3.55,3.55,0,0,0-2.38-.84c-1.26,0-2.45,1.12-2.45,4.2s1,4.34,2.59,4.34A2.4,2.4,0,0,0,663,174.62Z"/><path class="cls-1" d="M679.32,175.39c0-3.64,2.8-5.67,9.52-6.37-.14-1.26-.91-1.82-2.45-1.82a9.54,9.54,0,0,0-4.41,1.47l-2.1-3.92a14.75,14.75,0,0,1,7.7-2.31c4.56,0,7.29,2.45,7.29,8.19v9.73H690l-.42-1.68h-.14a7.1,7.1,0,0,1-4.83,2.1A5.14,5.14,0,0,1,679.32,175.39Zm9.52-.42v-2.38c-2.87.42-3.78,1.33-3.78,2.31,0,.8.56,1.26,1.61,1.26A2.76,2.76,0,0,0,688.84,175Z"/><path class="cls-1" d="M697.38,178.33l2.66-3.71a7.5,7.5,0,0,0,4.27,1.75c1.26,0,1.75-.35,1.75-1.05,0-.91-1.61-1.33-3.36-2-2-.81-4.41-2.31-4.41-5.18,0-3.43,2.8-5.67,6.93-5.67a10.36,10.36,0,0,1,6.45,2.31L709,168.32a6.48,6.48,0,0,0-3.57-1.47c-1,0-1.54.28-1.54,1,0,.91,1.54,1.26,3.29,1.89,2.1.77,4.49,2.1,4.49,5.25s-2.6,5.81-7.5,5.81A11.67,11.67,0,0,1,697.38,178.33Z"/><path class="cls-1" d="M721.46,164.61c0-3.5,1.75-6.23,5.46-8l1.26,2.59c-2.24,1-3.36,2.38-3.36,4.48l0,3.29-1.79-2.56a3.69,3.69,0,0,1,2.1-.8,2.83,2.83,0,0,1,3,2.87,3,3,0,0,1-3,3.22C722.72,169.72,721.46,167.83,721.46,164.61Zm9.1,0c0-3.5,1.75-6.23,5.46-8l1.27,2.59c-2.25,1-3.37,2.38-3.37,4.48l0,3.29-1.79-2.56a3.69,3.69,0,0,1,2.1-.8,2.83,2.83,0,0,1,3,2.87,3,3,0,0,1-3,3.22C731.82,169.72,730.56,167.83,730.56,164.61Z"/><path class="cls-4" d="M740.29,171.61c0-5.67,4.13-9.17,8.4-9.17,5.19,0,7.64,3.78,7.64,8.47a12.07,12.07,0,0,1-.25,2.52h-10c.56,2.1,2.1,2.8,4.07,2.8a7.24,7.24,0,0,0,3.57-1l2,3.57a11.82,11.82,0,0,1-6.38,2C744.21,180.78,740.29,177.42,740.29,171.61Zm10.92-2.1a2.21,2.21,0,0,0-2.38-2.52,2.77,2.77,0,0,0-2.8,2.52Z"/><path class="cls-4" d="M759.47,169.37h8.82v4.2h-8.82Z"/><path class="cls-4" d="M770.67,162.86h6l1.33,7.35c.28,1.75.42,3.5.7,5.32h.14c.28-1.82.56-3.64,1-5.32l1.61-7.35h5.11l1.68,7.35c.42,1.75.71,3.5,1.05,5.32h.15c.27-1.82.42-3.57.69-5.32l1.33-7.35h5.54l-4,17.5h-7l-1.26-6.09c-.28-1.61-.56-3.22-.84-5.15h-.14c-.28,1.93-.49,3.54-.77,5.15l-1.19,6.09h-6.86Z"/><path class="cls-4" d="M798.74,175.39c0-3.64,2.8-5.67,9.52-6.37-.14-1.26-.91-1.82-2.45-1.82a9.54,9.54,0,0,0-4.41,1.47l-2.1-3.92a14.75,14.75,0,0,1,7.7-2.31c4.55,0,7.28,2.45,7.28,8.19v9.73h-4.9l-.42-1.68h-.14a7.1,7.1,0,0,1-4.83,2.1A5.14,5.14,0,0,1,798.74,175.39Zm9.52-.42v-2.38c-2.87.42-3.78,1.33-3.78,2.31,0,.8.56,1.26,1.61,1.26A2.76,2.76,0,0,0,808.26,175Z"/><path class="cls-4" d="M816.8,178.33l2.66-3.71a7.5,7.5,0,0,0,4.27,1.75c1.26,0,1.75-.35,1.75-1.05,0-.91-1.61-1.33-3.36-2-2-.81-4.41-2.31-4.41-5.18,0-3.43,2.8-5.67,6.93-5.67a10.33,10.33,0,0,1,6.44,2.31l-2.66,3.57a6.48,6.48,0,0,0-3.57-1.47c-1,0-1.54.28-1.54,1,0,.91,1.54,1.26,3.29,1.89,2.1.77,4.48,2.1,4.48,5.25s-2.59,5.81-7.49,5.81A11.67,11.67,0,0,1,816.8,178.33Z"/><path class="cls-4" d="M834.09,173.64v-6.09h-2.31v-4.48l2.66-.21.7-4.55h5v4.55h4v4.69h-4v6c0,1.93,1,2.56,2.1,2.56a5,5,0,0,0,1.54-.28l.91,4.34a13.19,13.19,0,0,1-4.13.63C836,180.78,834.09,177.91,834.09,173.64Z"/><path class="cls-4" d="M845.71,171.61c0-5.67,4.13-9.17,8.4-9.17,5.18,0,7.63,3.78,7.63,8.47a13,13,0,0,1-.24,2.52h-10c.56,2.1,2.1,2.8,4.06,2.8a7.18,7.18,0,0,0,3.57-1l2,3.57a11.79,11.79,0,0,1-6.37,2C849.63,180.78,845.71,177.42,845.71,171.61Zm10.92-2.1a2.21,2.21,0,0,0-2.38-2.52,2.77,2.77,0,0,0-2.8,2.52Z"/><path class="cls-1" d="M865.24,166.5c2.24-1,3.36-2.38,3.36-4.48l0-3.29,1.78,2.55a3.7,3.7,0,0,1-2.1.81,2.83,2.83,0,0,1-3-2.87,3,3,0,0,1,3-3.22c2.45,0,3.71,1.89,3.71,5.11,0,3.5-1.75,6.23-5.46,8Zm9.1,0c2.24-1,3.36-2.38,3.36-4.48l0-3.29,1.78,2.55a3.7,3.7,0,0,1-2.1.81,2.83,2.83,0,0,1-3-2.87,3,3,0,0,1,3-3.22c2.45,0,3.71,1.89,3.71,5.11,0,3.5-1.75,6.23-5.46,8Z"/><path class="cls-1" d="M891.63,157.68a3.38,3.38,0,1,1,3.36,3A3.08,3.08,0,0,1,891.63,157.68Zm.35,5.18h6v17.5h-6Z"/><path class="cls-1" d="M900.66,178.33l2.66-3.71a7.5,7.5,0,0,0,4.27,1.75c1.26,0,1.75-.35,1.75-1.05,0-.91-1.61-1.33-3.36-2-2-.81-4.41-2.31-4.41-5.18,0-3.43,2.8-5.67,6.93-5.67a10.33,10.33,0,0,1,6.44,2.31l-2.66,3.57a6.48,6.48,0,0,0-3.57-1.47c-1,0-1.54.28-1.54,1,0,.91,1.54,1.26,3.29,1.89,2.1.77,4.48,2.1,4.48,5.25s-2.59,5.81-7.49,5.81A11.67,11.67,0,0,1,900.66,178.33Z"/><path class="cls-1" d="M924.18,175.39c0-3.64,2.8-5.67,9.52-6.37-.14-1.26-.91-1.82-2.45-1.82a9.54,9.54,0,0,0-4.41,1.47l-2.1-3.92a14.75,14.75,0,0,1,7.7-2.31c4.55,0,7.28,2.45,7.28,8.19v9.73h-4.9l-.42-1.68h-.14a7.1,7.1,0,0,1-4.83,2.1A5.14,5.14,0,0,1,924.18,175.39Zm9.52-.42v-2.38c-2.87.42-3.78,1.33-3.78,2.31,0,.8.56,1.26,1.61,1.26A2.76,2.76,0,0,0,933.7,175Z"/><path class="cls-1" d="M942.73,171.61c0-5.81,4.41-9.17,9.38-9.17a7.7,7.7,0,0,1,5.11,1.82l-2.8,3.85a2.94,2.94,0,0,0-2-.84c-2.24,0-3.57,1.68-3.57,4.34s1.47,4.34,3.36,4.34a4.88,4.88,0,0,0,2.8-1.12l2.31,3.92a8.8,8.8,0,0,1-5.81,2C946.58,180.78,942.73,177.42,942.73,171.61Z"/><path class="cls-1" d="M960.58,173.64v-6.09h-2.31v-4.48l2.66-.21.7-4.55h5v4.55h4v4.69h-4v6c0,1.93,1,2.56,2.1,2.56a5,5,0,0,0,1.54-.28l.91,4.34a13.19,13.19,0,0,1-4.13.63C962.47,180.78,960.58,177.91,960.58,173.64Z"/><path class="cls-1" d="M973.67,173.64V162.86h6v10c0,2.24.56,2.8,1.75,2.8a2.76,2.76,0,0,0,2.52-1.54V162.86h6v17.5h-4.9l-.42-2.31h-.14a6.63,6.63,0,0,1-5.39,2.73C975.28,180.78,973.67,178,973.67,173.64Z"/><path class="cls-1" d="M993.34,175.39c0-3.64,2.8-5.67,9.52-6.37-.14-1.26-.91-1.82-2.45-1.82a9.54,9.54,0,0,0-4.41,1.47l-2.1-3.92a14.75,14.75,0,0,1,7.7-2.31c4.55,0,7.28,2.45,7.28,8.19v9.73H1004l-.42-1.68h-.14a7.1,7.1,0,0,1-4.83,2.1A5.14,5.14,0,0,1,993.34,175.39Zm9.52-.42v-2.38c-2.87.42-3.78,1.33-3.78,2.31,0,.8.56,1.26,1.61,1.26A2.76,2.76,0,0,0,1002.86,175Z"/><path class="cls-1" d="M1012.8,174.2V156h6v18.41c0,1.19.56,1.54,1,1.54a2.16,2.16,0,0,0,.63-.07l.7,4.41a7.45,7.45,0,0,1-2.94.49C1014.13,180.78,1012.8,178.12,1012.8,174.2Z"/><path class="cls-1" d="M1023.23,174.2V156h6v18.41c0,1.19.56,1.54,1,1.54a2.16,2.16,0,0,0,.63-.07l.7,4.41a7.45,7.45,0,0,1-2.94.49C1024.56,180.78,1023.23,178.12,1023.23,174.2Z"/><path class="cls-1" d="M1033.59,186.59l1.05-4.55a5.69,5.69,0,0,0,1.12.21,2.51,2.51,0,0,0,2.73-1.75l.21-.77-6.65-16.87h6l2.1,6.72c.49,1.61.84,3.22,1.26,5h.14c.35-1.68.7-3.29,1.12-5l1.75-6.72h5.74l-5.88,17.22c-1.82,4.73-3.71,6.86-8,6.86A9.07,9.07,0,0,1,1033.59,186.59Z"/><path class="cls-1" d="M1059.63,162.86h4.9l.42,2.1h.14a7.91,7.91,0,0,1,5.53-2.52c3.85,0,5.46,2.8,5.46,7.14v10.78h-6v-10c0-2.24-.56-2.8-1.75-2.8a3.64,3.64,0,0,0-2.66,1.33v11.48h-6Z"/><path class="cls-1" d="M1079.09,171.61c0-5.81,4.2-9.17,8.68-9.17s8.68,3.36,8.68,9.17-4.2,9.17-8.68,9.17S1079.09,177.42,1079.09,171.61Zm11.2,0c0-2.66-.7-4.34-2.52-4.34s-2.52,1.68-2.52,4.34.7,4.34,2.52,4.34S1090.29,174.27,1090.29,171.61Z"/><path class="cls-1" d="M1099.32,173.64v-6.09H1097v-4.48l2.66-.21.7-4.55h5v4.55h4v4.69h-4v6c0,1.93,1,2.56,2.1,2.56a5,5,0,0,0,1.54-.28l.91,4.34a13.24,13.24,0,0,1-4.13.63C1101.21,180.78,1099.32,177.91,1099.32,173.64Z"/><path class="cls-1" d="M1118.36,162.86h6l1.33,7.35c.28,1.75.42,3.5.7,5.32h.14c.28-1.82.56-3.64,1-5.32l1.61-7.35h5.11l1.68,7.35c.42,1.75.7,3.5,1.05,5.32h.14c.28-1.82.42-3.57.7-5.32l1.33-7.35h5.53l-4,17.5h-7l-1.26-6.09c-.28-1.61-.56-3.22-.84-5.15h-.14c-.28,1.93-.49,3.54-.77,5.15l-1.19,6.09h-6.86Z"/><path class="cls-1" d="M1146.43,175.39c0-3.64,2.8-5.67,9.52-6.37-.14-1.26-.91-1.82-2.45-1.82a9.54,9.54,0,0,0-4.41,1.47l-2.1-3.92a14.75,14.75,0,0,1,7.7-2.31c4.55,0,7.28,2.45,7.28,8.19v9.73h-4.9l-.42-1.68h-.14a7.1,7.1,0,0,1-4.83,2.1A5.14,5.14,0,0,1,1146.43,175.39ZM1156,175v-2.38c-2.87.42-3.78,1.33-3.78,2.31,0,.8.56,1.26,1.61,1.26A2.76,2.76,0,0,0,1156,175Z"/><path class="cls-1" d="M1164.49,178.33l2.66-3.71a7.48,7.48,0,0,0,4.27,1.75c1.26,0,1.75-.35,1.75-1.05,0-.91-1.61-1.33-3.36-2-2-.81-4.41-2.31-4.41-5.18,0-3.43,2.8-5.67,6.93-5.67a10.33,10.33,0,0,1,6.44,2.31l-2.66,3.57a6.51,6.51,0,0,0-3.57-1.47c-1,0-1.54.28-1.54,1,0,.91,1.54,1.26,3.29,1.89,2.1.77,4.48,2.1,4.48,5.25s-2.59,5.81-7.49,5.81A11.67,11.67,0,0,1,1164.49,178.33Z"/><path class="cls-1" d="M1181.78,173.64v-6.09h-2.31v-4.48l2.66-.21.7-4.55h5v4.55h4v4.69h-4v6c0,1.93,1,2.56,2.1,2.56a5,5,0,0,0,1.54-.28l.91,4.34a13.24,13.24,0,0,1-4.13.63C1183.67,180.78,1181.78,177.91,1181.78,173.64Z"/><path class="cls-1" d="M1193.4,171.61c0-5.67,4.13-9.17,8.4-9.17,5.18,0,7.63,3.78,7.63,8.47a12.07,12.07,0,0,1-.25,2.52h-10c.56,2.1,2.1,2.8,4.06,2.8a7.18,7.18,0,0,0,3.57-1l2,3.57a11.79,11.79,0,0,1-6.37,2C1197.32,180.78,1193.4,177.42,1193.4,171.61Zm10.92-2.1a2.21,2.21,0,0,0-2.38-2.52,2.77,2.77,0,0,0-2.8,2.52Z"/><path class="cls-1" d="M309.24,220.47h-.14l-.49,1.89h-4.69V198h6v5.67l-.14,2.52a6.46,6.46,0,0,1,4.31-1.75c4.13,0,6.82,3.5,6.82,8.85,0,6.06-3.57,9.49-7.28,9.49A5.89,5.89,0,0,1,309.24,220.47Zm5.53-7.07c0-2.87-.84-4.06-2.45-4.06a2.92,2.92,0,0,0-2.38,1.26V217a3.21,3.21,0,0,0,2.24.84C313.58,217.88,314.77,216.76,314.77,213.4Z"/><path class="cls-1" d="M324.08,215.64V204.86h6v10c0,2.24.56,2.8,1.75,2.8a2.76,2.76,0,0,0,2.52-1.54V204.86h6v17.5h-4.9l-.42-2.31h-.14a6.63,6.63,0,0,1-5.39,2.73C325.69,222.78,324.08,220,324.08,215.64Z"/><path class="cls-1" d="M345.22,215.64v-6.09h-2.31v-4.48l2.66-.21.7-4.55h5v4.55h4v4.69h-4v6c0,1.93,1,2.56,2.1,2.56a5,5,0,0,0,1.54-.28l.91,4.34a13.19,13.19,0,0,1-4.13.63C347.11,222.78,345.22,219.91,345.22,215.64Z"/><path class="cls-1" d="M365.45,204.86h4.9l.42,3h.14a5.88,5.88,0,0,1,5-3.43,5.19,5.19,0,0,1,2.17.35l-1,5.18a8.26,8.26,0,0,0-2-.28c-1.26,0-2.8.77-3.64,2.94v9.73h-6Z"/><path class="cls-1" d="M378.33,217.39c0-3.64,2.8-5.67,9.52-6.37-.14-1.26-.91-1.82-2.45-1.82a9.54,9.54,0,0,0-4.41,1.47l-2.1-3.92a14.75,14.75,0,0,1,7.7-2.31c4.55,0,7.28,2.45,7.28,8.19v9.73H389l-.42-1.68h-.14a7.1,7.1,0,0,1-4.83,2.1A5.14,5.14,0,0,1,378.33,217.39Zm9.52-.42v-2.38c-2.87.42-3.78,1.33-3.78,2.31,0,.8.56,1.26,1.61,1.26A2.76,2.76,0,0,0,387.85,217Z"/><path class="cls-1" d="M397.86,215.64v-6.09h-2.31v-4.48l2.66-.21.7-4.55h5v4.55h4v4.69h-4v6c0,1.93,1,2.56,2.1,2.56a5,5,0,0,0,1.54-.28l.91,4.34a13.19,13.19,0,0,1-4.13.63C399.75,222.78,397.86,219.91,397.86,215.64Z"/><path class="cls-1" d="M411.09,198h6v5.67l-.28,3a7.79,7.79,0,0,1,5.25-2.24c3.85,0,5.46,2.8,5.46,7.14v10.78h-6v-10c0-2.24-.56-2.8-1.75-2.8a3.64,3.64,0,0,0-2.66,1.33v11.48h-6Z"/><path class="cls-1" d="M430.55,213.61c0-5.67,4.13-9.17,8.4-9.17,5.18,0,7.63,3.78,7.63,8.47a13,13,0,0,1-.24,2.52h-10c.56,2.1,2.1,2.8,4.06,2.8a7.18,7.18,0,0,0,3.57-1l2,3.57a11.79,11.79,0,0,1-6.37,2C434.47,222.78,430.55,219.42,430.55,213.61Zm10.92-2.1a2.21,2.21,0,0,0-2.38-2.52,2.77,2.77,0,0,0-2.8,2.52Z"/><path class="cls-1" d="M449.87,204.86h4.9l.42,3h.14a5.86,5.86,0,0,1,5-3.43,5.22,5.22,0,0,1,2.17.35l-1,5.18a8.26,8.26,0,0,0-2-.28c-1.26,0-2.8.77-3.64,2.94v9.73h-6Z"/><path class="cls-1" d="M470.31,204.86h5.95l1.33,7.35c.28,1.75.42,3.5.7,5.32h.14c.28-1.82.56-3.64,1-5.32l1.61-7.35h5.11l1.68,7.35c.42,1.75.7,3.5,1.05,5.32H489c.28-1.82.42-3.57.7-5.32l1.33-7.35h5.53l-4,17.5h-7l-1.26-6.09c-.28-1.61-.56-3.22-.84-5.15h-.14c-.28,1.93-.49,3.54-.77,5.15l-1.19,6.09h-6.86Z"/><path class="cls-1" d="M499.43,198h6v5.67l-.28,3a7.79,7.79,0,0,1,5.25-2.24c3.85,0,5.46,2.8,5.46,7.14v10.78h-6v-10c0-2.24-.56-2.8-1.75-2.8a3.64,3.64,0,0,0-2.66,1.33v11.48h-6Z"/><path class="cls-1" d="M518.89,213.61c0-5.81,4.2-9.17,8.68-9.17s8.68,3.36,8.68,9.17-4.2,9.17-8.68,9.17S518.89,219.42,518.89,213.61Zm11.2,0c0-2.66-.7-4.34-2.52-4.34s-2.52,1.68-2.52,4.34.7,4.34,2.52,4.34S530.09,216.27,530.09,213.61Z"/><path class="cls-1" d="M539.05,216.2V198h6v18.41c0,1.19.56,1.54,1,1.54a2.16,2.16,0,0,0,.63-.07l.7,4.41a7.45,7.45,0,0,1-2.94.49C540.38,222.78,539.05,220.12,539.05,216.2Z"/><path class="cls-1" d="M548.57,213.61c0-5.67,4.13-9.17,8.4-9.17,5.18,0,7.63,3.78,7.63,8.47a12.07,12.07,0,0,1-.25,2.52h-10c.56,2.1,2.1,2.8,4.06,2.8a7.18,7.18,0,0,0,3.57-1l2,3.57a11.79,11.79,0,0,1-6.37,2C552.49,222.78,548.57,219.42,548.57,213.61Zm10.92-2.1a2.21,2.21,0,0,0-2.38-2.52,2.77,2.77,0,0,0-2.8,2.52Z"/><path class="cls-1" d="M574,213.61c0-5.67,4.13-9.17,8.4-9.17,5.18,0,7.63,3.78,7.63,8.47a12.07,12.07,0,0,1-.25,2.52h-10c.56,2.1,2.1,2.8,4.06,2.8a7.18,7.18,0,0,0,3.57-1l2,3.57a11.79,11.79,0,0,1-6.37,2C577.9,222.78,574,219.42,574,213.61Zm10.92-2.1a2.21,2.21,0,0,0-2.38-2.52,2.77,2.77,0,0,0-2.8,2.52Z"/><path class="cls-1" d="M593.3,216.2V198h6v18.41c0,1.19.56,1.54,1,1.54a2.16,2.16,0,0,0,.63-.07l.7,4.41a7.45,7.45,0,0,1-2.94.49C594.63,222.78,593.3,220.12,593.3,216.2Z"/><path class="cls-1" d="M602.82,213.61c0-5.67,4.13-9.17,8.4-9.17,5.18,0,7.63,3.78,7.63,8.47a12.07,12.07,0,0,1-.25,2.52h-10c.56,2.1,2.1,2.8,4.06,2.8a7.18,7.18,0,0,0,3.57-1l2,3.57a11.79,11.79,0,0,1-6.37,2C606.74,222.78,602.82,219.42,602.82,213.61Zm10.92-2.1a2.21,2.21,0,0,0-2.38-2.52,2.77,2.77,0,0,0-2.8,2.52Z"/><path class="cls-1" d="M621.23,213.61c0-5.81,4.41-9.17,9.38-9.17a7.7,7.7,0,0,1,5.11,1.82l-2.8,3.85a2.94,2.94,0,0,0-2-.84c-2.24,0-3.57,1.68-3.57,4.34s1.47,4.34,3.36,4.34a4.88,4.88,0,0,0,2.8-1.12l2.31,3.92a8.8,8.8,0,0,1-5.81,2C625.08,222.78,621.23,219.42,621.23,213.61Z"/><path class="cls-1" d="M639.08,215.64v-6.09h-2.31v-4.48l2.66-.21.7-4.55h5v4.55h4v4.69h-4v6c0,1.93,1,2.56,2.1,2.56a5,5,0,0,0,1.54-.28l.91,4.34a13.24,13.24,0,0,1-4.13.63C641,222.78,639.08,219.91,639.08,215.64Z"/><path class="cls-1" d="M652.3,204.86h4.91l.42,3h.14a5.86,5.86,0,0,1,5-3.43,5.22,5.22,0,0,1,2.17.35l-1,5.18a8.26,8.26,0,0,0-2-.28c-1.26,0-2.8.77-3.64,2.94v9.73h-6Z"/><path class="cls-1" d="M665.67,213.61c0-5.81,4.21-9.17,8.69-9.17s8.68,3.36,8.68,9.17-4.2,9.17-8.68,9.17S665.67,219.42,665.67,213.61Zm11.21,0c0-2.66-.7-4.34-2.52-4.34s-2.52,1.68-2.52,4.34.7,4.34,2.52,4.34S676.88,216.27,676.88,213.61Z"/><path class="cls-1" d="M686.19,204.86h4.9l.42,2.1h.14a7.91,7.91,0,0,1,5.53-2.52c3.85,0,5.46,2.8,5.46,7.14v10.78h-6v-10c0-2.24-.56-2.8-1.75-2.8a3.64,3.64,0,0,0-2.66,1.33v11.48h-6Z"/><path class="cls-1" d="M706.2,199.68a3.38,3.38,0,1,1,3.36,3A3.08,3.08,0,0,1,706.2,199.68Zm.35,5.18h6v17.5h-6Z"/><path class="cls-1" d="M715.72,213.61c0-5.81,4.41-9.17,9.38-9.17a7.71,7.71,0,0,1,5.12,1.82l-2.8,3.85a3,3,0,0,0-2-.84c-2.25,0-3.58,1.68-3.58,4.34s1.47,4.34,3.37,4.34a4.88,4.88,0,0,0,2.8-1.12l2.31,3.92a8.81,8.81,0,0,1-5.82,2C719.57,222.78,715.72,219.42,715.72,213.61Z"/><path class="cls-1" d="M739.45,217.39c0-3.64,2.8-5.67,9.52-6.37-.14-1.26-.91-1.82-2.45-1.82a9.54,9.54,0,0,0-4.41,1.47l-2.1-3.92a14.75,14.75,0,0,1,7.7-2.31c4.55,0,7.29,2.45,7.29,8.19v9.73h-4.91l-.42-1.68h-.14a7.1,7.1,0,0,1-4.83,2.1A5.14,5.14,0,0,1,739.45,217.39ZM749,217v-2.38c-2.87.42-3.78,1.33-3.78,2.31,0,.8.56,1.26,1.61,1.26A2.76,2.76,0,0,0,749,217Z"/><path class="cls-1" d="M769.13,223.52l.21-2.49a6.11,6.11,0,0,1-4.06,1.75c-4.34,0-7.14-3.5-7.14-9.17s3.57-9.17,7.14-9.17a5.53,5.53,0,0,1,4.55,2.17H770l.49-1.75h4.7v23.66h-6Zm0-6.9v-6.44a3.55,3.55,0,0,0-2.38-.84c-1.26,0-2.45,1.12-2.45,4.2s1,4.34,2.59,4.34A2.4,2.4,0,0,0,769.13,216.62Z"/><path class="cls-1" d="M779.07,215.64V204.86h6v10c0,2.24.56,2.8,1.75,2.8a2.76,2.76,0,0,0,2.52-1.54V204.86h6v17.5h-4.9l-.42-2.31h-.14a6.63,6.63,0,0,1-5.39,2.73C780.68,222.78,779.07,220,779.07,215.64Z"/><path class="cls-1" d="M799.09,199.68a3.38,3.38,0,1,1,3.36,3A3.08,3.08,0,0,1,799.09,199.68Zm.35,5.18h6v17.5h-6Z"/><path class="cls-1" d="M809.52,204.86h4.9l.42,1.61H815a7.26,7.26,0,0,1,4.76-2c4.13,0,6.79,3.5,6.79,8.89,0,6-3.57,9.45-7.28,9.45a5.49,5.49,0,0,1-3.92-1.75l.21,2.66v4.83h-6Zm10.85,8.54c0-2.87-.84-4.06-2.45-4.06a2.92,2.92,0,0,0-2.38,1.26V217a3.21,3.21,0,0,0,2.24.84C819.18,217.88,820.37,216.76,820.37,213.4Z"/><path class="cls-1" d="M829.82,204.86h4.9l.42,2.13h.14c1.4-1.36,2.87-2.55,5.25-2.55a5,5,0,0,1,4.83,2.8c1.44-1.47,3-2.8,5.39-2.8,3.85,0,5.54,2.8,5.54,7.14v10.78h-6v-10c0-2.24-.56-2.8-1.75-2.8a3.74,3.74,0,0,0-2.45,1.33v11.48h-6v-10c0-2.24-.56-2.8-1.75-2.8a3.74,3.74,0,0,0-2.45,1.33v11.48h-6Z"/><path class="cls-1" d="M859.29,213.61c0-5.67,4.13-9.17,8.4-9.17,5.18,0,7.63,3.78,7.63,8.47a13,13,0,0,1-.24,2.52h-10c.56,2.1,2.1,2.8,4.06,2.8a7.18,7.18,0,0,0,3.57-1l2,3.57a11.79,11.79,0,0,1-6.37,2C863.21,222.78,859.29,219.42,859.29,213.61Zm10.92-2.1a2.21,2.21,0,0,0-2.38-2.52,2.77,2.77,0,0,0-2.8,2.52Z"/><path class="cls-1" d="M878.61,204.86h4.9l.42,2.1h.14a7.91,7.91,0,0,1,5.53-2.52c3.85,0,5.46,2.8,5.46,7.14v10.78h-6v-10c0-2.24-.56-2.8-1.75-2.8a3.64,3.64,0,0,0-2.66,1.33v11.48h-6Z"/><path class="cls-1" d="M899.75,215.64v-6.09h-2.31v-4.48l2.66-.21.7-4.55h5v4.55h4v4.69h-4v6c0,1.93,1,2.56,2.1,2.56a5,5,0,0,0,1.54-.28l.91,4.34a13.19,13.19,0,0,1-4.13.63C901.64,222.78,899.75,219.91,899.75,215.64Z"/><path class="cls-1" d="M911.23,220.33l2.66-3.71a7.5,7.5,0,0,0,4.27,1.75c1.26,0,1.75-.35,1.75-1.05,0-.91-1.61-1.33-3.36-2-2-.81-4.41-2.31-4.41-5.18,0-3.43,2.8-5.67,6.93-5.67a10.33,10.33,0,0,1,6.44,2.31l-2.66,3.57a6.48,6.48,0,0,0-3.57-1.47c-1,0-1.54.28-1.54,1,0,.91,1.54,1.26,3.29,1.89,2.1.77,4.48,2.1,4.48,5.25s-2.59,5.81-7.49,5.81A11.67,11.67,0,0,1,911.23,220.33Z"/><path class="cls-1" d="M934.54,213.61c0-5.81,4.2-9.17,8.68-9.17s8.68,3.36,8.68,9.17-4.2,9.17-8.68,9.17S934.54,219.42,934.54,213.61Zm11.2,0c0-2.66-.7-4.34-2.52-4.34s-2.52,1.68-2.52,4.34.7,4.34,2.52,4.34S945.74,216.27,945.74,213.61Z"/><path class="cls-1" d="M955.05,204.86H960l.42,3h.14a5.88,5.88,0,0,1,5-3.43,5.19,5.19,0,0,1,2.17.35l-1,5.18a8.26,8.26,0,0,0-2-.28c-1.26,0-2.8.77-3.64,2.94v9.73h-6Z"/><path class="cls-1" d="M976.68,204.86h4.9l.42,1.61h.14a7.26,7.26,0,0,1,4.76-2c4.13,0,6.79,3.5,6.79,8.89,0,6-3.57,9.45-7.28,9.45a5.49,5.49,0,0,1-3.92-1.75l.21,2.66v4.83h-6Zm10.85,8.54c0-2.87-.84-4.06-2.45-4.06a2.92,2.92,0,0,0-2.38,1.26V217a3.21,3.21,0,0,0,2.24.84C986.34,217.88,987.53,216.76,987.53,213.4Z"/><path class="cls-1" d="M995.93,217.39c0-3.64,2.8-5.67,9.52-6.37-.14-1.26-.91-1.82-2.45-1.82a9.54,9.54,0,0,0-4.41,1.47l-2.1-3.92a14.75,14.75,0,0,1,7.7-2.31c4.55,0,7.28,2.45,7.28,8.19v9.73h-4.9l-.42-1.68H1006a7.1,7.1,0,0,1-4.83,2.1A5.14,5.14,0,0,1,995.93,217.39Zm9.52-.42v-2.38c-2.87.42-3.78,1.33-3.78,2.31,0,.8.56,1.26,1.61,1.26A2.76,2.76,0,0,0,1005.45,217Z"/><path class="cls-1" d="M1015.39,204.86h4.9l.42,3h.14a5.88,5.88,0,0,1,5-3.43,5.19,5.19,0,0,1,2.17.35l-1,5.18a8.26,8.26,0,0,0-2-.28c-1.26,0-2.8.77-3.64,2.94v9.73h-6Z"/><path class="cls-1" d="M1030.79,215.64v-6.09h-2.31v-4.48l2.66-.21.7-4.55h5v4.55h4v4.69h-4v6c0,1.93,1,2.56,2.1,2.56a5,5,0,0,0,1.54-.28l.91,4.34a13.19,13.19,0,0,1-4.13.63C1032.68,222.78,1030.79,219.91,1030.79,215.64Z"/><path class="cls-1" d="M1042.27,220.33l2.66-3.71a7.5,7.5,0,0,0,4.27,1.75c1.26,0,1.75-.35,1.75-1.05,0-.91-1.61-1.33-3.36-2-2-.81-4.41-2.31-4.41-5.18,0-3.43,2.8-5.67,6.93-5.67a10.33,10.33,0,0,1,6.44,2.31l-2.66,3.57a6.48,6.48,0,0,0-3.57-1.47c-1,0-1.54.28-1.54,1,0,.91,1.54,1.26,3.29,1.89,2.1.77,4.48,2.1,4.48,5.25s-2.59,5.81-7.49,5.81A11.67,11.67,0,0,1,1042.27,220.33Z"/><path class="cls-1" d="M396.56,257.64v-6.09h-2.31v-4.48l2.66-.21.7-4.55h5v4.55h4v4.69h-4v6c0,1.93,1,2.56,2.1,2.56a5.1,5.1,0,0,0,1.55-.28l.91,4.34a13.26,13.26,0,0,1-4.14.63C398.45,264.78,396.56,261.91,396.56,257.64Z"/><path class="cls-1" d="M409.79,240h6v5.67l-.28,3a7.8,7.8,0,0,1,5.26-2.24c3.85,0,5.46,2.8,5.46,7.14v10.78h-6v-10c0-2.24-.56-2.8-1.76-2.8a3.64,3.64,0,0,0-2.66,1.33v11.48h-6Z"/><path class="cls-1" d="M429.46,259.39c0-3.64,2.8-5.67,9.52-6.37-.14-1.26-.91-1.82-2.45-1.82a9.54,9.54,0,0,0-4.41,1.47l-2.1-3.92a14.75,14.75,0,0,1,7.7-2.31c4.55,0,7.28,2.45,7.28,8.19v9.73h-4.9l-.42-1.68h-.14a7.1,7.1,0,0,1-4.83,2.1A5.14,5.14,0,0,1,429.46,259.39ZM439,259v-2.38c-2.87.42-3.78,1.33-3.78,2.31,0,.8.56,1.26,1.61,1.26A2.76,2.76,0,0,0,439,259Z"/><path class="cls-1" d="M449,257.64v-6.09h-2.31v-4.48l2.66-.21.7-4.55h5v4.55h4v4.69h-4v6c0,1.93,1,2.56,2.1,2.56a5,5,0,0,0,1.54-.28l.91,4.34a13.19,13.19,0,0,1-4.13.63C450.88,264.78,449,261.91,449,257.64Z"/><path class="cls-1" d="M468.52,259.39c0-3.64,2.8-5.67,9.52-6.37-.14-1.26-.91-1.82-2.45-1.82a9.54,9.54,0,0,0-4.41,1.47l-2.1-3.92a14.75,14.75,0,0,1,7.7-2.31c4.55,0,7.28,2.45,7.28,8.19v9.73h-4.9l-.42-1.68h-.14a7.1,7.1,0,0,1-4.83,2.1A5.14,5.14,0,0,1,468.52,259.39ZM478,259v-2.38c-2.87.42-3.78,1.33-3.78,2.31,0,.8.56,1.26,1.61,1.26A2.76,2.76,0,0,0,478,259Z"/><path class="cls-1" d="M488,246.86h4.9l.42,3h.14a5.88,5.88,0,0,1,5-3.43,5.19,5.19,0,0,1,2.17.35l-1,5.18a8.26,8.26,0,0,0-2-.28c-1.26,0-2.8.77-3.64,2.94v9.73h-6Z"/><path class="cls-1" d="M501.35,255.61c0-5.67,4.13-9.17,8.4-9.17,5.18,0,7.63,3.78,7.63,8.47a13,13,0,0,1-.24,2.52h-10c.56,2.1,2.1,2.8,4.06,2.8a7.18,7.18,0,0,0,3.57-1.05l2,3.57a11.79,11.79,0,0,1-6.37,2C505.27,264.78,501.35,261.42,501.35,255.61Zm10.92-2.1a2.21,2.21,0,0,0-2.38-2.52,2.77,2.77,0,0,0-2.8,2.52Z"/><path class="cls-1" d="M527.67,246.86h4.9l.42,3h.14a5.88,5.88,0,0,1,5-3.43,5.19,5.19,0,0,1,2.17.35l-1,5.18a8.26,8.26,0,0,0-2-.28c-1.26,0-2.8.77-3.64,2.94v9.73h-6Z"/><path class="cls-1" d="M541,255.61c0-5.67,4.13-9.17,8.4-9.17,5.18,0,7.63,3.78,7.63,8.47a13,13,0,0,1-.24,2.52h-10c.56,2.1,2.1,2.8,4.06,2.8a7.18,7.18,0,0,0,3.57-1.05l2,3.57a11.79,11.79,0,0,1-6.37,2C545,264.78,541,261.42,541,255.61Zm10.92-2.1a2.21,2.21,0,0,0-2.38-2.52,2.77,2.77,0,0,0-2.8,2.52Z"/><path class="cls-1" d="M559.31,259.39c0-3.64,2.8-5.67,9.52-6.37-.14-1.26-.91-1.82-2.45-1.82a9.54,9.54,0,0,0-4.41,1.47l-2.1-3.92a14.75,14.75,0,0,1,7.7-2.31c4.55,0,7.28,2.45,7.28,8.19v9.73H570l-.42-1.68h-.14a7.1,7.1,0,0,1-4.83,2.1A5.14,5.14,0,0,1,559.31,259.39Zm9.52-.42v-2.38c-2.87.42-3.78,1.33-3.78,2.31,0,.8.56,1.26,1.61,1.26A2.76,2.76,0,0,0,568.83,259Z"/><path class="cls-1" d="M578,255.61c0-5.74,3.57-9.17,7.14-9.17a5.25,5.25,0,0,1,4.06,1.75l-.21-2.52V240h6v24.36h-4.9l-.42-1.61h-.14a6.63,6.63,0,0,1-4.41,2C580.8,264.78,578,261.28,578,255.61Zm11,3v-6.44a3.55,3.55,0,0,0-2.38-.84c-1.26,0-2.45,1.12-2.45,4.2s1,4.34,2.59,4.34A2.4,2.4,0,0,0,589,258.62Z"/><path class="cls-1" d="M598.72,241.68a3.38,3.38,0,1,1,3.36,3A3.08,3.08,0,0,1,598.72,241.68Zm.35,5.18h6v17.5h-6Z"/><path class="cls-1" d="M609.15,258.2V240h6v18.41c0,1.19.56,1.54,1,1.54a2.16,2.16,0,0,0,.63-.07l.7,4.41a7.45,7.45,0,0,1-2.94.49C610.48,264.78,609.15,262.12,609.15,258.2Z"/><path class="cls-1" d="M619.51,270.59l1-4.55a5.84,5.84,0,0,0,1.12.21,2.51,2.51,0,0,0,2.73-1.75l.21-.77L618,246.86h6l2.1,6.72c.49,1.61.84,3.22,1.26,5h.14c.35-1.68.7-3.29,1.12-5l1.75-6.72h5.74l-5.88,17.22c-1.82,4.73-3.71,6.86-8.05,6.86A9.07,9.07,0,0,1,619.51,270.59Z"/><path class="cls-1" d="M645.55,246.86h4.9l.42,2.13H651c1.4-1.36,2.87-2.55,5.25-2.55a5,5,0,0,1,4.83,2.8c1.44-1.47,3-2.8,5.39-2.8,3.85,0,5.53,2.8,5.53,7.14v10.78h-6v-10c0-2.24-.56-2.8-1.75-2.8a3.74,3.74,0,0,0-2.45,1.33v11.48h-6v-10c0-2.24-.56-2.8-1.75-2.8a3.74,3.74,0,0,0-2.45,1.33v11.48h-6Z"/><path class="cls-1" d="M675.23,259.39c0-3.64,2.8-5.67,9.52-6.37-.14-1.26-.91-1.82-2.45-1.82a9.54,9.54,0,0,0-4.41,1.47l-2.1-3.92a14.75,14.75,0,0,1,7.7-2.31c4.55,0,7.28,2.45,7.28,8.19v9.73h-4.9l-.42-1.68h-.14a7.1,7.1,0,0,1-4.83,2.1A5.14,5.14,0,0,1,675.23,259.39Zm9.52-.42v-2.38c-2.87.42-3.78,1.33-3.78,2.31,0,.8.56,1.26,1.61,1.26A2.76,2.76,0,0,0,684.75,259Z"/><path class="cls-1" d="M694.69,246.86h4.9l.42,3h.14a5.88,5.88,0,0,1,5-3.43,5.19,5.19,0,0,1,2.17.35l-1,5.18a8.26,8.26,0,0,0-2-.28c-1.26,0-2.8.77-3.64,2.94v9.73h-6Z"/><path class="cls-1" d="M709.32,240h5.88V253h.14l4.83-6.09h6.51l-6.23,7.28L727,264.36h-6.51l-3.5-6.23-1.82,2v4.2h-5.88Z"/><path class="cls-1" d="M727.17,255.61c0-5.67,4.13-9.17,8.4-9.17,5.18,0,7.63,3.78,7.63,8.47a13,13,0,0,1-.24,2.52H733c.56,2.1,2.1,2.8,4.06,2.8a7.18,7.18,0,0,0,3.57-1.05l2,3.57a11.79,11.79,0,0,1-6.37,2C731.09,264.78,727.17,261.42,727.17,255.61Zm10.92-2.1a2.21,2.21,0,0,0-2.38-2.52,2.77,2.77,0,0,0-2.8,2.52Z"/><path class="cls-1" d="M746.91,257.64v-6.09H744.6v-4.48l2.66-.21.7-4.55h5v4.55h4v4.69h-4v6c0,1.93,1,2.56,2.1,2.56a5,5,0,0,0,1.54-.28l.91,4.34a13.19,13.19,0,0,1-4.13.63C748.8,264.78,746.91,261.91,746.91,257.64Z"/><path class="cls-1" d="M758.74,259.39c0-3.64,2.8-5.67,9.52-6.37-.14-1.26-.91-1.82-2.45-1.82a9.54,9.54,0,0,0-4.41,1.47l-2.1-3.92a14.75,14.75,0,0,1,7.7-2.31c4.55,0,7.28,2.45,7.28,8.19v9.73h-4.9l-.42-1.68h-.14a7.1,7.1,0,0,1-4.83,2.1A5.14,5.14,0,0,1,758.74,259.39Zm9.52-.42v-2.38c-2.87.42-3.78,1.33-3.78,2.31,0,.8.56,1.26,1.61,1.26A2.76,2.76,0,0,0,768.26,259Z"/><path class="cls-1" d="M783.52,262.47h-.14l-.49,1.89H778.2V240h6v5.67l-.14,2.52a6.46,6.46,0,0,1,4.31-1.75c4.13,0,6.82,3.5,6.82,8.85,0,6.06-3.57,9.49-7.28,9.49A5.89,5.89,0,0,1,783.52,262.47Zm5.53-7.07c0-2.87-.84-4.06-2.45-4.06a2.92,2.92,0,0,0-2.38,1.26V259a3.21,3.21,0,0,0,2.24.84C787.86,259.88,789.05,258.76,789.05,255.4Z"/><path class="cls-1" d="M798.15,258.2V240h6v18.41c0,1.19.56,1.54,1,1.54a2.16,2.16,0,0,0,.63-.07l.7,4.41a7.45,7.45,0,0,1-2.94.49C799.48,264.78,798.15,262.12,798.15,258.2Z"/><path class="cls-1" d="M807.67,255.61c0-5.67,4.13-9.17,8.4-9.17,5.18,0,7.63,3.78,7.63,8.47a13,13,0,0,1-.24,2.52h-10c.56,2.1,2.1,2.8,4.06,2.8a7.18,7.18,0,0,0,3.57-1.05l2,3.57a11.79,11.79,0,0,1-6.37,2C811.59,264.78,807.67,261.42,807.67,255.61Zm10.92-2.1a2.21,2.21,0,0,0-2.38-2.52,2.77,2.77,0,0,0-2.8,2.52Z"/><path class="cls-1" d="M832.73,247.07l2.66-.21H844v4.69H832.73Zm2.31-.42c0-3.75,1.75-7.07,6.93-7.07a11.14,11.14,0,0,1,3.71.63l-1,4.41a5.19,5.19,0,0,0-1.75-.35c-1.12,0-1.82.52-1.82,2.17v17.92h-6Z"/><path class="cls-1" d="M845.33,255.61c0-5.81,4.2-9.17,8.68-9.17s8.68,3.36,8.68,9.17-4.2,9.17-8.68,9.17S845.33,261.42,845.33,255.61Zm11.2,0c0-2.66-.7-4.34-2.52-4.34s-2.52,1.68-2.52,4.34.7,4.34,2.52,4.34S856.53,258.27,856.53,255.61Z"/><path class="cls-1" d="M865.84,246.86h4.9l.42,3h.14a5.86,5.86,0,0,1,5-3.43,5.22,5.22,0,0,1,2.17.35l-1,5.18a8.26,8.26,0,0,0-2-.28c-1.26,0-2.8.77-3.64,2.94v9.73h-6Z"/><path class="cls-1" d="M887.47,246.86h4.9l.42,3h.14a5.86,5.86,0,0,1,5-3.43,5.22,5.22,0,0,1,2.17.35l-1,5.18a8.26,8.26,0,0,0-2-.28c-1.26,0-2.8.77-3.64,2.94v9.73h-6Z"/><path class="cls-1" d="M900.84,255.61c0-5.67,4.13-9.17,8.4-9.17,5.18,0,7.63,3.78,7.63,8.47a13,13,0,0,1-.24,2.52h-10c.56,2.1,2.1,2.8,4.06,2.8a7.18,7.18,0,0,0,3.57-1.05l2,3.57a11.79,11.79,0,0,1-6.37,2C904.76,264.78,900.84,261.42,900.84,255.61Zm10.92-2.1a2.21,2.21,0,0,0-2.38-2.52,2.77,2.77,0,0,0-2.8,2.52Z"/><path class="cls-1" d="M920,257.64V246.86h6v10c0,2.24.56,2.8,1.75,2.8a2.76,2.76,0,0,0,2.52-1.54V246.86h6v17.5h-4.9l-.42-2.31h-.14a6.63,6.63,0,0,1-5.39,2.73C921.63,264.78,920,262,920,257.64Z"/><path class="cls-1" d="M939,262.33l2.66-3.71a7.48,7.48,0,0,0,4.27,1.75c1.26,0,1.75-.35,1.75-1.05,0-.91-1.61-1.33-3.36-2-2-.81-4.41-2.31-4.41-5.18,0-3.43,2.8-5.67,6.93-5.67a10.33,10.33,0,0,1,6.44,2.31l-2.66,3.57a6.51,6.51,0,0,0-3.57-1.47c-1,0-1.54.28-1.54,1,0,.91,1.54,1.26,3.29,1.89,2.1.77,4.48,2.1,4.48,5.25s-2.59,5.81-7.49,5.81A11.67,11.67,0,0,1,939,262.33Z"/><path class="cls-1" d="M955.3,255.61c0-5.67,4.13-9.17,8.4-9.17,5.18,0,7.63,3.78,7.63,8.47a12.07,12.07,0,0,1-.25,2.52h-10c.56,2.1,2.1,2.8,4.06,2.8a7.18,7.18,0,0,0,3.57-1.05l2,3.57a11.79,11.79,0,0,1-6.37,2C959.22,264.78,955.3,261.42,955.3,255.61Zm10.92-2.1a2.21,2.21,0,0,0-2.38-2.52,2.77,2.77,0,0,0-2.8,2.52Z"/><path class="cls-1" d="M363.14,297.61c0-5.81,4.2-9.17,8.68-9.17s8.68,3.36,8.68,9.17-4.2,9.17-8.68,9.17S363.14,303.42,363.14,297.61Zm11.2,0c0-2.66-.7-4.34-2.52-4.34s-2.52,1.68-2.52,4.34.7,4.34,2.52,4.34S374.34,300.27,374.34,297.61Z"/><path class="cls-1" d="M383.65,288.86h4.9l.42,3h.14a5.88,5.88,0,0,1,5-3.43,5.19,5.19,0,0,1,2.17.35l-1,5.18a8.26,8.26,0,0,0-2-.28c-1.26,0-2.8.77-3.64,2.94v9.73h-6Z"/><path class="cls-1" d="M404.37,297.61c0-5.81,4.41-9.17,9.38-9.17a7.7,7.7,0,0,1,5.11,1.82l-2.8,3.85a2.94,2.94,0,0,0-2-.84c-2.24,0-3.57,1.68-3.57,4.34S412,302,413.89,302a4.88,4.88,0,0,0,2.8-1.12l2.31,3.92a8.8,8.8,0,0,1-5.81,2C408.22,306.78,404.37,303.42,404.37,297.61Z"/><path class="cls-1" d="M420.75,301.39c0-3.64,2.8-5.67,9.52-6.37-.14-1.26-.91-1.82-2.45-1.82a9.54,9.54,0,0,0-4.41,1.47l-2.1-3.92a14.75,14.75,0,0,1,7.7-2.31c4.55,0,7.28,2.45,7.28,8.19v9.73h-4.9l-.42-1.68h-.14a7.1,7.1,0,0,1-4.83,2.1A5.14,5.14,0,0,1,420.75,301.39Zm9.52-.42v-2.38c-2.87.42-3.78,1.33-3.78,2.31,0,.8.56,1.26,1.61,1.26A2.76,2.76,0,0,0,430.27,301Z"/><path class="cls-1" d="M440.21,288.86h4.9l.42,2.1h.14a7.91,7.91,0,0,1,5.53-2.52c3.85,0,5.46,2.8,5.46,7.14v10.78h-6v-10c0-2.24-.56-2.8-1.75-2.8a3.64,3.64,0,0,0-2.66,1.33v11.48h-6Z"/><path class="cls-1" d="M472.9,304.47h-.14l-.49,1.89h-4.69V282h6v5.67l-.14,2.52a6.42,6.42,0,0,1,4.3-1.75c4.14,0,6.83,3.5,6.83,8.85,0,6.06-3.57,9.49-7.28,9.49A5.89,5.89,0,0,1,472.9,304.47Zm5.53-7.07c0-2.87-.84-4.06-2.45-4.06a2.92,2.92,0,0,0-2.38,1.26V301a3.21,3.21,0,0,0,2.24.84C477.24,301.88,478.43,300.76,478.43,297.4Z"/><path class="cls-1" d="M487,297.61c0-5.67,4.13-9.17,8.4-9.17,5.18,0,7.63,3.78,7.63,8.47a12.07,12.07,0,0,1-.25,2.52h-10c.56,2.1,2.1,2.8,4.06,2.8a7.18,7.18,0,0,0,3.57-1.05l2,3.57a11.79,11.79,0,0,1-6.37,2C490.89,306.78,487,303.42,487,297.61Zm10.92-2.1a2.21,2.21,0,0,0-2.38-2.52,2.77,2.77,0,0,0-2.8,2.52Z"/><path class="cls-1" d="M513.29,288.86h4.9l.42,3h.14a5.86,5.86,0,0,1,5-3.43,5.22,5.22,0,0,1,2.17.35l-1,5.18a8.26,8.26,0,0,0-2-.28c-1.26,0-2.8.77-3.64,2.94v9.73h-6Z"/><path class="cls-1" d="M526.66,297.61c0-5.67,4.13-9.17,8.4-9.17,5.18,0,7.63,3.78,7.63,8.47a12.07,12.07,0,0,1-.25,2.52h-10c.56,2.1,2.1,2.8,4.06,2.8a7.18,7.18,0,0,0,3.57-1.05l2,3.57a11.79,11.79,0,0,1-6.37,2C530.58,306.78,526.66,303.42,526.66,297.61Zm10.92-2.1A2.21,2.21,0,0,0,535.2,293a2.77,2.77,0,0,0-2.8,2.52Z"/><path class="cls-1" d="M545.07,297.61c0-5.81,4.41-9.17,9.38-9.17a7.7,7.7,0,0,1,5.11,1.82l-2.8,3.85a2.94,2.94,0,0,0-2-.84c-2.24,0-3.57,1.68-3.57,4.34s1.47,4.34,3.36,4.34a4.88,4.88,0,0,0,2.8-1.12l2.31,3.92a8.8,8.8,0,0,1-5.81,2C548.92,306.78,545.07,303.42,545.07,297.61Z"/><path class="cls-1" d="M562.43,312.59l1.05-4.55a5.69,5.69,0,0,0,1.12.21,2.51,2.51,0,0,0,2.73-1.75l.21-.77-6.65-16.87h6l2.1,6.72c.49,1.61.84,3.22,1.26,5h.14c.35-1.68.7-3.29,1.12-5l1.75-6.72H579l-5.88,17.22c-1.82,4.73-3.71,6.86-8,6.86A9.07,9.07,0,0,1,562.43,312.59Z"/><path class="cls-1" d="M580.21,297.61c0-5.81,4.41-9.17,9.38-9.17a7.7,7.7,0,0,1,5.11,1.82l-2.8,3.85a2.94,2.94,0,0,0-2-.84c-2.24,0-3.57,1.68-3.57,4.34s1.47,4.34,3.36,4.34a4.88,4.88,0,0,0,2.8-1.12l2.31,3.92a8.8,8.8,0,0,1-5.81,2C584.06,306.78,580.21,303.42,580.21,297.61Z"/><path class="cls-1" d="M597.64,300.2V282h6v18.41c0,1.19.56,1.54,1,1.54a2.16,2.16,0,0,0,.63-.07l.7,4.41a7.45,7.45,0,0,1-2.94.49C599,306.78,597.64,304.12,597.64,300.2Z"/><path class="cls-1" d="M607.16,297.61c0-5.67,4.13-9.17,8.4-9.17,5.18,0,7.63,3.78,7.63,8.47a12.07,12.07,0,0,1-.25,2.52H613c.56,2.1,2.1,2.8,4.06,2.8a7.18,7.18,0,0,0,3.57-1.05l2,3.57a11.79,11.79,0,0,1-6.37,2C611.08,306.78,607.16,303.42,607.16,297.61Zm10.92-2.1A2.21,2.21,0,0,0,615.7,293a2.77,2.77,0,0,0-2.8,2.52Z"/><path class="cls-1" d="M625.71,297.61c0-5.74,3.57-9.17,7.14-9.17a5.25,5.25,0,0,1,4.06,1.75l-.21-2.52V282h6v24.36h-4.9l-.42-1.61h-.14a6.63,6.63,0,0,1-4.41,2C628.51,306.78,625.71,303.28,625.71,297.61Zm11,3v-6.44a3.55,3.55,0,0,0-2.38-.84c-1.26,0-2.45,1.12-2.45,4.2s1,4.34,2.59,4.34A2.4,2.4,0,0,0,636.7,300.62Z"/><path class="cls-1" d="M652.51,289.07l2.66-.21h8.62v4.69H652.51Zm2.31-.42c0-3.75,1.75-7.07,6.94-7.07a11.14,11.14,0,0,1,3.71.63l-1.05,4.41a5.19,5.19,0,0,0-1.75-.35c-1.13,0-1.82.52-1.82,2.17v17.92h-6Z"/><path class="cls-1" d="M665.11,297.61c0-5.81,4.2-9.17,8.68-9.17s8.69,3.36,8.69,9.17-4.2,9.17-8.69,9.17S665.11,303.42,665.11,297.61Zm11.21,0c0-2.66-.7-4.34-2.53-4.34s-2.52,1.68-2.52,4.34S672,302,673.79,302,676.32,300.27,676.32,297.61Z"/><path class="cls-1" d="M685.62,288.86h4.9l.42,3h.14a5.88,5.88,0,0,1,5-3.43,5.22,5.22,0,0,1,2.17.35l-1,5.18a8.26,8.26,0,0,0-2-.28c-1.27,0-2.81.77-3.65,2.94v9.73h-6Z"/><path class="cls-1" d="M707.25,288.86h4.9l.42,2.13h.14c1.4-1.36,2.87-2.55,5.25-2.55a5,5,0,0,1,4.84,2.8c1.43-1.47,3-2.8,5.39-2.8,3.85,0,5.53,2.8,5.53,7.14v10.78h-6v-10c0-2.24-.56-2.8-1.75-2.8a3.74,3.74,0,0,0-2.45,1.33v11.48h-6v-10c0-2.24-.56-2.8-1.76-2.8a3.74,3.74,0,0,0-2.45,1.33v11.48h-6Z"/><path class="cls-1" d="M736.93,301.39c0-3.64,2.8-5.67,9.53-6.37-.15-1.26-.92-1.82-2.46-1.82a9.54,9.54,0,0,0-4.41,1.47l-2.1-3.92a14.75,14.75,0,0,1,7.7-2.31c4.56,0,7.29,2.45,7.29,8.19v9.73h-4.9l-.42-1.68H747a7.08,7.08,0,0,1-4.83,2.1A5.14,5.14,0,0,1,736.93,301.39Zm9.53-.42v-2.38c-2.88.42-3.79,1.33-3.79,2.31,0,.8.56,1.26,1.61,1.26A2.78,2.78,0,0,0,746.46,301Z"/><path class="cls-1" d="M756.46,299.64v-6.09h-2.31v-4.48l2.66-.21.7-4.55h5v4.55h4v4.69h-4v6c0,1.93,1,2.56,2.1,2.56a5.1,5.1,0,0,0,1.55-.28l.91,4.34a13.26,13.26,0,0,1-4.14.63C758.35,306.78,756.46,303.91,756.46,299.64Z"/><path class="cls-1" d="M768.08,297.61c0-5.67,4.13-9.17,8.41-9.17,5.18,0,7.63,3.78,7.63,8.47a12.07,12.07,0,0,1-.25,2.52h-10c.57,2.1,2.11,2.8,4.07,2.8a7.18,7.18,0,0,0,3.57-1.05l2,3.57a11.79,11.79,0,0,1-6.37,2C772,306.78,768.08,303.42,768.08,297.61Zm10.92-2.1c0-1.33-.55-2.52-2.37-2.52a2.76,2.76,0,0,0-2.8,2.52Z"/><path class="cls-1" d="M787.4,288.86h4.9l.42,3h.14a5.88,5.88,0,0,1,5-3.43,5.15,5.15,0,0,1,2.17.35L799,294a8.34,8.34,0,0,0-2-.28c-1.27,0-2.81.77-3.65,2.94v9.73h-6Z"/><path class="cls-1" d="M801.68,283.68a3.38,3.38,0,1,1,3.36,3A3.08,3.08,0,0,1,801.68,283.68Zm.35,5.18h6v17.5h-6Z"/><path class="cls-1" d="M811.41,301.39c0-3.64,2.8-5.67,9.52-6.37-.14-1.26-.91-1.82-2.45-1.82a9.54,9.54,0,0,0-4.41,1.47l-2.1-3.92a14.75,14.75,0,0,1,7.7-2.31c4.55,0,7.29,2.45,7.29,8.19v9.73h-4.91l-.42-1.68h-.14a7.1,7.1,0,0,1-4.83,2.1A5.14,5.14,0,0,1,811.41,301.39Zm9.52-.42v-2.38c-2.87.42-3.78,1.33-3.78,2.31,0,.8.56,1.26,1.61,1.26A2.76,2.76,0,0,0,820.93,301Z"/><path class="cls-1" d="M830.87,300.2V282h6v18.41c0,1.19.56,1.54,1,1.54a2.16,2.16,0,0,0,.63-.07l.7,4.41a7.45,7.45,0,0,1-2.94.49C832.2,306.78,830.87,304.12,830.87,300.2Z"/><path class="cls-1" d="M841.86,292.5c2.24-1,3.36-2.38,3.36-4.48l0-3.29,1.78,2.55a3.7,3.7,0,0,1-2.1.81,2.83,2.83,0,0,1-3-2.87,3,3,0,0,1,3-3.22c2.45,0,3.71,1.89,3.71,5.11,0,3.5-1.75,6.23-5.46,8Z"/><path class="cls-1" d="M859.5,288.86h4.9l.42,3H865a5.88,5.88,0,0,1,5-3.43,5.19,5.19,0,0,1,2.17.35l-1,5.18a8.26,8.26,0,0,0-2-.28c-1.26,0-2.8.77-3.64,2.94v9.73h-6Z"/><path class="cls-1" d="M872.87,297.61c0-5.67,4.13-9.17,8.4-9.17,5.18,0,7.63,3.78,7.63,8.47a13,13,0,0,1-.24,2.52h-10c.56,2.1,2.1,2.8,4.06,2.8a7.18,7.18,0,0,0,3.57-1.05l2,3.57a11.79,11.79,0,0,1-6.37,2C876.79,306.78,872.87,303.42,872.87,297.61Zm10.92-2.1a2.21,2.21,0,0,0-2.38-2.52,2.77,2.77,0,0,0-2.8,2.52Z"/><path class="cls-1" d="M891.28,297.61c0-5.81,4.41-9.17,9.38-9.17a7.7,7.7,0,0,1,5.11,1.82l-2.8,3.85a2.94,2.94,0,0,0-2-.84c-2.24,0-3.57,1.68-3.57,4.34s1.47,4.34,3.36,4.34a4.88,4.88,0,0,0,2.8-1.12l2.31,3.92a8.8,8.8,0,0,1-5.81,2C895.13,306.78,891.28,303.42,891.28,297.61Z"/><path class="cls-1" d="M906.75,297.61c0-5.81,4.2-9.17,8.68-9.17s8.68,3.36,8.68,9.17-4.2,9.17-8.68,9.17S906.75,303.42,906.75,297.61Zm11.2,0c0-2.66-.7-4.34-2.52-4.34s-2.52,1.68-2.52,4.34.7,4.34,2.52,4.34S918,300.27,918,297.61Z"/><path class="cls-1" d="M925.3,288.86h6l1.89,7.63q.63,2.63,1.26,5.46h.14q.63-2.83,1.26-5.46l1.89-7.63h5.74L938,306.36H931Z"/><path class="cls-1" d="M944.69,297.61c0-5.67,4.13-9.17,8.4-9.17,5.18,0,7.63,3.78,7.63,8.47a13,13,0,0,1-.24,2.52h-10c.56,2.1,2.1,2.8,4.06,2.8a7.18,7.18,0,0,0,3.57-1.05l2,3.57a11.79,11.79,0,0,1-6.37,2C948.61,306.78,944.69,303.42,944.69,297.61Zm10.92-2.1a2.21,2.21,0,0,0-2.38-2.52,2.77,2.77,0,0,0-2.8,2.52Z"/><path class="cls-1" d="M964,288.86h4.9l.42,3h.14a5.88,5.88,0,0,1,5-3.43,5.19,5.19,0,0,1,2.17.35l-1,5.18a8.26,8.26,0,0,0-2-.28c-1.26,0-2.8.77-3.64,2.94v9.73h-6Z"/><path class="cls-1" d="M978.57,312.59l1-4.55a5.84,5.84,0,0,0,1.12.21,2.51,2.51,0,0,0,2.73-1.75l.21-.77L977,288.86h6l2.1,6.72c.49,1.61.84,3.22,1.26,5h.14c.35-1.68.7-3.29,1.12-5l1.75-6.72h5.74l-5.88,17.22c-1.82,4.73-3.71,6.86-8,6.86A9.07,9.07,0,0,1,978.57,312.59Z"/><path class="cls-1" d="M995.23,303.14a3.5,3.5,0,1,1,3.5,3.64A3.5,3.5,0,0,1,995.23,303.14Z"/><path class="cls-5" d="M708,540h30c3.1.4,4.51,2.34,5.06,5.25,2,10.18,4.22,20.31,5,30.68l-.3.53a2,2,0,0,1-1.67-.07c-2.49-1.3-5.17-1-7.83-1H706.76c-2.25,0-4.49-.08-6.59,1a2.35,2.35,0,0,1-2,.13l-.3-.53c.76-9.7,2.82-19.18,4.63-28.71.12-.65.31-1.29.41-2C703.41,542.32,704.9,540.4,708,540Z"/><path class="cls-5" d="M744,589H702a4.68,4.68,0,0,1-4-4v-5.48c1.18-3.63,2.77-4.91,6.73-4.93q18.24-.12,36.49,0c3.92,0,5.45,1.24,6.78,4.93V585A4.68,4.68,0,0,1,744,589Z"/><path class="cls-1" d="M748,576v3.86c-2.55-4.52-7-4.5-13.23-3.49a75.49,75.49,0,0,1-23.72,0c-6.12-1-10.53-1-13,3.53v-4a12.31,12.31,0,0,1,7.07-2q17.92,0,35.86,0"/><path class="cls-1" d="M697.68,585.33a13.25,13.25,0,0,0,4,4C697.68,589.31,697.68,589.31,697.68,585.33Z"/><path class="cls-1" d="M743.47,589.31a13.6,13.6,0,0,0,4-4C747.45,589.31,747.45,589.31,743.47,589.31Z"/><path class="cls-1" d="M722.59,568a16.7,16.7,0,0,1-10.65-3.25c-5.66-4.17-5.8-11.2-.33-15.61,5.9-4.76,16.1-4.74,22,.05,5.35,4.37,5.25,11.27-.26,15.45A16.63,16.63,0,0,1,722.59,568Z"/><path class="cls-1" d="M738.93,579.78c1.77.2,2.76,1.18,2.69,2.94a2.53,2.53,0,0,1-2.9,2.66,2.55,2.55,0,0,1-2.69-2.89C736.09,580.73,737.2,579.87,738.93,579.78Z"/><path class="cls-6" d="M722.53,558.56c-1.72-.17-3.46-.53-3.5-2.66s1.74-2.61,3.44-2.74c2.06-.16,3.82,1.21,3.65,2.79C725.9,558.07,724.27,558.41,722.53,558.56Z"/><path class="cls-7" d="M713.43,554.54c.4,4.13,3.38,6,6.25,8C714.53,562.17,711.87,558.79,713.43,554.54Z"/><path class="cls-1" d="M722.31,563.15c-.35.06-.58.19-.72.11s-.19-.33-.28-.51c.13,0,.3-.17.39-.13A3.07,3.07,0,0,1,722.31,563.15Z"/><path class="cls-8" d="M780,527.58l0,1c-1.84,3.14-4.67,3.9-8.16,3.85q-16.82-.19-33.64,0c-3.48,0-6.29-.71-8.14-3.81l0-1.07c.38-.69,1-.73,1.72-.75,5.37-.2,10.72-.64,16.11-.45,6.63.23,13.25.13,19.87,0,3.64-.1,7.21.74,10.83.51A1.45,1.45,0,0,1,780,527.58Z"/><path class="cls-9" d="M780,527.59a5.18,5.18,0,0,0-2.9-.5H732.9a5.18,5.18,0,0,0-2.9.5v-1c2-.29,4.09.61,6-.51a2.36,2.36,0,0,1,1.66-.37q17.31.21,34.64,0a2.38,2.38,0,0,1,1.66.37c1.93,1.12,4,.22,6,.51Z"/><path class="cls-10" d="M773.81,526.08a11.76,11.76,0,0,1-4.13.52q-14.76,0-29.52,0a12.3,12.3,0,0,1-4.14-.51,3.21,3.21,0,0,1-2.09-3.31c0-7-.06-13.93,0-20.88,0-2.71,1.52-4,4.58-4,5.47-.06,10.94,0,16.41,0,5.3,0,10.6,0,15.91,0,3.84,0,5.09,1.27,5.1,5,0,6.38,0,12.76,0,19.14C775.94,523.76,775.69,525.34,773.81,526.08Z"/><path class="cls-1" d="M755,501.72c5.06,0,10.12,0,15.17,0,1.4,0,2.08.18,2.05,1.85-.11,5.8-.09,11.6,0,17.41,0,1.44-.46,1.81-1.85,1.81q-15.42-.07-30.84,0c-1.58,0-1.93-.54-1.91-2,.08-5.72.09-11.44,0-17.16,0-1.58.49-1.94,2-1.91C744.73,501.77,749.87,501.72,755,501.72Z"/><path class="cls-11" d="M753.9,514.67l-2.9,2.12v-11.1l8.1,7.57a6,6,0,0,1-1,.31c-2.84.22-2.8.2-1.76,2.76.25.59,1.35,1.38,0,2s-1.12-.78-1.47-1.33A17.66,17.66,0,0,1,753.9,514.67Z"/><path class="cls-10" d="M626.5,516H596a4.29,4.29,0,0,1-4-4V470a4.29,4.29,0,0,1,4-4h30.5c3.67,1.31,4.78,2.78,5,6.78.12,2.91.06,5.82,0,8.73a3.14,3.14,0,0,0,1.58,3.1,4.4,4.4,0,0,1,2.2,4.43,26.49,26.49,0,0,0,0,3.78,4.42,4.42,0,0,1-2.39,4.73,2.67,2.67,0,0,0-1.39,2.7c0,3,.08,6,0,9C631.28,513.22,630.17,514.69,626.5,516Z"/><path class="cls-1" d="M592.15,511.66a12.4,12.4,0,0,0,4,4C592.15,515.64,592.15,515.64,592.15,511.66Z"/><path class="cls-1" d="M596.13,465.86a12.5,12.5,0,0,0-4,4C592.15,465.86,592.15,465.86,596.13,465.86Z"/><path class="cls-1" d="M596,490.7c0-6,0-11.93,0-17.9,0-2.21.73-3.13,3-3.1q10.44.14,20.88,0c2.17,0,2.94.88,2.93,3q-.06,18.13,0,36.28c0,1.95-.73,2.86-2.8,2.84-7-.06-14.08-.07-21.12,0-2.17,0-2.94-.85-2.91-3C596.05,502.79,596,496.74,596,490.7Z"/><path class="cls-1" d="M626.49,469.78a1.27,1.27,0,0,1,1.47,1.3,1.34,1.34,0,0,1-2.68,0A1.18,1.18,0,0,1,626.49,469.78Z"/><path class="cls-12" d="M640,490.73c0,4.38,0,8.76-.05,13.14,0,.76.82,2.2-1,2.22a2.58,2.58,0,0,1-2.76-2,6.54,6.54,0,0,1-.08-1.72q0-11.66,0-23.31a7.66,7.66,0,0,1,.23-2.2c.41-1.39,1.6-1.54,2.81-1.43,1.39.13.78,1.26.79,1.93C640,481.8,640,486.27,640,490.73Z"/><path class="cls-13" d="M607.88,498.94l-4.24-1.21a5,5,0,0,1-2.77-7.72,1.26,1.26,0,0,1,1.63-.66c.7.23,1.41.43,2.12.65,2,.61,4.61.61,2.6,4C606.44,495.33,607.37,497,607.88,498.94Z"/><path class="cls-8" d="M602.7,480.2c2.3.64,4.22,1.07,6.06,1.71s1.66,2.31,1.79,3.75a4.85,4.85,0,0,1-1.32,4.1c-.26.26-6.47-1.39-6.61-1.73a.84.84,0,0,1,0-.68C604,485.13,603.68,482.81,602.7,480.2Z"/><path class="cls-13" d="M616.12,501.29c-1.75-.49-3.18-.87-4.61-1.29-2.89-.85-4.18-5.5-2.24-7.86.57-.69,1.17-.49,1.78-.32,1.82.52,3.62,1.09,5.67,1.71C615,496,615.33,498.56,616.12,501.29Z"/><path class="cls-13" d="M611.21,482.67a58.42,58.42,0,0,1,6.06,1.73c1.83.72,2,6.52.3,7.66-.48.33-.94.14-1.41,0-.95-.27-1.89-.6-2.86-.82-1.82-.4-3.21-.77-1.83-3.22C612.31,486.53,611.6,484.66,611.21,482.67Z"/><path class="cls-10" d="M669.8,593a4.42,4.42,0,0,1-1.9-4c.05-10.11,0-20.22,0-30.33,0-3,1-3.94,4.07-3.95q8.46,0,16.91,0c3,0,3.89.87,3.89,3.81,0,10.2,0,20.4.05,30.59a5.18,5.18,0,0,1-1.64,3.91Z"/><path class="cls-10" d="M673.78,543c1.49,1.34,2.78,7.35,1.82,9-.63,1.07-1.81.37-2.73.53s-1.06-.38-1.1-1.17c-.07-1.38.64-3.11-.38-4.05-1.18-1.07-3-.38-4.56-.41-3.4-.07-6.8,0-10.19,0-2.12-.06-2.33,1-2,3.74a88.3,88.3,0,0,1,0,21.12c-.36,2.86-.09,3.91,2,3.82,2.48-.11,5,.06,7.45-.06,1.59-.08,2.13.49,1.92,2a7.26,7.26,0,0,0,0,1.92c.3,2.26-1.25,2.06-4.36,1.66a24.71,24.71,0,0,0-6.37.12c-4.34.59-5.64-1.81-3.6-7.76a36.09,36.09,0,0,0-.48-24.78c-1.17-3-.06-4.26,1.14-5.66Z"/><path class="cls-1" d="M671.79,572.5c0-4,.08-8,0-11.93-.06-1.79.6-2.28,2.3-2.24q6.33.13,12.67,0c1.67,0,2.38.42,2.36,2.22-.07,8.12-.05,16.24,0,24.36,0,1.41-.37,2.12-2,2.1-4.47-.07-9-.08-13.42,0-1.59,0-2-.63-1.93-2.08C671.84,580.79,671.79,576.64,671.79,572.5Z"/><path class="cls-1" d="M680.41,591.6c-.92-.18-1.69-.58-1.66-1.71a1.5,1.5,0,0,1,1.5-1.59,1.57,1.57,0,0,1,1.84,1.53C682.18,590.89,681.44,591.42,680.41,591.6Z"/><path class="cls-1" d="M680.29,557.05c-.62-.21-1.83.4-1.72-.75.08-.83,1.22-.57,1.92-.55s1.81-.34,1.69.75S680.94,556.84,680.29,557.05Z"/><path class="cls-1" d="M663.09,580.08c-1.07-.17-1.73-.78-1.59-1.82a1.56,1.56,0,0,1,1.92-1.42,1.5,1.5,0,0,1,1.42,1.67C664.8,579.62,664,580,663.09,580.08Z"/><path class="cls-1" d="M663.17,545.62c-.63-.23-1.77.41-1.82-.61-.05-1.19,1.16-.8,1.89-.84s1.81-.19,1.83.67C665.08,546.07,663.84,545.39,663.17,545.62Z"/><path class="cls-5" d="M690.75,542h-19c-3.68-1.32-4.93-2.85-5-6.78q-.15-15.37,0-30.74c.06-4.9,2.79-7.43,7.74-7.48,4.17,0,8.33,0,12.5,0,1.65,0,2.75-.4,2.8-2.31a3,3,0,0,1,2.08-2.76l1.58,0a3.34,3.34,0,0,1,2.26,3.53c0,13.36.08,26.73,0,40.09C695.69,538.82,694.25,541.25,690.75,542Z"/><path class="cls-1" d="M681.12,516.63c-2.4,0-4.81-.06-7.21,0-1.53.06-2.27-.32-2.22-2,.1-3.81.06-7.62,0-11.43,0-1.36.43-1.95,1.85-1.94,5.13,0,10.27,0,15.4,0,1.21,0,1.81.36,1.79,1.71q-.06,6,.06,11.92c0,1.49-.68,1.8-2,1.77C686.25,516.59,683.68,516.63,681.12,516.63Z"/><path class="cls-10" d="M638.89,444h24c3.75,1,5.26,2.78,5.45,6.9.17,3.49,0,7,0,10.49q0,12.28,0,24.57c0,.53,0,1.05-.06,1.57-.56,5.55-3.17,6.54-11.59,7.42l-14.63-.32c-6.39-1-8.65-2.36-8.69-7.44q-.15-18.19,0-36.38C633.45,446.7,634.93,445,638.89,444Z"/><path class="cls-1" d="M663.31,467c0,5-.06,9.94,0,14.91,0,1.77-.6,2.3-2.31,2.28q-10.2-.11-20.39,0c-1.76,0-2.26-.59-2.25-2.3q.09-15,0-30.09c0-1.66.57-2.15,2.15-2.14q10.32.09,20.64,0c1.6,0,2.19.52,2.16,2.17C663.25,456.91,663.31,462,663.31,467Z"/><path class="cls-1" d="M653.33,489c-.31,1.46-1.09,2.4-2.69,2.28a2.19,2.19,0,0,1-2.2-2.45,2.22,2.22,0,0,1,2.61-2.27C652.5,486.67,653.17,487.64,653.33,489Z"/><path class="cls-1" d="M651,447.82c-.58,0-1.16,0-1.74,0a1,1,0,0,1-1-.9c0-.74.49-1,1.12-1,.91,0,1.82,0,2.73,0,.73,0,1.71-.12,1.73.89,0,1.16-1,1.08-1.85,1.09h-1Z"/><path class="cls-5" d="M640.5,545H616a4.69,4.69,0,0,1-4-4V499a4.29,4.29,0,0,1,4-4h24.5c4.19,1.33,5,2.38,5,6.78q0,18.22,0,36.44C645.48,542.62,644.69,543.67,640.5,545Z"/><path class="cls-10" d="M662,503.19V537c-.82,4-5.25,4.62-9.43,6.06a33.35,33.35,0,0,1-6.58,1.64,1,1,0,0,1-1.29-.69c1.94-14.55.37-29.16.89-43.74,0-1.46-1.17-2.58-.91-4.05.42-1.14,1.29-.73,2.09-.62A45.49,45.49,0,0,1,658,498.85,5.94,5.94,0,0,1,662,503.19Z"/><path class="cls-1" d="M645,495.53c1.82,3.27,1.54,6.84,1.53,10.39q0,14.2,0,28.43c0,3.47.25,7-1.56,10.14-.05.3-.37.32-.53.51h-4c4.43-2.18,4.88-6.25,3.52-12.57a61.52,61.52,0,0,1,0-24.92c1.24-6.21.95-10.37-3.56-12.51h4C644.59,495.19,644.91,495.22,645,495.53Z"/><path class="cls-1" d="M628.15,520.12c-3.15,0-6.3,0-9.45,0-1.84,0-2.8-.63-2.79-2.59q.06-7.95,0-15.92c0-1.78.76-2.56,2.54-2.55q10,0,19.91,0a2.15,2.15,0,0,1,2.45,2.43c0,5.4,0,10.79,0,16.18,0,1.76-1,2.47-2.71,2.45C634.79,520.08,631.47,520.12,628.15,520.12Z"/><path class="cls-1" d="M628.2,533.62a2.8,2.8,0,0,1-2.77-3,2.69,2.69,0,0,1,3-2.9,2.76,2.76,0,0,1,2.91,3C631.26,532.46,630.15,533.51,628.2,533.62Z"/><path class="cls-10" d="M628.44,518c-2.65,0-5.29-.06-7.94,0-1.93.06-2.75-.8-2.68-2.66,0-.25,0-.5,0-.75,0-4.08.09-4.2,4.1-4.2,4.63,0,9.26.06,13.89,0,2.22,0,3.13.79,3.11,3,0,4.46,0,4.57-4.53,4.57Z"/><path class="cls-10" d="M628.43,508.63c-2.65,0-5.29-.05-7.94,0-1.91,0-2.72-.86-2.67-2.7a18.87,18.87,0,0,0,0-2c-.15-2.08.72-3,2.88-3,5.13.07,10.25,0,15.38,0,2,0,2.95.8,2.83,2.82a12.49,12.49,0,0,0,0,1.73c.16,2.19-.74,3.22-3,3.12C633.39,508.55,630.91,508.63,628.43,508.63Z"/><path class="cls-5" d="M714,616.5v15c-.68,2.31-1.73,4.21-4.54,4.24-3.2-.11-3.2-.11-3.21-3.21,0-1.8,0-3.6,0-5-.13-.73-.64-.33-.32-.41.08,0,.32.09.31.18-.31,4.74.7,9.43.54,14.16-.18,4.24-1.68,5-7.69,6.14l-21.88-.33c-4.42-1-5.43-1.71-5.93-5.27-.25-4.92.86-9.78.49-14.59v5.1c0,3.12,0,3.12-3.21,3.22-2.82,0-3.86-1.94-4.54-4.24v-15c.37-2.9,2.24-4.29,4.9-4.83a1.85,1.85,0,0,0,1.64-2.09c.05-2.07-.08-4.15.11-6.21.36-3.91,1.68-5.46,5.35-6.37h26c3.35.42,4.69,2.67,5.2,5.68a39.6,39.6,0,0,1,.23,6.44c0,1.39.32,2.34,1.92,2.64A5.23,5.23,0,0,1,714,616.5Z"/><path class="cls-1" d="M689.2,625.62c3.81,0,7.62,0,11.43,0,1.39,0,2.07.16,2,1.84-.13,4.14-.08,8.28,0,12.42,0,2-.72,2.86-2.78,2.84-7.13-.07-14.25-.06-21.38,0-1.87,0-2.73-.7-2.7-2.63,0-4.22.07-8.45,0-12.67,0-1.39.35-1.83,1.78-1.8C681.41,625.68,685.3,625.62,689.2,625.62Z"/><path class="cls-1" d="M672,642.15c-.8-1.46-.4-3-.37-4.56,0-1.68-.12-2.9-2.28-2.5a1.43,1.43,0,0,1-1.34-.45c3.54,0,3.54,0,3.54-3.66a16.39,16.39,0,0,1,.45-4.66Z"/><path class="cls-1" d="M710.18,634.65c-3.84,0-4,2.46-3.67,5.37a2.77,2.77,0,0,1-.51,1.65V626.31h0V631C706.64,634.63,706.64,634.63,710.18,634.65Z"/><path class="cls-6" d="M689.22,633.14c-2.64,0-5.29-.11-7.93,0-1.62.08-1.66-.72-1.64-1.93s0-2,1.63-2q7.92.15,15.86,0c1.64,0,1.62.82,1.64,2s0,2-1.63,1.94C694.51,633,691.86,633.14,689.22,633.14Z"/><path class="cls-11" d="M686.23,638.94c-1.57,0-3.15-.11-4.71,0s-1.86-.58-1.9-2,.38-2,1.93-1.92c3.3.13,6.61.12,9.91,0,1.61,0,1.67.73,1.66,2s-.08,2.09-1.68,2S688,638.94,686.23,638.94Z"/><path class="cls-5" d="M662.78,464.31c1.3-.42,1.61-1.74,2.32-2.66,3.26-4.23,7.2-7.51,12.36-9.1,4.62-1.42,7.44-.08,9.4,4.3.24.53.44,1.07.68,1.6,2,4.3,4.71,5.87,9.16,4.34,7.14-2.46,10.39.58,11.95,7.53a27,27,0,0,1-1,14.4c-.16.49-.76,1-.14,1.55l-.86,1.8c-1.54,2.13-3,4.31-5.74,5.14-3.14,1-5.05.37-6.69-2.5a25,25,0,0,1-2.71-6.12c-1.64-6.47-11.49-11.21-17.56-8.41a25.31,25.31,0,0,1-5,1.43c-5.7,1.28-9.34-2.49-8-8.23a12.21,12.21,0,0,0,.79-2.82Z"/><path class="cls-8" d="M720.9,451.32a3.4,3.4,0,0,1-.79,3.64c-2.93,3.66-7.59,4.7-12.39,2.71a25.42,25.42,0,0,0-5.13-1.87c-2.77-.5-5.31-.21-7.05,2.36-.79,1.17-1.79,1.54-2.93.65s-.84-2-.09-3.06c2.49-3.55,7.2-4.92,12.06-3.39,1.51.46,3,1.07,4.43,1.66,3.84,1.53,5.79,1.05,8.51-2.09a18.32,18.32,0,0,1,1.58-1.47Z"/><path class="cls-1" d="M675.12,469.64c-1.45-.35-2-1.09-1-2.44s.74-2.26-.9-2.72-1.47-1.31-.86-2.62,1.36-1.51,2.46-.74c1.4,1,2.27.55,2.7-1s1.31-1.39,2.57-.82,1.87,1.25.91,2.56-.48,2.24,1,2.69,1.29,1.29.74,2.45-1.13,1.78-2.38.91-2.27-.71-2.73.93S676.34,470.6,675.12,469.64Z"/><path class="cls-1" d="M701.45,473.49c1.58.48,3,1.12,2.57,3.18a2.06,2.06,0,0,1-2.29,1.77,10.16,10.16,0,0,1-2.66-1.11,1.27,1.27,0,0,1-.48-1,4.11,4.11,0,0,1,1.1-2.38A1.77,1.77,0,0,1,701.45,473.49Z"/><path class="cls-1" d="M698.86,476.64l.21.69c0,1.95-.89,3.31-3,2.86s-2.23-2.1-1.51-3.87C696.65,474.44,697.52,474.5,698.86,476.64Z"/><path class="cls-1" d="M697.43,470.38c.87-1.54,2.11-2.45,3.78-1.38s1.39,2.43.46,3.85a3.3,3.3,0,0,1-2.68.87C697.37,473.12,697.17,471.86,697.43,470.38Z"/><path class="cls-1" d="M695.24,474.93c-1.23.17-2.25-.07-2.68-1.41a2.28,2.28,0,0,1,.83-2.62c1.29-1,2.44-.34,3.53.46C698.05,473.72,697.73,474.4,695.24,474.93Z"/><path class="cls-14" d="M695.24,474.93c1.75-.62,2.37-1.79,1.68-3.57l.51-1a3.31,3.31,0,0,0,1.72,3,1,1,0,0,1,1.12.65l-1.41,2.58a2.87,2.87,0,0,0-4.26-.32Z"/><path class="cls-15" d="M700.27,474.06l-1.12-.65,2.52-.56-.22.64Z"/><path class="cls-8" d="M707.63,537a3.75,3.75,0,0,0,.24-1c-.31-5.87,2-10.64,6.4-14.59L715.6,537Z"/><path class="cls-10" d="M704.84,510.15c1,5.27,3.4,6.93,9.2,6.63a63.89,63.89,0,0,1-12.25,12.33,4.54,4.54,0,0,1-.63.41c-1.23.59-2.49,1.73-3.87.72s-.82-2.59-.58-3.93a24.12,24.12,0,0,1,2.18-6A63.94,63.94,0,0,1,704.84,510.15Z"/><path class="cls-8" d="M701.15,487.74c1.48-.42,2.57.3,3.55,1.24,4.29,4.13,7.15,9.24,9.87,14.44.26.49.09.76-.47.77-4-1.51-6.69-.23-9.33,4.56A59.8,59.8,0,0,1,700.2,492,5.84,5.84,0,0,1,701.15,487.74Z"/><path class="cls-10" d="M716.27,505.62c.21-.7.77-.5,1.22-.42,5.21.88,10.4,1.87,15.22,4.15,1.58.75,3.45,1.48,3.37,3.8-2.27,2.55-5.46,2.56-8.44,2.89a71.82,71.82,0,0,1-12.47.1c1.55-1.59,3-3,3.05-5.19S718,507,716.27,505.62Z"/><path class="cls-12" d="M711.52,514.08a4,4,0,0,1-3.75-3.87,3.84,3.84,0,1,1,7.68.18A4,4,0,0,1,711.52,514.08Z"/><path class="cls-16" d="M727.41,590a.22.22,0,0,1,.08.2,1.81,1.81,0,0,1-2.4,0l.06-.22Z"/><path class="cls-10" d="M725.09,590h2.4a5.15,5.15,0,0,1,0,10,7.61,7.61,0,0,0-3.46,1.57,62.46,62.46,0,0,0-7.29,5.9c-.48.47-.74.46-1.17,0-.66-.75-1.8-1.36-2-2.18s1.08-1.51,1.69-2.27c1.87-2.3,3.62-4.69,5.35-7.1a2.81,2.81,0,0,0,.48-1.5A4.93,4.93,0,0,1,725.09,590Z"/><path class="cls-10" d="M729.46,608.22a3.67,3.67,0,0,1-1.08,2.58c-.87.91-1.81,1.74-2.63,2.68-.66.76-1,.14-1.36-.23s-.76-.71-.13-1.27a33.68,33.68,0,0,0,2.39-2.39c.93-1,1-1.88.25-2.62s-1.77-.77-2.76.19c-1.67,1.63-3.3,3.3-5,4.94a8.65,8.65,0,0,1-3.6,2.41,3.78,3.78,0,0,1-4.71-2,4.44,4.44,0,0,1,1.68-5.08c.64-.38.78.26,1.06.51s.86.43.38,1c-.2.22-.42.41-.61.63-.64.74-1.09,1.56-.4,2.47s1.62.69,2.5.3a7.28,7.28,0,0,0,2.18-1.64c1.74-1.74,3.45-3.51,5.24-5.21a3.82,3.82,0,0,1,5.5,0A3.51,3.51,0,0,1,729.46,608.22Z"/><path class="cls-1" d="M730,595a5.49,5.49,0,0,1-.13,1c-.2.68-.45,1.49-1.11,1.72s-.89-.61-1.29-1c-1.2-1.15-2.34-2.37-3.55-3.51-.47-.45-.36-.72.09-1a3.65,3.65,0,0,1,3.88-.45A3.59,3.59,0,0,1,730,595Z"/><path class="cls-1" d="M722.87,599.52a4.86,4.86,0,0,1-2.46,2.58,1.12,1.12,0,0,1-1-.6.88.88,0,0,1,.08-1.15c.51-.55,1-1.07,1.59-1.59a.94.94,0,0,1,1.16-.12A1.16,1.16,0,0,1,722.87,599.52Z"/><path class="cls-16" d="M738.14,492.93a.22.22,0,0,1-.21,0,1.8,1.8,0,0,1,.67-2.3l.19.12Z"/><path class="cls-10" d="M738.6,490.65l-.67,2.3a5.15,5.15,0,0,1-9.63-2.85,7.57,7.57,0,0,0-.51-3.76,63,63,0,0,0-3.56-8.68c-.32-.59-.23-.84.35-1.11.91-.42,1.82-1.34,2.66-1.26s1.14,1.46,1.68,2.26c1.68,2.45,3.46,4.82,5.27,7.16a2.86,2.86,0,0,0,1.3.9A4.89,4.89,0,0,1,738.6,490.65Z"/><path class="cls-10" d="M719.92,489.62a3.64,3.64,0,0,1-2.16-1.78c-.62-1.09-1.15-2.23-1.82-3.29-.54-.85.14-.95.61-1.23s.9-.53,1.25.24c.47,1,1.05,2,1.61,3,.68,1.18,1.51,1.5,2.44,1s1.24-1.47.61-2.69c-1.08-2.07-2.22-4.12-3.32-6.18a8.62,8.62,0,0,1-1.27-4.13,3.79,3.79,0,0,1,3.26-3.95,4.46,4.46,0,0,1,4.39,3.07c.18.72-.48.67-.8.87s-.65.7-1,.08c-.16-.25-.28-.51-.44-.76-.52-.82-1.17-1.49-2.24-1.09s-1.13,1.35-1,2.31a7.43,7.43,0,0,0,1,2.56c1.16,2.17,2.37,4.31,3.48,6.51a3.82,3.82,0,0,1-1.61,5.26A3.51,3.51,0,0,1,719.92,489.62Z"/><path class="cls-1" d="M732.42,493.89a5.6,5.6,0,0,1-.9-.4c-.6-.39-1.31-.86-1.33-1.56s.84-.68,1.32-.95c1.44-.82,2.93-1.57,4.38-2.39.56-.33.79-.15,1,.38a3.67,3.67,0,0,1-.69,3.84A3.56,3.56,0,0,1,732.42,493.89Z"/><path class="cls-1" d="M730.14,485.8a4.91,4.91,0,0,1-1.77-3.09,1.14,1.14,0,0,1,.87-.81.87.87,0,0,1,1.08.41c.38.64.73,1.31,1.07,2a.93.93,0,0,1-.22,1.14A1.18,1.18,0,0,1,730.14,485.8Z"/><path class="cls-10" d="M700.44,660c-.17,0-.42,0-.67,0H689.5c-.43,0-1,.08-.82-.59s-.74-1.72.53-2c.53-.12.59-.36.66-.75.19-1.19.36-2.39.58-3.58a2.33,2.33,0,0,1,2.67-2.23h3a2.33,2.33,0,0,1,2.69,2.21c.18.89.26,1.8.47,2.68.16.68-.2,1.77,1.15,1.69A4.45,4.45,0,0,1,700.44,660Z"/><path class="cls-6" d="M696.31,661a15.17,15.17,0,0,1,1.85.16c.46.09.25.55.26.84,0,1.08,0,2.16,0,3.24,0,.75-.3,1.29-1.11,1.29s-1.05-.51-1.06-1.2c0-1.17,0-2.34,0-3.5C696.26,661.57,696.29,661.36,696.31,661Z"/><path class="cls-12" d="M690.69,661.12c2.34-.08,2.34-.08,2.32,2,0,.69,0,1.38,0,2.08s-.3,1.29-1.13,1.27-1-.53-1-1.23C690.79,663.87,690.74,662.49,690.69,661.12Z"/><path class="cls-8" d="M759.93,542.14c.86,3.38,1.69,6.76,2.59,10.12.23.85.16,1.24-.81,1.48-4.5,1.08-9,2.24-13.46,3.4-.74.2-1.18.15-1.28-.71a.74.74,0,0,0-.67-.74c-.79-.18-.94-1.28-.58-1.51.85-.52.41-1,.28-1.56q-1.62-6.52-3.31-13c-.13-.51,0-1.35-1-1.16-.06,0-.18-.1-.2-.17-.11-.41-.2-.83-.3-1.24,1.37-.32-.48-2.26,1.58-2.63,4.36-.78,8.63-2,12.91-3.21,1.2-.33,1.52,0,1.78,1.12C758.22,535.59,759.1,538.86,759.93,542.14Z"/><path class="cls-1" d="M746.07,545.68c-.72-2.82-1.4-5.64-2.17-8.44-.23-.84-.09-1.16.79-1.37q5.07-1.22,10.11-2.57c.76-.2,1.08-.08,1.28.73q2.11,8.54,4.32,17c.2.77.08,1.09-.73,1.28-3.38.82-6.75,1.66-10.11,2.58-1,.27-1.2-.11-1.4-.93C747.5,551.22,746.77,548.45,746.07,545.68Z"/><path class="cls-12" d="M747.33,543.43c-.44-1.71-.84-3.43-1.32-5.13-.18-.66,0-.93.65-1.09,2.37-.57,4.72-1.17,7.08-1.8.59-.15.85,0,1,.6q1.32,5.28,2.68,10.54c.15.58,0,.88-.58,1-2.37.58-4.73,1.17-7.08,1.8-.67.18-.94,0-1.09-.68C748.24,546.94,747.78,545.19,747.33,543.43Z"/><path class="cls-17" d="M754.06,551.92a.84.84,0,0,1-1-.75.79.79,0,0,1,.78-1,.77.77,0,0,1,.92.67A.84.84,0,0,1,754.06,551.92Z"/><path class="cls-17" d="M757.64,551c-.6.1-1-.14-1.1-.66a.85.85,0,0,1,1.65-.42A.84.84,0,0,1,757.64,551Z"/><path class="cls-1" d="M754.3,541.8c.29,1.15.56,2.31.89,3.46.17.6,0,.86-.6,1-1.21.27-2.41.57-3.6.92-.62.18-.84,0-1-.62-.58-2.36-1.17-4.72-1.8-7.07-.15-.59,0-.86.6-1,1.21-.26,2.41-.57,3.6-.91.63-.18.85,0,1,.62C753.67,539.4,754,540.59,754.3,541.8Z"/><path class="cls-5" d="M750.93,606.68c.68-.55,1.4-1.08,2.05-1.67a5.42,5.42,0,0,1,4.24-1.84,2.9,2.9,0,0,0,1.78-.56,1.92,1.92,0,0,1,2.7.33,65.3,65.3,0,0,1,4.42,4.85,1.85,1.85,0,0,1,.35,1.89,5.23,5.23,0,0,1-.58,1.39c-2.47,3.39-4.9,6.87-8.8,8.79-1.53.76-3,1.58-4.62,2.21-2.12.83-2.87.62-4.21-1.17-1.09-1.45-2.1-2.94-3.13-4.43a2,2,0,0,1,.22-2.83,2.51,2.51,0,0,0,.79-1.27c.26-2.32,2-3.48,3.61-4.73C750.15,607.33,750.53,607,750.93,606.68Z"/><path class="cls-1" d="M757.37,614.69c-1,.8-2,1.58-2.94,2.39-.45.38-.77.53-1.22-.05-1.13-1.46-2.3-2.9-3.49-4.31-.4-.48-.33-.76.12-1.13q3.1-2.48,6.18-5c.46-.39.75-.34,1.12.13,1.14,1.46,2.31,2.89,3.5,4.31.39.47.34.76-.13,1.13C759.45,613,758.41,613.84,757.37,614.69Z"/><path class="cls-1" d="M749.59,617.89c-.55-.06-1.33.37-2-.32a1.78,1.78,0,0,1,.25-2.26,1.62,1.62,0,0,1,2.13.21A1.8,1.8,0,0,1,749.59,617.89Z"/><path class="cls-1" d="M760.43,607.11a.77.77,0,0,1,1.15.18.67.67,0,0,1-.15,1,.7.7,0,0,1-1.09-.1A.78.78,0,0,1,760.43,607.11Z"/><path class="cls-1" d="M761.28,604.41a.74.74,0,0,1-.15,1.1.75.75,0,0,1-1.09-.21.7.7,0,0,1,.16-1A.72.72,0,0,1,761.28,604.41Z"/><path class="cls-18" d="M778.65,627.65A27.41,27.41,0,0,1,784,644.44c-.06,1.93-.6,13.66-8.5,18.56-7.73,4.79-17.94.23-19.33,3.7-.85,2.12,2.71,4.42,1.86,5.92-1.4,2.46-24.86.56-21.68-5.18,10.52-19,8.7-18.39,11.21-17.77,1.67.41.26,5.27,3.29,7.53,4,3,13.77-.12,15.49-5.39,1.53-4.68-4.31-7.9-3.46-13.09C763.69,633.7,770.22,630.18,778.65,627.65Z"/><path class="cls-18" d="M623.23,616a27.5,27.5,0,0,1-17.59,1.25c-1.85-.51-13.12-3.8-16-12.62-2.84-8.64,4-17.49.94-19.66-1.86-1.33-4.93,1.6-6.18.42-2.07-1.94,5.28-24.3,10.12-19.86,16,14.68,15.83,12.77,14.64,15.07-.79,1.53-5.18-1-8.1,1.43-3.86,3.21-3.11,13.41,1.61,16.32,4.19,2.59,8.69-2.34,13.54-.29C620.85,600,622.74,607.21,623.23,616Z"/><path class="cls-18" d="M720.15,430.19a27.48,27.48,0,0,1,15.8-7.8c1.91-.23,13.59-1.45,19.62,5.62s2.93,17.7,6.57,18.56c2.22.52,4-3.35,5.56-2.73,2.65,1,4.3,24.49-1.86,22.21-20.33-7.55-19.48-5.84-19.25-8.42.15-1.71,5.17-1,6.95-4.39,2.37-4.42-2.18-13.58-7.65-14.49-4.86-.81-7.17,5.45-12.43,5.38C728.38,444.07,723.92,438.15,720.15,430.19Z"/><rect class="cls-19" x="954" y="613" width="220" height="70"/><path class="cls-2" d="M1021.24,634.47h5.28l1.58,10.66c.3,2.4.63,4.81.93,7.21h.14c.45-2.4.91-4.84,1.36-7.21l2.46-10.66h4.37l2.45,10.66c.46,2.32.92,4.78,1.37,7.21h.14l.92-7.21,1.59-10.66h4.92l-4,22.82h-6.49L1036,646.92c-.36-1.76-.66-3.59-.91-5.29h-.14c-.28,1.7-.56,3.53-.93,5.29l-2.16,10.37h-6.37Z"/><path class="cls-2" d="M1050.49,648.61c0-5.77,4.06-9.11,8.46-9.11s8.46,3.34,8.46,9.11-4.07,9.1-8.46,9.1S1050.49,654.37,1050.49,648.61Zm11.64,0c0-3-1.05-5-3.18-5s-3.19,2-3.19,5,1.06,4.95,3.19,4.95S1062.13,651.62,1062.13,648.61Z"/><path class="cls-2" d="M1069.92,648.61c0-5.77,4.06-9.11,8.46-9.1s8.45,3.33,8.45,9.11-4.06,9.09-8.45,9.09S1069.92,654.38,1069.92,648.61Zm11.64,0c0-3-1.06-5-3.18-5s-3.19,2-3.19,5,1.06,4.95,3.19,4.95S1081.56,651.62,1081.56,648.62Z"/><path class="cls-2" d="M1089.46,648.62c0-5.68,3.55-9.11,7.2-9.11a5.71,5.71,0,0,1,4.26,1.81l-.18-2.63v-5.92h5.14v24.52h-4.2l-.37-1.72h-.13a6.84,6.84,0,0,1-4.62,2.14C1092.25,657.71,1089.46,654.29,1089.46,648.62Zm11.27,3.33v-7.13a4.17,4.17,0,0,0-2.87-1.1c-1.67,0-3.13,1.54-3.13,4.84s1.18,4.94,3.17,4.94A3.29,3.29,0,0,0,1100.73,652Z"/><rect class="cls-3" x="934" y="613" width="20" height="70"/><rect class="cls-19" x="954" y="513" width="220" height="70"/><path class="cls-2" d="M1018.81,534.08h5.37l3.53,10.14c.44,1.35.82,2.81,1.25,4.21h.14c.43-1.4.8-2.86,1.24-4.21l3.42-10.14h5.37V556.9h-4.48v-8.37c0-2.23.39-5.55.63-7.75h-.14l-1.78,5.39-3.08,8.74h-2.73l-3.08-8.74-1.74-5.4h-.13c.23,2.21.63,5.53.63,7.76v8.37h-4.41Z"/><path class="cls-2" d="M1042.88,548.22c0-5.63,3.84-9.11,7.82-9.11,4.72,0,7,3.6,7,8.34a12.56,12.56,0,0,1-.2,2.27h-9.91a4,4,0,0,0,4.29,3.68,6.69,6.69,0,0,0,3.59-1.14l1.62,3.11a10.45,10.45,0,0,1-5.88,2C1046.54,557.32,1042.88,554,1042.88,548.22Zm10.68-1.9c0-1.91-.79-3.28-2.75-3.28-1.55,0-2.89,1.09-3.23,3.28Z"/><path class="cls-2" d="M1061.45,550.59v-7h-2.26v-3.84l2.54-.19.57-4.62h4.06v4.62h4v4h-4v7c0,2,.85,2.76,2.14,2.76a4.88,4.88,0,0,0,1.58-.33l.77,3.73a11.23,11.23,0,0,1-3.68.63C1063.08,557.32,1061.45,554.61,1061.45,550.59Z"/><path class="cls-2" d="M1072.13,552.09c0-3.66,2.78-5.64,9.33-6.37a2.35,2.35,0,0,0-2.62-2.51,8.89,8.89,0,0,0-4.38,1.57l-1.74-3.38a13.14,13.14,0,0,1,7.07-2.28c4.24,0,6.58,2.53,6.58,7.86v9.92h-4l-.36-1.77h-.12a7.12,7.12,0,0,1-4.82,2.19A4.89,4.89,0,0,1,1072.13,552.09Zm9.33-.23v-3c-3.49.49-4.63,1.53-4.63,2.85,0,1.12.74,1.66,1.9,1.66A3.68,3.68,0,0,0,1081.46,551.86Z"/><path class="cls-2" d="M1090.49,551.51V532.38h4.9v19.34c0,1.1.49,1.45.89,1.45a2,2,0,0,0,.6-.07l.58,3.8a6.09,6.09,0,0,1-2.46.43C1091.64,557.33,1090.49,555,1090.49,551.51Z"/><path class="cls-2" d="M1098.58,554.9l2.2-3.2a7,7,0,0,0,4.28,1.82c1.46,0,2.09-.58,2.09-1.49,0-1.15-1.64-1.67-3.35-2.37-2-.82-4.38-2.23-4.38-5.1,0-3.24,2.51-5.44,6.33-5.44a9.19,9.19,0,0,1,5.84,2.2l-2.2,3.09a6,6,0,0,0-3.49-1.48c-1.27,0-1.89.52-1.89,1.38,0,1.11,1.55,1.53,3.27,2.19,2.1.81,4.46,2,4.46,5.23s-2.37,5.6-6.81,5.6A10.44,10.44,0,0,1,1098.58,554.9Z"/><rect class="cls-3" x="934" y="513" width="20" height="70"/><rect class="cls-19" x="954" y="413" width="220" height="70"/><path class="cls-2" d="M1007.62,434.69h7.83c5,0,9.07,1.79,9.07,7.34,0,5.36-4.09,7.73-8.93,7.73h-2.82v7.74h-5.16Zm7.67,11c2.83,0,4.18-1.26,4.18-3.63s-1.53-3.25-4.32-3.25h-2.38v6.88Z"/><path class="cls-2" d="M1028.06,452.11V433h5.15v19.34c0,1.1.51,1.45.93,1.45a2.23,2.23,0,0,0,.63-.07l.62,3.79a6.51,6.51,0,0,1-2.58.43C1029.27,457.93,1028.06,455.63,1028.06,452.11Z"/><path class="cls-2" d="M1037.27,452.7c0-3.66,2.91-5.64,9.78-6.37a2.42,2.42,0,0,0-2.75-2.51,9.5,9.5,0,0,0-4.59,1.57l-1.83-3.38a14.19,14.19,0,0,1,7.42-2.28c4.44,0,6.9,2.53,6.9,7.86v9.92H1048l-.37-1.78h-.13a7.6,7.6,0,0,1-5,2.2A5,5,0,0,1,1037.27,452.7Zm9.78-.23v-3c-3.66.5-4.85,1.54-4.85,2.86,0,1.12.77,1.66,2,1.66A3.91,3.91,0,0,0,1047.05,452.47Z"/><path class="cls-2" d="M1055,455.51l2.31-3.21a7.54,7.54,0,0,0,4.48,1.83c1.53,0,2.19-.59,2.19-1.5,0-1.14-1.72-1.66-3.5-2.36-2.13-.82-4.6-2.24-4.6-5.11,0-3.23,2.63-5.43,6.64-5.43a9.85,9.85,0,0,1,6.12,2.2l-2.31,3.09a6.41,6.41,0,0,0-3.65-1.48c-1.33,0-2,.52-2,1.38,0,1.11,1.63,1.53,3.43,2.19,2.2.81,4.68,2.05,4.68,5.22s-2.48,5.6-7.14,5.6A11.24,11.24,0,0,1,1055,455.51Z"/><path class="cls-2" d="M1072,451.2v-7h-2.37v-3.84l2.66-.2.6-4.61h4.26v4.61h4.16v4h-4.17v6.95c0,2,.9,2.76,2.25,2.76a5.32,5.32,0,0,0,1.65-.33l.81,3.74a12.28,12.28,0,0,1-3.86.63C1073.72,457.94,1072,455.23,1072,451.2Z"/><path class="cls-2" d="M1084.32,434.92a3,3,0,1,1,3,2.69A2.74,2.74,0,0,1,1084.32,434.92Zm.4,5.23h5.14v17.37h-5.14Z"/><path class="cls-2" d="M1093.38,448.84a8.75,8.75,0,0,1,9-9.11,7.57,7.57,0,0,1,5.07,1.87l-2.43,3.31a3.52,3.52,0,0,0-2.35-1c-2.48,0-4.06,2-4.06,5s1.65,5,3.88,5a5.26,5.26,0,0,0,3.14-1.28l2,3.36a8.68,8.68,0,0,1-5.72,2.07C1097.12,457.94,1093.38,454.6,1093.38,448.84Z"/><path class="cls-2" d="M1109.21,455.51l2.32-3.2a7.49,7.49,0,0,0,4.48,1.82c1.53,0,2.19-.58,2.19-1.49,0-1.14-1.72-1.66-3.51-2.36-2.12-.83-4.59-2.24-4.59-5.11,0-3.23,2.63-5.44,6.64-5.44a9.91,9.91,0,0,1,6.12,2.2l-2.31,3.09a6.48,6.48,0,0,0-3.65-1.48c-1.33,0-2,.52-2,1.39,0,1.11,1.63,1.53,3.43,2.18,2.2.82,4.67,2.06,4.67,5.23s-2.48,5.6-7.13,5.6A11.24,11.24,0,0,1,1109.21,455.51Z"/><rect class="cls-3" x="934" y="413" width="20" height="70"/><rect class="cls-19" x="192" y="413" width="220" height="70"/><path class="cls-2" d="M234.79,434.52h7.81c4.73,0,8.41,1.31,8.41,5.66a5.27,5.27,0,0,1-3,4.93v.14a5.19,5.19,0,0,1,4.13,5.37c0,4.64-3.92,6.72-8.88,6.72h-8.46Zm8,18.84c2.81,0,4.26-1,4.26-3.08s-1.43-2.81-4.26-2.81H240v5.89Zm-.47-9.7c2.5,0,3.61-1.06,3.61-2.71s-1.17-2.45-3.57-2.45H240v5.16Z"/><path class="cls-2" d="M254.75,452.52c0-3.66,2.91-5.64,9.78-6.36a2.42,2.42,0,0,0-2.75-2.51,9.54,9.54,0,0,0-4.6,1.57l-1.82-3.38a14.13,14.13,0,0,1,7.41-2.29c4.44,0,6.9,2.54,6.9,7.86v9.93h-4.2l-.37-1.78H265a7.6,7.6,0,0,1-5.05,2.2A5,5,0,0,1,254.75,452.52Zm9.77-.23v-3c-3.66.49-4.86,1.54-4.86,2.85,0,1.12.77,1.67,2,1.67A3.87,3.87,0,0,0,264.52,452.29Z"/><path class="cls-2" d="M274.06,451v-7h-2.37v-3.84l2.66-.19.6-4.62h4.26V440h4.16v4h-4.16v7c0,2,.89,2.76,2.25,2.76a5.32,5.32,0,0,0,1.65-.33l.81,3.73a12.33,12.33,0,0,1-3.86.63C275.77,457.76,274.06,455.05,274.06,451Z"/><path class="cls-2" d="M286.76,451v-7h-2.37v-3.84l2.66-.19.6-4.62h4.26V440h4.16v4h-4.16v7c0,2,.9,2.76,2.25,2.76a5.26,5.26,0,0,0,1.65-.33l.81,3.73a12,12,0,0,1-3.86.63C288.46,457.76,286.76,455.05,286.76,451Z"/><path class="cls-2" d="M297.82,448.67c0-5.64,4-9.11,8.19-9.11,4.95,0,7.4,3.6,7.4,8.33a11.49,11.49,0,0,1-.22,2.28H302.8a4.19,4.19,0,0,0,4.51,3.67,7.29,7.29,0,0,0,3.75-1.13l1.7,3.1a11.29,11.29,0,0,1-6.16,2C301.65,457.76,297.82,454.42,297.82,448.67Zm11.19-1.9c0-1.91-.83-3.29-2.88-3.29-1.63,0-3,1.09-3.38,3.28Z"/><path class="cls-2" d="M316.94,440h4.2l.37,3h.13c1.27-2.32,3.16-3.46,4.93-3.46a4.91,4.91,0,0,1,2.08.35l-.86,4.44a7.21,7.21,0,0,0-1.88-.28c-1.31,0-2.9.85-3.82,3.21v10.07h-5.15Z"/><path class="cls-2" d="M330.48,434.75a3,3,0,1,1,3,2.69A2.74,2.74,0,0,1,330.48,434.75Zm.4,5.23H336v17.37h-5.15Z"/><path class="cls-2" d="M339.55,448.67c0-5.63,4-9.11,8.19-9.11,4.95,0,7.39,3.6,7.39,8.34a11.53,11.53,0,0,1-.21,2.27H344.53a4.2,4.2,0,0,0,4.51,3.68,7.22,7.22,0,0,0,3.75-1.14l1.7,3.1a11.23,11.23,0,0,1-6.16,2C343.38,457.77,339.55,454.42,339.55,448.67Zm11.19-1.9c0-1.91-.83-3.28-2.89-3.28-1.62,0-3,1.09-3.38,3.28Z"/><path class="cls-2" d="M357.13,455.34l2.32-3.2a7.49,7.49,0,0,0,4.48,1.82c1.53,0,2.19-.58,2.19-1.49,0-1.14-1.72-1.66-3.51-2.36-2.12-.82-4.59-2.24-4.59-5.11,0-3.23,2.63-5.43,6.64-5.43a9.85,9.85,0,0,1,6.12,2.2l-2.31,3.09a6.43,6.43,0,0,0-3.65-1.49c-1.33,0-2,.52-2,1.39,0,1.11,1.63,1.53,3.43,2.18,2.2.82,4.67,2.06,4.67,5.23s-2.48,5.6-7.13,5.6A11.24,11.24,0,0,1,357.13,455.34Z"/><rect class="cls-3" x="412" y="413" width="20" height="70"/><rect class="cls-19" x="192" y="613" width="220" height="70"/><path class="cls-2" d="M241.16,634.64h5.63l3.7,10.14c.46,1.34.86,2.81,1.31,4.21h.14c.46-1.4.85-2.86,1.3-4.21l3.59-10.14h5.63v22.82h-4.7v-8.38c0-2.22.42-5.54.66-7.75h-.14l-1.87,5.4-3.23,8.74h-2.86l-3.23-8.74-1.82-5.4h-.14c.24,2.21.66,5.53.66,7.75v8.38h-4.63Z"/><path class="cls-2" d="M266.4,648.78c0-5.63,4-9.11,8.19-9.11,5,0,7.4,3.6,7.4,8.34a12.46,12.46,0,0,1-.21,2.27H271.39a4.19,4.19,0,0,0,4.5,3.68,7.25,7.25,0,0,0,3.76-1.14l1.7,3.1a11.34,11.34,0,0,1-6.16,2C270.23,657.88,266.4,654.53,266.4,648.78Zm11.19-1.9c0-1.91-.83-3.29-2.88-3.29-1.63,0-3,1.09-3.38,3.29Z"/><path class="cls-2" d="M285.53,640.09h4.19l.37,3h.13c1.27-2.32,3.17-3.46,4.94-3.46a4.85,4.85,0,0,1,2.07.35l-.86,4.44a7.2,7.2,0,0,0-1.87-.28c-1.31,0-2.9.85-3.83,3.22v10.06h-5.15Z"/><path class="cls-2" d="M298.11,648.78a8.73,8.73,0,0,1,9-9.1,7.59,7.59,0,0,1,5.08,1.86l-2.43,3.31a3.53,3.53,0,0,0-2.36-1c-2.47,0-4.06,1.95-4.06,4.95s1.65,5,3.89,5a5.17,5.17,0,0,0,3.13-1.28l2,3.36a8.65,8.65,0,0,1-5.73,2.07C301.84,657.88,298.1,654.54,298.11,648.78Z"/><path class="cls-2" d="M315.31,650.88V640.1h5.15v10.12c0,2.5.67,3.28,2.16,3.28,1.29,0,2.08-.54,3.09-1.91V640.1h5.15v17.36h-4.19l-.38-2.41h-.12a6.8,6.8,0,0,1-5.46,2.83C316.92,657.88,315.31,655.22,315.31,650.88Z"/><path class="cls-2" d="M335.37,640.1h4.2l.37,3h.13c1.26-2.32,3.16-3.45,4.93-3.45a4.85,4.85,0,0,1,2.07.35l-.85,4.44a7.21,7.21,0,0,0-1.88-.28c-1.31,0-2.9.84-3.82,3.21v10.06h-5.15Z"/><path class="cls-2" d="M349,663.91l.91-3.93a4.85,4.85,0,0,0,1.17.23,3,3,0,0,0,3-2.28l.26-.91-6.7-16.92h5.17l2.48,7.47c.51,1.58.92,3.22,1.37,4.92h.14c.39-1.64.78-3.29,1.21-4.92l2.11-7.47h4.93l-6,17.56c-1.65,4.34-3.51,6.6-7.59,6.6A8,8,0,0,1,349,663.91Z"/><rect class="cls-3" x="412" y="613" width="20" height="70"/><rect class="cls-19" x="192" y="513" width="220" height="70"/><path class="cls-2" d="M194.23,546.12c0-7.57,5-12,10.77-12a9.64,9.64,0,0,1,6.86,3l-2.72,3.31a5.7,5.7,0,0,0-4-1.82c-3.12,0-5.59,2.76-5.6,7.33s2.19,7.42,5.52,7.42a6,6,0,0,0,4.46-2.13l2.72,3.23a9.35,9.35,0,0,1-7.36,3.35C199.06,557.81,194.23,553.8,194.23,546.12Z"/><path class="cls-2" d="M214.84,534.8a3,3,0,1,1,3,2.69A2.74,2.74,0,0,1,214.84,534.8Zm.4,5.23h5.15v17.36h-5.15Z"/><path class="cls-2" d="M224.92,540h4.19l.37,3h.13c1.27-2.32,3.16-3.45,4.94-3.45a4.89,4.89,0,0,1,2.07.35l-.86,4.44a7.2,7.2,0,0,0-1.87-.28c-1.31,0-2.9.84-3.83,3.21v10.06h-5.15Z"/><path class="cls-2" d="M237.49,548.72a8.75,8.75,0,0,1,9-9.11,7.56,7.56,0,0,1,5.08,1.87l-2.43,3.31a3.52,3.52,0,0,0-2.36-1c-2.47,0-4.06,2-4.06,5s1.65,4.94,3.89,4.94a5.17,5.17,0,0,0,3.13-1.28l2,3.37a8.66,8.66,0,0,1-5.72,2.07C241.23,557.82,237.49,554.48,237.49,548.72Z"/><path class="cls-2" d="M254.7,550.81V540h5.15v10.12c0,2.5.67,3.28,2.16,3.29,1.29,0,2.08-.55,3.09-1.91V540h5.14V557.4H266l-.37-2.41h-.12a6.8,6.8,0,0,1-5.46,2.83C256.31,557.82,254.7,555.15,254.7,550.81Z"/><path class="cls-2" d="M274.36,534.8a3,3,0,1,1,3,2.69A2.74,2.74,0,0,1,274.36,534.8Zm.4,5.23h5.15V557.4h-5.14Z"/><path class="cls-2" d="M285.13,551.09v-7h-2.37v-3.84l2.66-.2.6-4.61h4.26V540h4.16v4h-4.17v7c0,2,.9,2.75,2.25,2.75a5.26,5.26,0,0,0,1.65-.32l.81,3.73a12.28,12.28,0,0,1-3.86.63C286.83,557.82,285.13,555.11,285.13,551.09Z"/><path class="cls-2" d="M305.26,534.59h7.81c4.73,0,8.41,1.3,8.41,5.66a5.28,5.28,0,0,1-3,4.92v.14a5.21,5.21,0,0,1,4.13,5.37c0,4.65-3.92,6.72-8.88,6.72h-8.46Zm8,18.83c2.81,0,4.26-1,4.26-3.07s-1.43-2.82-4.26-2.82h-2.89v5.89Zm-.47-9.69c2.5,0,3.61-1.06,3.61-2.72s-1.17-2.44-3.58-2.44h-2.44v5.16Z"/><path class="cls-2" d="M325,548.73c0-5.77,4.06-9.11,8.46-9.11s8.45,3.34,8.45,9.11-4.06,9.1-8.46,9.1S325,554.49,325,548.73Zm11.64,0c0-3-1.06-5-3.19-5s-3.18,2-3.18,5,1.06,4.94,3.18,4.94S336.65,551.73,336.65,548.73Z"/><path class="cls-2" d="M344.26,552.59c0-3.66,2.91-5.64,9.78-6.36a2.42,2.42,0,0,0-2.75-2.51,9.55,9.55,0,0,0-4.59,1.56l-1.83-3.37a14.17,14.17,0,0,1,7.42-2.29c4.44,0,6.89,2.54,6.89,7.86v9.93H355l-.37-1.78h-.12a7.67,7.67,0,0,1-5.06,2.2A5,5,0,0,1,344.26,552.59Zm9.78-.23v-3c-3.66.49-4.86,1.54-4.86,2.85,0,1.12.77,1.67,2,1.67A3.94,3.94,0,0,0,354,552.36Z"/><path class="cls-2" d="M363.51,540h4.2l.37,3h.13c1.26-2.32,3.16-3.46,4.93-3.46a4.85,4.85,0,0,1,2.07.35l-.86,4.45a6.67,6.67,0,0,0-1.87-.29c-1.31,0-2.9.85-3.83,3.22v10.06h-5.14Z"/><path class="cls-2" d="M376.21,548.73c0-5.68,3.54-9.1,7.2-9.1a5.74,5.74,0,0,1,4.26,1.81l-.19-2.63v-5.92h5.15v24.52h-4.19l-.37-1.72h-.13a6.88,6.88,0,0,1-4.62,2.14C379,557.83,376.2,554.4,376.21,548.73Zm11.27,3.34v-7.14a4.23,4.23,0,0,0-2.87-1.1c-1.67,0-3.13,1.54-3.13,4.85s1.17,4.94,3.17,4.94A3.3,3.3,0,0,0,387.48,552.07Z"/><path class="cls-2" d="M395.61,555.41l2.32-3.21a7.54,7.54,0,0,0,4.48,1.83c1.53,0,2.19-.59,2.19-1.5,0-1.14-1.72-1.66-3.5-2.36-2.13-.82-4.6-2.24-4.6-5.11,0-3.23,2.63-5.43,6.64-5.43a9.85,9.85,0,0,1,6.12,2.2L407,544.92a6.43,6.43,0,0,0-3.65-1.49c-1.33,0-2,.52-2,1.39,0,1.11,1.63,1.53,3.43,2.19,2.2.81,4.68,2,4.68,5.22s-2.48,5.6-7.14,5.6A11.29,11.29,0,0,1,395.61,555.41Z"/><rect class="cls-3" x="412" y="513" width="20" height="70"/></svg>