<svg id="Layer_1" data-name="Layer 1" xmlns="http://www.w3.org/2000/svg" viewBox="0 0 1366 768"><defs><style>.cls-1{fill:#8a0000;}.cls-2{fill:#0b2e49;}.cls-3{fill:#8c0404;}.cls-4{fill:#941616;}.cls-5{fill:#8b0101;}.cls-6{fill:#931010;}.cls-7{fill:#8b0000;}.cls-8{fill:#8d0505;}.cls-9{fill:#8c0303;}.cls-10{fill:#8b0202;}.cls-11{fill:#900c0c;}.cls-12{fill:#951717;}.cls-13{fill:#981e1e;}.cls-14{fill:#910e0e;}.cls-15{fill:#019b00;}</style></defs><title>Recycle-africa</title><path class="cls-1" d="M690,369h60c6.2.8,9,4.69,10.13,10.55,3.81,20.06,8.27,40,9.87,60.45v2a4.07,4.07,0,0,1-3.86.1c-5-2.61-10.35-2.11-15.65-2.11q-31.49,0-63,0c-4.5,0-9-.16-13.17,2A4.6,4.6,0,0,1,670,442v-3c1.64-18.74,5.59-37.1,9.07-55.54.25-1.31.62-2.6.82-3.91C680.81,373.66,683.8,369.81,690,369Z"/><path class="cls-1" d="M762,469H678a9.38,9.38,0,0,1-8-8V450c2.36-7.29,5.54-9.86,13.46-9.91q36.49-.24,73,0c7.85.05,10.89,2.49,13.56,9.92v11A9.38,9.38,0,0,1,762,469Z"/><path class="cls-2" d="M770,442v8c-3.55-6.29-8.92-8.19-16.06-8.08q-33.93.51-67.87,0c-7.14-.11-12.54,1.75-16.07,8.08v-8a24.63,24.63,0,0,1,14.14-3.91q35.86.07,71.72,0"/><path class="cls-2" d="M670,461a26.88,26.88,0,0,0,8,8C670,469,670,469,670,461Z"/><path class="cls-2" d="M762,469a27.47,27.47,0,0,0,8-8C770,469,770,469,762,469Z"/><path class="cls-2" d="M720.06,426.22a33.62,33.62,0,0,1-21.4-6.54c-11.38-8.38-11.65-22.5-.68-31.36,11.86-9.57,32.36-9.52,44.14.1,10.76,8.78,10.56,22.64-.52,31.05A33.56,33.56,0,0,1,720.06,426.22Z"/><path class="cls-2" d="M752.88,449.85c3.55.4,5.53,2.37,5.4,5.9s-2.26,5.51-5.83,5.36-5.53-2.29-5.41-5.8S749.41,450,752.88,449.85Z"/><path class="cls-3" d="M719.93,407.23c-3.46-.35-7-1.07-7-5.35s3.49-5.23,6.9-5.5c4.15-.31,7.68,2.42,7.35,5.6C726.7,406.24,723.42,406.92,719.93,407.23Z"/><path class="cls-4" d="M701.66,399.15c.8,8.29,6.77,12.11,12.55,16.07C703.86,414.49,698.52,407.68,701.66,399.15Z"/><path class="cls-2" d="M719.49,416.44c-.7.14-1.17.38-1.45.24s-.39-.67-.57-1c.27-.1.62-.35.79-.26A7,7,0,0,1,719.49,416.44Z"/><path class="cls-5" d="M835,347c-3.68,6.33-9.36,7.86-16.36,7.77q-33.64-.4-67.28,0c-7,.08-12.67-1.46-16.36-7.78v-2c.76-1.38,2-1.45,3.43-1.5,9.78-.35,19.54-1.12,29.35-1,14.31.22,28.62.26,42.93,0,7.17-.14,14.2,1.48,21.36,1A2.91,2.91,0,0,1,835,345Z"/><path class="cls-6" d="M835,345c-1.8-1.11-3.8-1-5.81-1H740.81c-2,0-4-.11-5.81,1v-2c4-.58,8.18,1.22,12-1a4.73,4.73,0,0,1,3.31-.76q34.65.43,69.29,0A4.69,4.69,0,0,1,823,342c3.85,2.23,8,.43,12,1Z"/><path class="cls-7" d="M823,342a23.83,23.83,0,0,1-8.31,1q-29.65-.06-59.3,0a24,24,0,0,1-8.31-1c-3.06-1.17-4.21-3.61-4.22-6.65,0-14-.11-28,0-41.95,0-5.43,3.06-8,9.19-8.11,11-.12,22,0,33,0,10.66,0,21.31-.05,32,0,7.72.05,10.24,2.56,10.26,10.12,0,12.82,0,25.64,0,38.46C827.24,337.32,826.72,340.49,823,342Z"/><path class="cls-2" d="M785.19,293c10.16,0,20.32.08,30.47-.06,2.82,0,4.17.35,4.11,3.71-.21,11.66-.17,23.32,0,35,0,2.91-.93,3.65-3.71,3.64q-31-.15-61.95,0c-3.19,0-3.88-1.09-3.84-4,.15-11.49.18-23,0-34.48-.06-3.17,1-3.89,4-3.84C764.54,293.14,774.86,293,785.19,293Z"/><path class="cls-8" d="M783.83,319.06,778,323.3V301l16.27,15.21a14.24,14.24,0,0,1-2,.63c-5.69.44-5.62.4-3.53,5.53.49,1.2,2.71,2.78.06,4-2.84,1.34-2.25-1.57-3-2.68A33.52,33.52,0,0,1,783.83,319.06Z"/><path class="cls-7" d="M527,321H466q-7-1-8-8V229q1-7,8-8h61c7.34,2.61,9.56,5.55,9.9,13.56.24,5.81.11,11.64.06,17.45,0,2.72.65,4.76,3.16,6.22,3.33,1.92,4.66,5,4.41,8.84a49,49,0,0,0,0,7.47c.37,4.24-.94,7.54-4.79,9.57-2.24,1.17-2.76,3.05-2.77,5.38,0,6,.17,12-.08,17.95C536.56,315.45,534.34,318.39,527,321Z"/><path class="cls-2" d="M458,313a24.76,24.76,0,0,0,8,8C458,321,458,321,458,313Z"/><path class="cls-2" d="M466,221a25.05,25.05,0,0,0-8,8C458,221,458,221,466,221Z"/><path class="cls-2" d="M465.75,270.89c0-12,.12-24-.06-35.95-.07-4.45,1.47-6.29,6.08-6.23q21,.27,41.94,0c4.36-.05,5.9,1.76,5.89,5.95q-.12,36.45,0,72.9c0,3.92-1.46,5.74-5.61,5.7q-21.23-.19-42.44,0c-4.35.05-5.89-1.7-5.84-5.94C465.85,295.19,465.75,283,465.75,270.89Z"/><path class="cls-2" d="M527,228.86a2.53,2.53,0,0,1,2.93,2.63,2.69,2.69,0,0,1-5.38,0A2.39,2.39,0,0,1,527,228.86Z"/><path class="cls-9" d="M554.08,271c0,8.8.1,17.6-.09,26.4,0,1.52,1.65,4.41-2,4.46a5.21,5.21,0,0,1-5.54-4.05,13.33,13.33,0,0,1-.16-3.47q0-23.42,0-46.83a15.89,15.89,0,0,1,.45-4.42c.84-2.79,3.22-3.09,5.65-2.87,2.79.26,1.57,2.53,1.58,3.88C554.14,253,554.08,262,554.08,271Z"/><path class="cls-10" d="M489.61,287.44c-3.47-1-6-1.69-8.53-2.42-6.8-1.95-9.46-9.53-5.55-15.51.89-1.36,1.79-1.79,3.26-1.32s2.84.87,4.27,1.31c4,1.21,9.26,1.23,5.21,8.07C486.71,280.2,488.59,283.62,489.61,287.44Z"/><path class="cls-5" d="M479.19,249.8c4.63,1.28,8.48,2.16,12.19,3.43,3.54,1.22,3.32,4.65,3.6,7.54a9.81,9.81,0,0,1-2.66,8.23c-.53.53-13-2.78-13.29-3.47a1.69,1.69,0,0,1,.05-1.36C481.86,259.71,481.17,255.05,479.19,249.8Z"/><path class="cls-10" d="M506.15,292.18c-3.5-1-6.38-1.76-9.24-2.59-5.82-1.71-8.42-11.06-4.5-15.79,1.14-1.38,2.33-1,3.56-.64,3.65,1,7.28,2.18,11.39,3.43C503.88,281.51,504.58,286.69,506.15,292.18Z"/><path class="cls-10" d="M496.3,254.77c4.36,1.21,8.41,2,12.17,3.46s3.95,13.11.6,15.41c-1,.66-1.89.27-2.84,0-1.91-.55-3.8-1.22-5.74-1.65-3.66-.81-6.44-1.56-3.67-6.47C498.51,262.51,497.08,258.76,496.3,254.77Z"/><path class="cls-7" d="M614,476c-2.83-2-3.85-4.63-3.83-8.09.11-20.31,0-40.63.07-61,0-6.08,2-7.9,8.18-7.92q17,0,34,0c6,0,7.81,1.74,7.82,7.65,0,20.48-.06,41,.09,61.45A10.36,10.36,0,0,1,657,476Z"/><path class="cls-7" d="M622,376c3,2.69,5.57,14.76,3.65,18-1.27,2.15-3.64.75-5.49,1.06s-2.12-.77-2.2-2.35c-.15-2.77,1.29-6.25-.78-8.14-2.36-2.15-6-.75-9.16-.81-6.81-.15-13.64.09-20.46-.1-3.32-.1-4.31,1.2-4.3,4.38q.16,24.45,0,48.91c0,3.23,1,4.46,4.34,4.31,5-.21,10,.13,15-.12,3.13-.15,4.25,1,3.88,4a16.06,16.06,0,0,0,0,4c.44,3.17-.94,3.94-3.94,3.84-6.65-.21-13.31-.07-20-.06-4.48,0-6.78-2.15-6.77-6.7,0-21.13.06-42.26-.07-63.39,0-3,1.59-4.85,3.29-6.84Z"/><path class="cls-2" d="M618,435.23c0-8,.16-16-.07-24-.11-3.6,1.22-4.58,4.62-4.5q12.74.27,25.47,0c3.34-.07,4.76.85,4.73,4.46-.14,16.31-.1,32.62,0,48.94,0,2.84-.74,4.27-3.93,4.22q-13.49-.22-27,0c-3.19.05-3.93-1.27-3.88-4.18C618.1,451.88,618,443.55,618,435.23Z"/><path class="cls-2" d="M635.32,473.6c-1.86-.36-3.4-1.16-3.35-3.42a3,3,0,0,1,3-3.2,3.14,3.14,0,0,1,3.68,3.08C638.87,472.18,637.39,473.25,635.32,473.6Z"/><path class="cls-2" d="M635.07,404.19c-1.25-.43-3.67.81-3.45-1.5.15-1.68,2.46-1.16,3.85-1.1s3.64-.7,3.41,1.5C638.67,405,636.38,403.78,635.07,404.19Z"/><path class="cls-2" d="M600.52,450.47c-2.16-.36-3.48-1.57-3.19-3.66a3.14,3.14,0,0,1,3.85-2.86A3,3,0,0,1,604,447.3C604,449.54,602.43,450.31,600.52,450.47Z"/><path class="cls-2" d="M600.69,381.23c-1.27-.45-3.57.82-3.66-1.22-.1-2.39,2.33-1.61,3.78-1.7s3.66-.38,3.68,1.36C604.52,382.14,602,380.76,600.69,381.23Z"/><path class="cls-1" d="M656,373H618c-7.36-2.63-9.86-5.7-9.94-13.56q-.3-30.74,0-61.48c.11-9.8,5.58-14.86,15.47-15,8.33-.08,16.66-.06,25,0,3.3,0,5.51-.81,5.61-4.62.06-2.56,1.57-4.3,3.86-5.38h4c3,1.31,4,3.79,4,6.84.06,26.73.15,53.45,0,80.18C665.89,366.64,663,371.5,656,373Z"/><path class="cls-2" d="M636.73,323c-4.82,0-9.65-.14-14.46.05-3.08.12-4.58-.64-4.48-4.11.2-7.64.13-15.3,0-22.94,0-2.73.87-3.93,3.72-3.91,10.31.09,20.63.07,30.94,0,2.44,0,3.63.73,3.6,3.43q-.12,12,.12,24c.06,3-1.38,3.62-4,3.56C647.05,322.91,641.89,323,636.73,323Z"/><path class="cls-7" d="M552,177h48c7.51,1.93,10.52,5.56,10.91,13.8.33,7,.1,14,.1,21q0,23.47,0,46.93a52.89,52.89,0,0,1-.14,5.49c-.8,7.66-3.58,10.94-10.87,12.81H552c-7.9-2-10.87-5.41-10.94-13.61q-.27-36.39,0-72.78C541.13,182.41,544.1,179,552,177Z"/><path class="cls-2" d="M601,223.34c0,10-.13,20,.06,30,.07,3.55-1.2,4.6-4.64,4.57q-20.48-.22-41,0c-3.53,0-4.55-1.18-4.53-4.63q.21-30.21,0-60.44c0-3.34,1.16-4.32,4.34-4.29q20.71.16,41.45,0c3.21,0,4.4,1,4.34,4.35C600.85,203,601,213.18,601,223.34Z"/><path class="cls-2" d="M580.9,267.54c-.61,2.94-2.18,4.83-5.39,4.58-2.91-.23-4.54-2.06-4.42-4.91.12-3.14,2.15-4.75,5.24-4.58C579.25,262.8,580.58,264.76,580.9,267.54Z"/><path class="cls-2" d="M576,184.75c-1.16,0-2.33.07-3.49,0a2,2,0,0,1-2-1.83c-.1-1.47,1-2,2.26-2,1.83-.06,3.66-.07,5.49,0,1.46,0,3.43-.23,3.46,1.8,0,2.33-2,2.16-3.7,2.18h-2Z"/><path class="cls-1" d="M555,380H506a9.36,9.36,0,0,1-8-8V288q1-7,8-8h49c8.38,2.67,10,4.75,10,13.57q.06,36.44,0,72.86C565,375.25,563.38,377.33,555,380Z"/><path class="cls-7" d="M598,296v68c-.84,4.12-3.62,6.45-7.25,8.15A86,86,0,0,1,567,379.27c-1.43.21-3,.78-3.79-1.2,3.88-29.22.74-58.58,1.78-87.86.11-2.94-2.36-5.19-1.82-8.14.83-2.28,2.59-1.46,4.19-1.25,7.83,1,15.22,3.53,22.49,6.46C593.94,288.91,597.05,291.46,598,296Z"/><path class="cls-2" d="M564.12,281.05c3.65,6.54,3.08,13.69,3.06,20.78q-.06,28.44,0,56.87c0,6.94.48,13.91-3.13,20.27-.1.61-.73.66-1.06,1h-8c6.17-3,8.48-7.9,8.4-14.84q-.43-35.16,0-70.34c.08-6.91-2.11-11.85-8.39-14.82h8C563.34,280.38,564,280.44,564.12,281.05Z"/><path class="cls-2" d="M530.33,330c-6.33,0-12.67-.09-19,0-3.69.07-5.62-1.26-5.59-5.19q.11-16,0-32c0-3.59,1.52-5.15,5.1-5.13,13.33.06,26.66,0,40,0,3.35,0,4.92,1.67,4.92,4.89q0,16.25,0,32.49c0,3.55-2,5-5.44,4.91C543.66,329.93,537,330,530.33,330Z"/><path class="cls-2" d="M530.42,357.12c-3.4-.46-5.62-2.31-5.57-6.08s2.36-5.86,5.94-5.83a5.54,5.54,0,0,1,5.83,6C536.57,354.79,534.33,356.89,530.42,357.12Z"/><path class="cls-7" d="M530.91,326c-5.32,0-10.64-.12-15.95,0-3.87.12-5.52-1.62-5.38-5.35,0-.49,0-1,0-1.49-.07-8.2.17-8.45,8.23-8.45,9.3,0,18.61.13,27.91-.05,4.45-.09,6.28,1.59,6.25,6.13-.05,9-.1,9.17-9.1,9.17Z"/><path class="cls-7" d="M530.89,306.92c-5.32,0-10.63-.1-15.95,0-3.85.09-5.47-1.71-5.37-5.42a37.74,37.74,0,0,0,0-4c-.31-4.19,1.45-6.08,5.78-6,10.3.14,20.6.09,30.89,0,3.95,0,5.93,1.61,5.69,5.66a27.1,27.1,0,0,0,0,3.49c.31,4.38-1.48,6.47-6.08,6.27C540.86,306.75,535.87,306.92,530.89,306.92Z"/><path class="cls-1" d="M703,523v30c-1.36,4.61-3.46,8.43-9.08,8.47-6.4-.21-6.39-.21-6.42-6.42,0-3.59.1-7.19,0-10-.26-1.47-1.29-.65-.64-.81.16,0,.63.17.62.36-.63,9.47,1.39,18.85,1.06,28.31-.29,6.89-2.31,9.24-9.51,11.06H627c-6.84-1.72-8.58-3.56-9.49-10-.49-9.85,1.74-19.57,1-29.2,0,3.25,0,6.73,0,10.21,0,6.24,0,6.24-6.42,6.43-5.64,0-7.72-3.86-9.08-8.47V523c.73-5.79,4.49-8.58,9.81-9.66,2.4-.49,3.23-1.87,3.28-4.18.09-4.14-.17-8.29.21-12.42.72-7.82,3.36-10.93,10.7-12.74h52c6.7.83,9.37,5.33,10.4,11.36.72,4.27.45,8.58.46,12.87,0,2.79.63,4.69,3.84,5.29C698.89,514.48,702.25,517.53,703,523Z"/><path class="cls-2" d="M653,541.94c7.65,0,15.31.1,23-.06,2.8,0,4.17.33,4.06,3.7-.26,8.31-.16,16.64,0,25,0,4-1.46,5.73-5.6,5.69q-21.47-.19-42.94,0c-3.77,0-5.49-1.4-5.43-5.27.11-8.49.14-17,0-25.47-.06-2.79.7-3.68,3.56-3.61C637.32,542.06,645.15,541.94,653,541.94Z"/><path class="cls-2" d="M619,575.16c-1.6-2.94-.81-6.12-.75-9.16.06-3.38-.23-5.82-4.57-5a2.89,2.89,0,0,1-2.69-.9c7.11-.1,7.11-.1,7.11-7.35a33.1,33.1,0,0,1,.9-9.37Z"/><path class="cls-2" d="M695.12,560.08c-7.71,0-8.11,5-7.37,10.8a8.27,8.27,0,0,1-.75,3.31V543.34l1,0v9.41C688,560.05,688,560.05,695.12,560.08Z"/><path class="cls-3" d="M653,557.05c-5.31,0-10.63-.21-15.92.08-3.27.17-3.35-1.45-3.3-3.87s-.07-4.09,3.27-4q15.93.28,31.86,0c3.31-.06,3.26,1.64,3.29,4s0,4.06-3.27,3.89C663.64,556.84,658.32,557.05,653,557.05Z"/><path class="cls-8" d="M647,568.71c-3.15,0-6.33-.22-9.46.06-3.3.3-3.75-1.18-3.82-4-.07-3.05.76-4,3.86-3.86,6.64.25,13.29.24,19.92,0,3.23-.12,3.36,1.45,3.34,3.91s-.16,4.19-3.38,4C654,568.52,650.5,568.71,647,568.71Z"/><path class="cls-1" d="M599.9,217.89c2.6-.85,3.22-3.5,4.65-5.35,6.56-8.49,14.47-15.08,24.84-18.28,9.28-2.85,14.94-.17,18.89,8.64.47,1.06.88,2.15,1.36,3.21,3.91,8.63,9.46,11.79,18.4,8.71,14.34-4.93,20.87,1.17,24,15.15,2.19,9.81,1,19.45-2.1,28.92-.32,1-1.53,2-.29,3.12l-1.73,3.61c-3.09,4.27-6,8.66-11.53,10.33-6.31,1.9-10.14.74-13.43-5a50,50,0,0,1-5.44-12.28c-3.3-13-23.09-22.52-35.28-16.9a49,49,0,0,1-10.06,2.86c-11.44,2.58-18.75-5-16-16.53.45-1.92,1.62-3.62,1.59-5.66Z"/><path class="cls-5" d="M716.65,191.78c1.18,2.81.16,5.13-1.59,7.33-5.87,7.34-15.23,9.44-24.88,5.44-3.39-1.4-6.65-3.11-10.3-3.77-5.58-1-10.67-.42-14.17,4.75-1.59,2.35-3.59,3.1-5.88,1.31s-1.69-4-.18-6.15c5-7.14,14.46-9.88,24.23-6.82,3,.94,6,2.16,8.89,3.33,7.72,3.09,11.63,2.12,17.1-4.19a40.48,40.48,0,0,1,3.17-3Z"/><path class="cls-2" d="M624.68,228.6c-2.91-.71-3.94-2.2-2-4.91s1.48-4.53-1.82-5.47-3-2.63-1.73-5.25,2.73-3,5-1.5c2.82,1.94,4.56,1.12,5.41-2,.9-3.32,2.64-2.79,5.17-1.64,2.7,1.24,3.76,2.51,1.83,5.14-2.09,2.85-1,4.5,2,5.41s2.59,2.58,1.49,4.91-2.27,3.59-4.78,1.84c-2.67-1.84-4.56-1.44-5.49,1.87C628.89,230.07,627.13,230.51,624.68,228.6Z"/><path class="cls-2" d="M677.58,236.33c3.17,1,6,2.25,5.16,6.38a4.12,4.12,0,0,1-4.6,3.55c-1.84-.21-3.57-1.44-5.34-2.23a2.48,2.48,0,0,1-1-2,8.19,8.19,0,0,1,2.21-4.79A3.52,3.52,0,0,1,677.58,236.33Z"/><path class="cls-2" d="M672.37,242.66l.43,1.37c-.06,3.92-1.8,6.67-5.94,5.75s-4.49-4.21-3.05-7.78C667.93,238.23,669.69,238.36,672.37,242.66Z"/><path class="cls-2" d="M669.5,230.09c1.75-3.1,4.24-4.94,7.61-2.79,3.07,2,2.77,4.89.91,7.73-1.48,1.55-3.38,1.82-5.38,1.77C669.39,235.59,669,233.05,669.5,230.09Z"/><path class="cls-2" d="M665.1,239.22c-2.47.34-4.52-.13-5.37-2.84a4.57,4.57,0,0,1,1.65-5.26c2.6-2.05,4.9-.67,7.11.93C670.75,236.79,670.11,238.15,665.1,239.22Z"/><path class="cls-11" d="M665.1,239.22c3.53-1.26,4.77-3.6,3.39-7.17l1-2a6.66,6.66,0,0,0,3.46,6.08,2.05,2.05,0,0,1,2.25,1.3l-2.84,5.19c-2.66-2.74-5.51-3-8.56-.66Z"/><path class="cls-12" d="M675.21,237.47l-2.25-1.3L678,235l-.44,1.3Z"/><path class="cls-5" d="M690,364a6.48,6.48,0,0,0,.47-1.93c-.61-11.79,4-21.38,12.87-29.31.88,10.3,1.77,20.77,2.66,31.24Z"/><path class="cls-7" d="M684.4,310c2,10.59,6.82,13.93,18.48,13.33-7.42,9.3-15.14,17.89-24.62,24.76a10,10,0,0,1-1.25.82c-2.48,1.19-5,3.49-7.78,1.45s-1.66-5.19-1.17-7.89a48.72,48.72,0,0,1,4.38-12.1A127.87,127.87,0,0,1,684.4,310Z"/><path class="cls-5" d="M677,264.94c3-.82,5.17.62,7.13,2.51,8.62,8.29,14.36,18.56,19.84,29,.51,1,.16,1.52-1,1.56-8-3-13.45-.46-18.75,9.15-4.5-11-8-22-9.17-33.66C674.78,270.48,675.06,267.51,677,264.94Z"/><path class="cls-7" d="M707.35,300.88c.42-1.42,1.56-1,2.45-.86,10.47,1.77,20.9,3.77,30.58,8.35,3.18,1.5,6.93,3,6.78,7.63-4.56,5.12-11,5.14-17,5.8a143.79,143.79,0,0,1-25,.2c3.1-3.18,6-6.05,6.13-10.43C711.43,307.43,710.83,303.64,707.35,300.88Z"/><path class="cls-9" d="M697.81,317.86a8,8,0,0,1-7.53-7.77,7.72,7.72,0,1,1,15.44.37A8,8,0,0,1,697.81,317.86Z"/><path class="cls-13" d="M729.73,470a.45.45,0,0,1,.16.41,3.64,3.64,0,0,1-4.82,0c0-.15.09-.29.13-.44Z"/><path class="cls-7" d="M725.07,470.44l4.82,0a10,10,0,0,1,8.11,10c0,5-3.27,9.43-8,10.12a15.3,15.3,0,0,0-6.94,3.14,125.59,125.59,0,0,0-14.65,11.87c-1,.94-1.5.91-2.35,0-1.33-1.5-3.63-2.73-4-4.38s2.16-3,3.39-4.55c3.75-4.63,7.27-9.42,10.74-14.26a5.7,5.7,0,0,0,1-3A9.85,9.85,0,0,1,725.07,470.44Z"/><path class="cls-7" d="M733.86,507a7.31,7.31,0,0,1-2.19,5.19c-1.73,1.82-3.62,3.5-5.27,5.39-1.33,1.53-1.91.27-2.73-.45s-1.54-1.43-.26-2.56c1.7-1.49,3.24-3.16,4.8-4.8,1.87-2,2-3.78.49-5.28s-3.55-1.54-5.53.39c-3.36,3.27-6.64,6.63-10,9.93-2.1,2.08-4.32,4-7.23,4.85-4,1.19-8-.49-9.47-4a8.93,8.93,0,0,1,3.37-10.21c1.29-.77,1.57.53,2.15,1s1.71.86.75,1.94c-.39.44-.84.83-1.22,1.27-1.29,1.49-2.2,3.13-.8,5s3.24,1.39,5,.62a14.9,14.9,0,0,0,4.38-3.31c3.5-3.5,6.93-7.06,10.52-10.46a7.67,7.67,0,0,1,11,.07A7.07,7.07,0,0,1,733.86,507Z"/><path class="cls-2" d="M734.87,480.47a11.79,11.79,0,0,1-.25,2c-.41,1.36-.91,3-2.23,3.45-1.14.39-1.79-1.22-2.59-2-2.42-2.31-4.71-4.75-7.14-7-.95-.9-.73-1.45.19-2.09a7.34,7.34,0,0,1,7.79-.89A7.17,7.17,0,0,1,734.87,480.47Z"/><path class="cls-2" d="M720.62,489.51c0,1.42-3.72,5.13-4.94,5.19a2.24,2.24,0,0,1-2-1.21,1.77,1.77,0,0,1,.16-2.32c1-1.1,2.11-2.15,3.2-3.19a1.89,1.89,0,0,1,2.32-.24A2.38,2.38,0,0,1,720.62,489.51Z"/><path class="cls-13" d="M751.3,275.38a.49.49,0,0,1-.44.05,3.64,3.64,0,0,1,1.36-4.63c.12.08.25.17.38.24Z"/><path class="cls-7" d="M752.22,270.8c-.45,1.54-.91,3.08-1.36,4.63a10,10,0,0,1-12,4.88c-4.77-1.42-8.09-5.84-7.38-10.62a15.27,15.27,0,0,0-1-7.55,125.38,125.38,0,0,0-7.16-17.43c-.63-1.19-.45-1.7.71-2.24,1.82-.84,3.66-2.69,5.34-2.53s2.28,2.94,3.38,4.55c3.36,4.92,6.94,9.67,10.58,14.38a5.74,5.74,0,0,0,2.62,1.8A9.85,9.85,0,0,1,752.22,270.8Z"/><path class="cls-7" d="M714.68,268.74a7.37,7.37,0,0,1-4.34-3.59c-1.25-2.18-2.31-4.48-3.65-6.6-1.08-1.71.29-1.91,1.22-2.48s1.81-1.07,2.52.49c.94,2.05,2.1,4,3.23,6,1.37,2.37,3,3,4.91,2s2.49-3,1.21-5.41c-2.17-4.16-4.45-8.26-6.65-12.4a17.61,17.61,0,0,1-2.57-8.31c0-4.2,2.76-7.52,6.56-7.93a8.94,8.94,0,0,1,8.81,6.17c.37,1.45-.95,1.34-1.61,1.75s-1.31,1.4-2.07.16c-.31-.5-.55-1-.86-1.53-1.06-1.66-2.37-3-4.52-2.19s-2.27,2.71-2,4.63a14.52,14.52,0,0,0,1.91,5.15c2.34,4.36,4.77,8.67,7,13.08a7.67,7.67,0,0,1-3.24,10.56A7.12,7.12,0,0,1,714.68,268.74Z"/><path class="cls-2" d="M739.8,277.31a11,11,0,0,1-1.82-.81c-1.19-.79-2.62-1.73-2.67-3.13,0-1.19,1.69-1.36,2.65-1.91,2.91-1.65,5.9-3.15,8.8-4.81,1.14-.65,1.6-.28,2,.78a7.31,7.31,0,0,1-1.38,7.71A7.16,7.16,0,0,1,739.8,277.31Z"/><path class="cls-2" d="M735.22,261.06c-1.35-.42-3.85-5-3.55-6.22a2.25,2.25,0,0,1,1.75-1.62,1.76,1.76,0,0,1,2.16.82c.77,1.3,1.46,2.64,2.14,4a1.87,1.87,0,0,1-.43,2.3A2.37,2.37,0,0,1,735.22,261.06Z"/><path class="cls-7" d="M675.54,610.93c-.34,0-.84.08-1.34.08H653.58c-.87,0-2.06.17-1.65-1.18s-1.49-3.44,1.06-4c1.07-.23,1.2-.71,1.32-1.49.38-2.4.73-4.82,1.18-7.21.61-3.25,2.1-4.45,5.36-4.47q3,0,6,0c3.31,0,4.73,1.16,5.4,4.42.36,1.79.52,3.62.94,5.4.32,1.37-.4,3.54,2.32,3.38C675.93,605.84,676.1,610.34,675.54,610.93Z"/><path class="cls-3" d="M667.26,612.92a32.92,32.92,0,0,1,3.71.31c.93.19.51,1.11.52,1.7,0,2.17,0,4.34,0,6.51,0,1.52-.58,2.59-2.22,2.59s-2.11-1-2.12-2.42c0-2.34,0-4.68,0-7C667.16,614.16,667.21,613.74,667.26,612.92Z"/><path class="cls-9" d="M656,613.26c4.71-.15,4.71-.15,4.66,4,0,1.39,0,2.78,0,4.17s-.59,2.61-2.26,2.56c-1.49,0-2.06-1.06-2.1-2.46C656.16,618.79,656.06,616,656,613.26Z"/><path class="cls-5" d="M795.07,374.24c1.72,6.78,3.39,13.57,5.2,20.33.46,1.71.32,2.5-1.64,3-9,2.18-18,4.5-27,6.84-1.49.39-2.37.3-2.58-1.43a1.47,1.47,0,0,0-1.35-1.48c-1.58-.37-1.88-2.59-1.16-3,1.7-1.05.82-2.11.56-3.14q-3.26-13.11-6.65-26.19c-.27-1,0-2.72-2-2.34-.11,0-.36-.2-.4-.34-.22-.83-.4-1.66-.6-2.49,2.75-.64-1-4.54,3.18-5.28,8.74-1.56,17.33-4.1,25.92-6.45,2.41-.66,3.06,0,3.58,2.25C791.62,361.08,793.39,367.65,795.07,374.24Z"/><path class="cls-2" d="M767.21,381.35c-1.43-5.66-2.81-11.33-4.35-17-.46-1.68-.18-2.33,1.58-2.75,6.8-1.62,13.56-3.36,20.32-5.16,1.53-.4,2.16-.15,2.56,1.48q4.24,17.13,8.7,34.23c.39,1.53.15,2.17-1.47,2.57-6.79,1.63-13.58,3.32-20.31,5.17-2,.55-2.42-.22-2.81-1.87C770.09,392.47,768.63,386.92,767.21,381.35Z"/><path class="cls-9" d="M769.75,376.83c-.87-3.44-1.69-6.89-2.64-10.3-.37-1.33,0-1.88,1.3-2.2,4.75-1.13,9.48-2.35,14.21-3.6,1.2-.32,1.71,0,2,1.2q2.63,10.6,5.37,21.17c.3,1.17.06,1.77-1.17,2.07-4.75,1.16-9.49,2.35-14.21,3.61-1.35.36-1.89-.06-2.2-1.36C771.58,383.88,770.65,380.36,769.75,376.83Z"/><path class="cls-14" d="M783.27,393.88a1.66,1.66,0,0,1-2-1.5,1.6,1.6,0,0,1,1.55-2,1.56,1.56,0,0,1,1.85,1.36A1.66,1.66,0,0,1,783.27,393.88Z"/><path class="cls-14" d="M790.47,392.07a1.71,1.71,0,0,1-2.22-1.34,1.72,1.72,0,0,1,3.33-.84A1.69,1.69,0,0,1,790.47,392.07Z"/><path class="cls-2" d="M783.75,373.55c.58,2.32,1.12,4.65,1.79,6.95.35,1.21,0,1.73-1.2,2-2.43.54-4.85,1.15-7.24,1.84-1.25.36-1.68-.09-2-1.24q-1.74-7.12-3.61-14.21c-.32-1.19,0-1.73,1.19-2,2.43-.53,4.85-1.14,7.24-1.84,1.26-.36,1.7.11,2,1.25C782.48,368.73,783.13,371.13,783.75,373.55Z"/><path class="cls-1" d="M777,503.9c1.38-1.12,2.82-2.17,4.13-3.37,2.43-2.21,5-4,8.52-3.69a5.83,5.83,0,0,0,3.58-1.12c2-1.39,3.74-1,5.43.67a123.83,123.83,0,0,1,8.87,9.74,3.73,3.73,0,0,1,.7,3.8,10.47,10.47,0,0,1-1.16,2.79c-5,6.81-9.86,13.79-17.68,17.66-3.06,1.52-6.09,3.18-9.29,4.43-4.24,1.67-5.75,1.25-8.45-2.35-2.18-2.9-4.23-5.91-6.3-8.89-1.38-2-1.38-3.87.46-5.69a4.85,4.85,0,0,0,1.57-2.55c.53-4.67,4-7,7.26-9.51C775.41,505.2,776.19,504.54,777,503.9Z"/><path class="cls-2" d="M789.92,520c-2,1.6-4,3.17-5.9,4.8-.9.77-1.56,1.07-2.46-.1-2.27-2.94-4.62-5.82-7-8.66-.8-1-.67-1.53.25-2.26q6.24-5,12.4-10.06c.94-.77,1.51-.69,2.26.27q3.43,4.38,7,8.66c.79.94.69,1.53-.25,2.26C794.1,516.56,792,518.29,789.92,520Z"/><path class="cls-2" d="M774.3,526.42c-1.12-.11-2.69.74-4-.65-1-1-.69-3.76.52-4.54a3.23,3.23,0,0,1,4.27.43C776.1,522.65,775.78,525.23,774.3,526.42Z"/><path class="cls-2" d="M796.06,504.76a1.54,1.54,0,0,1,2.31.37,1.35,1.35,0,0,1-.29,2,1.41,1.41,0,0,1-2.19-.21A1.57,1.57,0,0,1,796.06,504.76Z"/><path class="cls-2" d="M797.77,499.34a1.45,1.45,0,0,1-.3,2.2,1.5,1.5,0,0,1-2.19-.41,1.54,1.54,0,0,1,2.49-1.79Z"/><path class="cls-15" d="M832.67,546a55.19,55.19,0,0,1,10.73,33.74c-.11,3.87-1.22,27.43-17.08,37.28-15.53,9.63-36,.47-38.84,7.44-1.71,4.26,5.46,8.87,3.74,11.88-2.81,4.94-49.94,1.14-43.54-10.4,21.12-38.11,17.47-36.94,22.52-35.7,3.36.82.51,10.59,6.61,15.14,8.09,6,27.65-.25,31.11-10.84,3.07-9.41-8.66-15.87-6.95-26.3C802.62,558.19,815.73,551.11,832.67,546Z"/><path class="cls-15" d="M520.43,522.62a55.18,55.18,0,0,1-35.32,2.5c-3.73-1-26.37-7.61-32.22-25.35-5.72-17.35,8-35.14,1.88-39.5-3.74-2.66-9.9,3.23-12.42.85-4.14-3.89,10.62-48.81,20.33-39.89,32.08,29.49,31.8,25.66,29.41,30.28-1.58,3.07-10.41-2-16.26,2.87-7.76,6.44-6.25,26.93,3.22,32.78,8.43,5.2,17.47-4.69,27.2-.58C515.66,490.55,519.46,505,520.43,522.62Z"/><path class="cls-15" d="M715.14,149.34a55.25,55.25,0,0,1,31.75-15.67c3.84-.47,27.3-2.92,39.42,11.29,11.85,13.9,5.88,35.56,13.19,37.28,4.47,1,8-6.73,11.18-5.48,5.31,2,8.62,49.21-3.74,44.61-40.85-15.16-39.14-11.72-38.68-16.91.31-3.44,10.39-2.09,14-8.81,4.75-8.89-4.39-27.29-15.38-29.12-9.76-1.63-14.39,10.95-25,10.82C731.69,177.23,722.72,165.33,715.14,149.34Z"/></svg>